<?xml version="1.0" encoding="utf-8"?>
<!-- Generator: Adobe Illustrator 21.1.0, SVG Export Plug-In . SVG Version: 6.00 Build 0)  -->
<svg version="1.1" id="Layer_1" xmlns="http://www.w3.org/2000/svg" xmlns:xlink="http://www.w3.org/1999/xlink" x="0px" y="0px"
	 width="320px" height="529.1px" viewBox="0 0 320 529.1" style="enable-background:new 0 0 320 529.1;" xml:space="preserve">
<style type="text/css">
	.st0{fill:#F6F9FC;}
	.st1{fill:#D9E0E8;}
</style>
<polygon class="st0" points="103.3,264.5 103.7,264.9 103.3,264.5 "/>
<polygon class="st0" points="0,1.3 0,178.8 103.7,264.2 104.1,264.5 103.7,264.9 0,350.3 0,527.8 319.6,264.5 "/>
<polygon class="st1" points="102.9,264.2 0,179.4 0,180.1 102.5,264.5 "/>
<polygon class="st1" points="103.3,264.5 103.3,264.5 103.3,264.5 "/>
<polygon class="st1" points="102.5,264.5 0,349 0,349.7 102.9,264.9 "/>
<polygon class="st1" points="103.3,264.5 102.9,264.2 102.5,264.5 102.9,264.9 103.3,264.5 "/>
<polygon class="st1" points="320,264.9 0,528.4 0,529.1 320,265.5 "/>
<polygon class="st1" points="320,263.6 0,0 0,0.6 320,264.2 "/>
<polygon class="st1" points="320,264.2 320,264.2 0,0.6 0,1.3 319.6,264.5 "/>
<polygon class="st1" points="103,264.2 102.9,264.2 103.3,264.5 "/>
<polygon class="st1" points="320,264.9 320,264.2 319.6,264.5 "/>
<polygon class="st1" points="103,264.2 103.3,264.5 103.3,264.5 103.7,264.2 0,178.8 0,179.4 102.9,264.2 "/>
<polygon class="st1" points="103.3,264.5 103,264.9 102.9,264.9 0,349.7 0,350.3 103.7,264.9 "/>
<polygon class="st1" points="320,264.9 319.6,264.5 0,527.8 0,528.4 320,264.9 "/>
<polygon class="st1" points="102.9,264.9 103,264.9 103.3,264.5 103.3,264.5 "/>
<polygon class="st1" points="103.3,264.5 103.7,264.2 103.3,264.5 "/>
<circle class="st1" cx="103.3" cy="264.5" r="0"/>
<polygon class="st1" points="103.7,264.9 104.1,264.5 103.7,264.2 103.3,264.5 "/>
</svg>
