<svg width="112" height="25" viewBox="0 0 112 25" fill="none" xmlns="http://www.w3.org/2000/svg">
<path d="M111.029 0.798504C111.441 0.844766 111.737 1.21596 111.691 1.62758L110.937 8.33534C110.891 8.74697 110.52 9.04314 110.108 8.99688C109.696 8.95061 109.4 8.57942 109.446 8.1678L110.117 2.20534L104.154 1.53517C103.742 1.4889 103.446 1.11771 103.493 0.706092C103.539 0.29447 103.91 -0.00170608 104.322 0.0445556L111.029 0.798504ZM1.58536 1.17046C24.8289 30.3008 73.544 30.4277 110.478 0.957562L111.413 2.13006C74.0949 31.9071 24.3604 32.1187 0.412864 2.10601L1.58536 1.17046Z" fill="url(#paint0_linear_510_4773)"/>
<defs>
<linearGradient id="paint0_linear_510_4773" x1="77.3342" y1="28.363" x2="34.6106" y2="-25.1809" gradientUnits="userSpaceOnUse">
<stop stop-color="#4C81DD"/>
<stop offset="1" stop-color="#32325D"/>
</linearGradient>
</defs>
</svg>
