<?xml version="1.0" encoding="utf-8"?>
<!-- Generator: Adobe Illustrator 21.1.0, SVG Export Plug-In . SVG Version: 6.00 Build 0)  -->
<svg version="1.1" id="Layer_1" xmlns="http://www.w3.org/2000/svg" xmlns:xlink="http://www.w3.org/1999/xlink" x="0px" y="0px"
	 width="259.5px" height="115.5px" viewBox="0 0 259.5 115.5" style="enable-background:new 0 0 259.5 115.5;" xml:space="preserve"
	>
<style type="text/css">
	.st0{fill:#FFFFFF;}
</style>
<g>
	<path class="st0" d="M18.8,97.3L1.3,113.8c-0.4,0.4-0.4,1,0,1.4c0.4,0.4,1,0.4,1.4,0l17.5-16.5c0.4-0.4,0.4-1,0-1.4
		S19.2,96.9,18.8,97.3z"/>
	<path class="st0" d="M1.5,6.8L19,18.3c0.5,0.3,1.1,0.2,1.4-0.3c0.3-0.5,0.2-1.1-0.3-1.4L2.5,5.2C2.1,4.9,1.5,5,1.2,5.5
		C0.9,5.9,1,6.5,1.5,6.8z"/>
	<path class="st0" d="M19.5,54.5H1c-0.6,0-1,0.4-1,1s0.4,1,1,1h18.5c0.6,0,1-0.4,1-1S20.1,54.5,19.5,54.5z"/>
	<path class="st0" d="M258.5,53h-20c-0.6,0-1,0.4-1,1s0.4,1,1,1h20c0.6,0,1-0.4,1-1S259.1,53,258.5,53z"/>
	<path class="st0" d="M237.1,97.2c-0.4-0.4-1.1-0.3-1.4,0.1c-0.4,0.4-0.3,1.1,0.1,1.4l20,16.5c0.4,0.4,1.1,0.3,1.4-0.1
		c0.4-0.4,0.3-1.1-0.1-1.4L237.1,97.2z"/>
	<path class="st0" d="M236.6,18.3l19.5-16.5c0.4-0.4,0.5-1,0.1-1.4c-0.4-0.4-1-0.5-1.4-0.1l-19.5,16.5c-0.4,0.4-0.5,1-0.1,1.4
		S236.2,18.6,236.6,18.3z"/>
</g>
</svg>
