<?xml version="1.0" encoding="utf-8"?>
<!-- Generator: Adobe Illustrator 21.1.0, SVG Export Plug-In . SVG Version: 6.00 Build 0)  -->
<svg version="1.1" id="Layer_1" xmlns="http://www.w3.org/2000/svg" xmlns:xlink="http://www.w3.org/1999/xlink" x="0px" y="0px"
	 width="49px" height="59px" viewBox="0 0 49 59" style="enable-background:new 0 0 49 59;" xml:space="preserve">
<g>
	<path d="M49,7.5C49,3.4,38,0,24.5,0C11.5,0,0.9,3.1,0.1,7C0,7.2,0,7.3,0,7.5V51c0,0.4,0.1,0.7,0.2,1c0.3,1,1.1,1.9,2.1,2.5
		c1.3,0.9,3.2,1.7,5.3,2.4C12,58.2,17.9,59,24.5,59c6.6,0,12.5-0.8,16.9-2.1c2.2-0.7,4-1.4,5.3-2.4C48,53.6,49,52.5,49,51V8h-0.1
		C49,7.8,49,7.7,49,7.5z M47,51c0,0.5-0.3,1.1-1.4,1.9c-1.1,0.8-2.7,1.5-4.8,2.1c-4.1,1.2-9.9,2-16.3,2c-6.4,0-12.2-0.8-16.3-2
		c-2.1-0.6-3.7-1.3-4.8-2.1C2.3,52.1,2,51.5,2,51V40.3c0.1,0.1,0.2,0.1,0.3,0.2c1.3,0.9,3.2,1.7,5.3,2.4C12,44.2,17.9,45,24.5,45
		c6.6,0,12.5-0.8,16.9-2.1c2.2-0.7,4-1.4,5.3-2.4c0.1-0.1,0.2-0.1,0.3-0.2V51z M47,37c0,0.5-0.3,1.1-1.4,1.9
		c-1.1,0.8-2.7,1.5-4.8,2.1c-4.1,1.2-9.9,2-16.3,2c-6.4,0-12.2-0.8-16.3-2c-2.1-0.6-3.7-1.3-4.8-2.1C2.3,38.1,2,37.5,2,37V25.3
		c0.1,0.1,0.2,0.1,0.3,0.2c1.3,0.9,3.2,1.7,5.3,2.4C12,29.2,17.9,30,24.5,30c6.6,0,12.5-0.8,16.9-2.1c2.2-0.7,4-1.4,5.3-2.4
		c0.1-0.1,0.2-0.1,0.3-0.2V37z M47,22c0,0.5-0.3,1.1-1.4,1.9c-1.1,0.8-2.7,1.5-4.8,2.1c-4.1,1.2-9.9,2-16.3,2
		c-6.4,0-12.2-0.8-16.3-2c-2.1-0.6-3.7-1.3-4.8-2.1C2.3,23.1,2,22.5,2,22V10.5C5.8,13.1,14.4,15,24.5,15c10.1,0,18.7-1.9,22.5-4.5
		V22z M45.9,8.8c-1,0.7-2.5,1.4-4.7,2.1C37,12.2,31.1,13,24.5,13c-6.6,0-12.5-0.8-16.7-2.1c-2.1-0.7-3.7-1.4-4.7-2.1
		C2.1,8.1,2,7.6,2,7.5S2.1,7,3.1,6.2c1-0.7,2.5-1.4,4.7-2.1C12,2.8,17.9,2,24.5,2C31.1,2,37,2.8,41.2,4.1c2.1,0.6,3.7,1.4,4.7,2.1
		C46.9,7,47,7.4,47,7.5S46.9,8.1,45.9,8.8z"/>
	<path d="M0.2,52H0v-1C0,51.4,0.1,51.7,0.2,52z"/>
	<path d="M0.1,7C0,7.2,0,7.3,0,7.5L0.1,7L0.1,7z"/>
	<path d="M42,19c0,1.1-0.9,2-2,2c-1.1,0-2-0.9-2-2c0-1.1,0.9-2,2-2C41.1,17,42,17.9,42,19z"/>
	<path d="M42,33c0,1.1-0.9,2-2,2c-1.1,0-2-0.9-2-2c0-1.1,0.9-2,2-2C41.1,31,42,31.9,42,33z"/>
	<path d="M42,48c0,1.1-0.9,2-2,2c-1.1,0-2-0.9-2-2c0-1.1,0.9-2,2-2C41.1,46,42,46.9,42,48z"/>
</g>
</svg>
