<?xml version="1.0" encoding="utf-8"?>
<!-- Generator: Adobe Illustrator 21.1.0, SVG Export Plug-In . SVG Version: 6.00 Build 0)  -->
<svg version="1.1" id="Layer_1" xmlns="http://www.w3.org/2000/svg" xmlns:xlink="http://www.w3.org/1999/xlink" x="0px" y="0px"
	 width="71.5px" height="63px" viewBox="0 0 71.5 63" style="enable-background:new 0 0 71.5 63;" xml:space="preserve">
<style type="text/css">
	.st0{fill:#FFFFFF;}
	.st1{fill:#32325D;}
</style>
<g>
	<polygon class="st0" points="30.3,26.5 30.3,26.5 30.3,26.5 30.3,26.5 30.3,26.5 	"/>
	<polygon class="st0" points="57.6,52.2 57.6,52.2 57.6,52.2 	"/>
	<path class="st1" d="M69.5,55H67V20c0-0.3-0.1-0.5-0.2-0.8c-0.1-0.2-0.2-0.4-0.4-0.6c-0.3-0.3-0.6-0.5-1-0.6c-0.1,0-0.3,0-0.4,0
		H37.8c0.1-0.6,0.2-1.3,0.2-2c0-9.2-8.9-16-19-16S0,6.8,0,16c0,7.9,6.7,14.1,15,15.6c0.7,0.1,1.3,0.2,2,0.3V55h-2.5
		c-1.6,0-2.5,1.7-1.7,3l0.6,1c1.4,2.4,4.1,4,6.9,4h43.5c1.4,0,2.8-0.4,4-1.1c1.2-0.7,2.2-1.7,2.9-2.9l0.6-1C72,56.7,71.1,55,69.5,55
		z M65,20v35h-6v-4.2c0,0-1.1-1.1-3.3-2.3c-0.4-0.2-0.8-0.4-1.3-0.6c-2.2-0.9-5.1-1.8-8.9-1.9c-7-0.3-11.1,2.6-12.7,4
		c-0.3,0.2-0.5,0.4-0.6,0.6c-0.1,0.1-0.2,0.2-0.2,0.2V55H19V32c0.7,0,1.5-0.1,2.2-0.1l6,5.6l2.7,2.5l0.7-3.6l1.6-8.8
		c2.5-2,4.4-4.6,5.3-7.6H65z M57,51.7V55H34v-3.4c0,0,0.1-0.1,0.1-0.1c0.5-0.4,1.2-0.9,2.1-1.5c1.9-1.1,4.9-2.2,9.2-2
		c4.3,0.1,7.4,1.3,9.4,2.3C55.8,50.8,56.5,51.3,57,51.7L57,51.7z M15,29.6C7.5,28.1,2,22.6,2,16C2,8.3,9.6,2,19,2s17,6.3,17,14
		c0,0.7-0.1,1.3-0.2,2c-0.1,0.7-0.3,1.4-0.5,2c-0.9,2.5-2.7,4.8-5,6.5l-1.3,7.2L28.5,36l-1.7-1.6l-4.9-4.6C20.9,29.9,20,30,19,30
		c-0.7,0-1.3,0-2-0.1C16.3,29.8,15.7,29.7,15,29.6z M68.9,58c-1.1,1.8-3,3-5.2,3H20.3c-2.1,0-4.1-1.1-5.2-3l-0.6-1h55L68.9,58z"/>
	<path class="st1" d="M45,31c-3.3,0-6,2.7-6,6s2.7,6,6,6s6-2.7,6-6S48.3,31,45,31z M45,41c-2.2,0-4-1.8-4-4s1.8-4,4-4s4,1.8,4,4
		S47.2,41,45,41z"/>
	<polygon class="st1" points="30.3,26.5 30.3,26.5 30.3,26.5 	"/>
	<circle class="st1" cx="30.3" cy="26.5" r="0"/>
	<polygon class="st0" points="21.9,29.8 21.9,29.8 21.9,29.8 21.9,29.8 21.9,29.8 	"/>
	<rect x="14" y="8" class="st1" width="10" height="2"/>
	<path class="st1" d="M14,8v2c-0.6,0-1-0.4-1-1S13.4,8,14,8z"/>
	<path class="st1" d="M25,9c0,0.6-0.4,1-1,1V8C24.6,8,25,8.4,25,9z"/>
	<path class="st1" d="M25,21c0,0.6-0.4,1-1,1H14c-0.6,0-1-0.4-1-1s0.4-1,1-1h10C24.6,20,25,20.4,25,21z"/>
	<path class="st1" d="M29,15c0,0.6-0.4,1-1,1H10c-0.6,0-1-0.4-1-1s0.4-1,1-1h18C28.6,14,29,14.4,29,15z"/>
</g>
</svg>
