<svg width="49" height="49" viewBox="0 0 49 49" fill="none" xmlns="http://www.w3.org/2000/svg">
<path d="M24.4755 0C10.9515 0 0 10.976 0 24.5C0 38.024 10.9515 49 24.4755 49C38.024 49 49 38.024 49 24.5C49 10.976 38.024 0 24.4755 0ZM41.454 14.7H34.2265C33.4425 11.6375 32.3155 8.6975 30.8455 5.978C35.3535 7.5215 39.102 10.6575 41.454 14.7ZM24.5 4.998C26.5335 7.938 28.126 11.1965 29.1795 14.7H19.8205C20.874 11.1965 22.4665 7.938 24.5 4.998ZM5.537 29.4C5.145 27.832 4.9 26.1905 4.9 24.5C4.9 22.8095 5.145 21.168 5.537 19.6H13.818C13.622 21.217 13.475 22.834 13.475 24.5C13.475 26.166 13.622 27.783 13.818 29.4H5.537ZM7.546 34.3H14.7735C15.5575 37.3625 16.6845 40.3025 18.1545 43.022C13.6465 41.4785 9.898 38.367 7.546 34.3ZM14.7735 14.7H7.546C9.898 10.633 13.6465 7.5215 18.1545 5.978C16.6845 8.6975 15.5575 11.6375 14.7735 14.7ZM24.5 44.002C22.4665 41.062 20.874 37.8035 19.8205 34.3H29.1795C28.126 37.8035 26.5335 41.062 24.5 44.002ZM30.233 29.4H18.767C18.5465 27.783 18.375 26.166 18.375 24.5C18.375 22.834 18.5465 21.1925 18.767 19.6H30.233C30.4535 21.1925 30.625 22.834 30.625 24.5C30.625 26.166 30.4535 27.783 30.233 29.4ZM30.8455 43.022C32.3155 40.3025 33.4425 37.3625 34.2265 34.3H41.454C39.102 38.3425 35.3535 41.4785 30.8455 43.022ZM35.182 29.4C35.378 27.783 35.525 26.166 35.525 24.5C35.525 22.834 35.378 21.217 35.182 19.6H43.463C43.855 21.168 44.1 22.8095 44.1 24.5C44.1 26.1905 43.855 27.832 43.463 29.4H35.182Z" fill="#32325D"/>
</svg>
