<svg width="55" height="46" viewBox="0 0 55 46" fill="none" xmlns="http://www.w3.org/2000/svg">
<path fill-rule="evenodd" clip-rule="evenodd" d="M34.1016 18.1731C33.7563 18.3571 33.2996 18.9428 32.9302 20.3454C32.6563 21.3855 32.5235 22.4768 32.3949 23.533C32.3582 23.8342 32.3219 24.1326 32.2827 24.4261C32.2628 24.575 32.2421 24.7391 32.2197 24.916C32.0488 26.2655 31.7834 28.3615 31.1121 30.1324C30.7247 31.1544 30.1344 32.2675 29.1809 33.1083C28.162 34.0069 26.8475 34.4857 25.3112 34.3585L25.3112 34.3585C21.5979 34.0509 19.7087 31.2712 18.468 29.4333C18.4079 29.3442 18.3493 29.2572 18.2919 29.1721C17.6888 28.2765 17.2313 27.5973 16.7122 27.064C16.1992 26.537 15.7618 26.3022 15.2643 26.2395L15.2643 26.2395C14.8639 26.1891 14.768 26.2875 14.6966 26.3607L14.6943 26.3631C14.5259 26.5356 14.2776 26.9566 14.0923 27.8005C13.7228 29.482 13.805 31.8676 14.0697 34.1054C14.2067 35.263 13.3863 36.3133 12.2373 36.4513C11.0883 36.5893 10.0458 35.7628 9.90882 34.6051C9.6322 32.2674 9.47223 29.2945 10.0009 26.8881C10.2645 25.688 10.7504 24.3826 11.7062 23.4032C12.7588 22.3246 14.1796 21.848 15.7845 22.0503L15.5244 24.1449L15.7845 22.0503C17.4939 22.2658 18.7519 23.1298 19.704 24.1079C20.5061 24.9319 21.183 25.9413 21.7408 26.7731C21.8065 26.8711 21.8706 26.9666 21.933 27.0591C23.2626 29.0287 24.1456 30.0258 25.6546 30.1508C26.0537 30.1839 26.2502 30.0822 26.4209 29.9316C26.6571 29.7233 26.935 29.3185 27.1975 28.6261C27.6757 27.3646 27.8766 25.8132 28.0588 24.4055C28.0826 24.2221 28.106 24.0413 28.1296 23.8638C28.1566 23.6617 28.1846 23.4292 28.2154 23.1735C28.3447 22.0999 28.5233 20.6171 28.88 19.2627C29.3043 17.6514 30.1471 15.5045 32.1422 14.4412L32.1423 14.4412C34.398 13.239 36.4818 14.4962 37.444 15.2436C37.9972 15.6732 38.4428 16.1294 38.7346 16.4484C38.8591 16.5845 38.9634 16.7043 39.0288 16.7797C39.432 17.1644 39.6834 17.7089 39.6834 18.3125C39.6834 18.4981 39.663 19.0571 39.2501 19.5992C38.7325 20.2789 37.9895 20.4504 37.4746 20.4226C37.0542 20.4 36.7513 20.2545 36.646 20.2014C36.5097 20.1326 36.4091 20.0629 36.3562 20.0245C36.1903 19.904 36.0707 19.7771 36.058 19.7636L36.057 19.7625C35.9996 19.7028 35.9408 19.6352 35.9143 19.6047L35.9099 19.5998C35.8995 19.5878 35.889 19.5757 35.8783 19.5634C35.813 19.4883 35.7424 19.407 35.6535 19.3099C35.4453 19.0823 35.1791 18.8152 34.8857 18.5872C34.5791 18.3491 34.3376 18.2286 34.1833 18.1865C34.1414 18.1751 34.116 18.1722 34.1044 18.1716M36.1675 16.761C36.253 16.6811 36.3421 16.6115 36.4331 16.5511C36.339 16.6139 36.2502 16.6841 36.1675 16.761Z" fill="#32325D"/>
<path d="M41.8281 19.3057L46.1182 32.1761L48.9784 26.4559L54.6986 23.5958L41.8281 19.3057Z" fill="#32325D"/>
<path fill-rule="evenodd" clip-rule="evenodd" d="M46 0H5.75C2.55875 0 0 2.5875 0 5.75V40.25C0 43.4125 2.55875 46 5.75 46H46C49.1625 46 51.75 43.4125 51.75 40.25V34.7104H46V40.25H5.75V9.60671H25.875H46V16.4085H51.75V5.75C51.75 2.5875 49.1913 0 46 0ZM10.7813 5.75C10.7813 6.94086 9.81588 7.90625 8.62502 7.90625C7.43416 7.90625 6.46877 6.94086 6.46877 5.75C6.46877 4.55913 7.43416 3.59375 8.62502 3.59375C9.81588 3.59375 10.7813 4.55913 10.7813 5.75ZM15.0938 7.90625C16.2847 7.90625 17.25 6.94086 17.25 5.75C17.25 4.55913 16.2847 3.59375 15.0938 3.59375C13.9029 3.59375 12.9375 4.55913 12.9375 5.75C12.9375 6.94086 13.9029 7.90625 15.0938 7.90625ZM23.7188 5.75C23.7188 6.94086 22.7534 7.90625 21.5626 7.90625C20.3717 7.90625 19.4063 6.94086 19.4063 5.75C19.4063 4.55913 20.3717 3.59375 21.5626 3.59375C22.7534 3.59375 23.7188 4.55913 23.7188 5.75Z" fill="#32325D"/>
</svg>
