<?xml version="1.0" encoding="utf-8"?>
<!-- Generator: Adobe Illustrator 21.1.0, SVG Export Plug-In . SVG Version: 6.00 Build 0)  -->
<svg version="1.1" id="Layer_1" xmlns="http://www.w3.org/2000/svg" xmlns:xlink="http://www.w3.org/1999/xlink" x="0px" y="0px"
	 width="86px" height="26.6px" viewBox="0 0 86 26.6" style="enable-background:new 0 0 86 26.6;" xml:space="preserve">
<style type="text/css">
	.st0{fill:#FFFFFF;}
	.st1{fill:#333333;}
</style>
<path class="st0" d="M68.8,7.3c0,1.3,0,2.6,0,3.9c1.9,0,3.8,0,5.8,0c0,5,0,10.1,0,15.1c1.4,0,2.8,0,4.2,0c0-6.3,0-12.7,0-19
	C75.4,7.3,72.1,7.3,68.8,7.3z M42.2,7.3c0,6.3,0,12.7,0,19c1.4,0,2.8,0,4.2,0c0-6.3,0-12.7,0-19C45,7.3,43.6,7.3,42.2,7.3z M8.7,7.3
	c0,4.1,0,8.2,0,12.4c0,0.8-0.2,1.8-0.8,2.4c-0.7,0.7-1.9,0.8-2.8,0.5c-1-0.3-1.7-1-2.4-1.7c-0.9,1-1.7,2-2.6,2.9
	c1.5,1.8,3.8,2.9,6.2,2.8c1.8,0.1,3.8-0.5,5.1-1.8c1.2-1.2,1.6-3,1.7-4.6c0-4.3,0-8.6,0-12.8C11.5,7.3,10.1,7.3,8.7,7.3z M56.9,7.1
	c-1.7,0.3-3.3,1.2-4.2,2.7c-0.8,1.3-0.9,2.9-0.7,4.4c0.2,1.2,1,2.3,2.1,2.9c1.6,0.9,3.4,1.3,5.1,1.8c0.8,0.2,1.6,0.5,2.2,0.9
	c0.7,0.5,0.8,1.5,0.3,2.2c-0.6,0.8-1.7,0.9-2.6,0.9c-2.1,0-4-1-5.5-2.3c-0.8,1-1.7,2-2.5,3c2.2,1.9,5,3,7.9,3
	c1.5,0.1,2.9-0.2,4.3-0.9c1.4-0.7,2.5-2.1,2.8-3.7c0.2-1.4,0.2-3-0.6-4.2c-0.7-1.1-2-1.8-3.2-2.2c-1.6-0.6-3.3-0.8-4.8-1.5
	c-0.4-0.2-0.8-0.4-1.1-0.7c-0.3-0.4-0.3-0.9-0.2-1.4c0.3-0.9,1.4-1.2,2.3-1.2c1.9,0,3.6,0.9,5.1,1.9c0.7-1,1.5-2.1,2.2-3.2
	C63.2,7.5,60,6.7,56.9,7.1z M27.1,7c-2.9,0.1-5.7,1.5-7.5,3.8c-1.4,1.7-2.1,4-2.1,6.2c0,2.8,1.3,5.6,3.4,7.4
	c2.8,2.3,6.7,2.9,10.1,1.7c2.4-0.8,4.5-2.6,5.7-4.9c0.9-1.9,1.2-4.1,0.8-6.2c-0.4-2.5-1.9-4.9-4.1-6.3C31.6,7.4,29.3,6.8,27.1,7z
	 M84.4,4.8c-1.3,0.8-2.7,1.6-4,2.5c0,1.2,0,2.5,0,3.7c1.8-1.1,3.6-2.2,5.3-3.3C85.8,7.6,86,7.6,86,7.4c0-1.2,0-2.4,0-3.5
	C85.5,4.1,84.9,4.5,84.4,4.8z M80.1,0c0,1.2,0,2.5,0,3.7c0.7,0.5,1.5,0.9,2.3,1.4c1-0.6,1.9-1.3,2.9-1.9C83.6,2.1,81.8,1.1,80.1,0z"
	/>
<path class="st1" d="M80.1,0c1.7,1.1,3.5,2.1,5.2,3.2c-1,0.6-1.9,1.3-2.9,1.9c-0.7-0.5-1.5-0.9-2.3-1.4C80.1,2.5,80.1,1.2,80.1,0z"
	/>
<path class="st1" d="M26.8,10.8c-1,0.1-2,0.5-2.8,1.2c-1.4,1.1-2.2,2.9-2.1,4.7c-0.1,1.5,0.5,3.1,1.6,4.2c1.1,1.2,2.7,1.9,4.3,1.8
	c1.7,0,3.4-0.8,4.4-2.1c1.8-2.3,1.6-5.9-0.4-8C30.5,11.2,28.6,10.6,26.8,10.8z M27.1,7c2.2-0.1,4.6,0.4,6.4,1.7
	c2.1,1.4,3.6,3.7,4.1,6.3c0.4,2.1,0.1,4.3-0.8,6.2c-1.1,2.3-3.2,4.1-5.7,4.9c-3.4,1.2-7.4,0.6-10.1-1.7c-2.2-1.8-3.5-4.6-3.4-7.4
	c-0.1-2.2,0.7-4.5,2.1-6.2C21.3,8.4,24.2,7.1,27.1,7z"/>
<path class="st1" d="M56.9,7.1c3-0.5,6.3,0.3,8.7,2.3c-0.7,1.1-1.4,2.1-2.2,3.2c-1.5-1-3.2-1.9-5.1-1.9c-0.9,0-1.9,0.3-2.3,1.2
	c-0.1,0.5-0.1,1,0.2,1.4c0.3,0.4,0.7,0.6,1.1,0.7c1.6,0.6,3.3,0.9,4.8,1.5c1.2,0.5,2.5,1.1,3.2,2.2c0.8,1.2,0.9,2.8,0.6,4.2
	c-0.3,1.6-1.4,3-2.8,3.7c-1.3,0.7-2.8,0.9-4.3,0.9c-2.9,0-5.7-1.1-7.9-3c0.8-1,1.7-2,2.5-3c1.6,1.3,3.5,2.3,5.5,2.3
	c0.9,0,2-0.1,2.6-0.9c0.5-0.6,0.4-1.7-0.3-2.2c-0.6-0.5-1.4-0.7-2.2-0.9c-1.7-0.5-3.6-0.8-5.1-1.8c-1.1-0.6-1.8-1.7-2.1-2.9
	c-0.3-1.5-0.2-3.1,0.7-4.4C53.6,8.3,55.2,7.4,56.9,7.1z"/>
<path class="st1" d="M8.7,7.3c1.4,0,2.8,0,4.3,0c0,4.3,0,8.6,0,12.8c-0.1,1.7-0.5,3.4-1.7,4.6C10,26.1,8,26.6,6.2,26.5
	c-2.4,0.1-4.7-1-6.2-2.8c0.9-1,1.8-1.9,2.6-2.9c0.7,0.7,1.5,1.4,2.4,1.7C6,22.8,7.2,22.8,7.9,22c0.6-0.6,0.8-1.6,0.8-2.4
	C8.7,15.5,8.7,11.4,8.7,7.3z"/>
<path class="st1" d="M42.2,7.3c1.4,0,2.8,0,4.2,0c0,6.3,0,12.7,0,19c-1.4,0-2.8,0-4.2,0C42.2,19.9,42.2,13.6,42.2,7.3z"/>
<path class="st1" d="M68.8,7.3c3.3,0,6.6,0,9.9,0c0,6.3,0,12.7,0,19c-1.4,0-2.8,0-4.2,0c0-5,0-10.1,0-15.1c-1.9,0-3.8,0-5.8,0
	C68.8,9.8,68.8,8.6,68.8,7.3z"/>
<path d="M84.4,3.8c0.5-0.3,1.1-0.7,1.6-1c0,1.2,0,2.4,0,3.5c0,0.2-0.2,0.3-0.3,0.4c-1.8,1.1-3.6,2.2-5.3,3.3c0-1.2,0-2.5,0-3.7
	C81.7,5.4,83.1,4.6,84.4,3.8z"/>
</svg>
