<?xml version="1.0" encoding="utf-8"?>
<!-- Generator: Adobe Illustrator 21.1.0, SVG Export Plug-In . SVG Version: 6.00 Build 0)  -->
<svg version="1.1" id="Layer_1" xmlns="http://www.w3.org/2000/svg" xmlns:xlink="http://www.w3.org/1999/xlink" x="0px" y="0px"
	 width="48px" height="48px" viewBox="0 0 48 48" style="enable-background:new 0 0 48 48;" xml:space="preserve">
<style type="text/css">
	.st0{fill:#333333;}
	.st1{fill:#FFFFFF;}
</style>
<path class="st0" d="M39.3,0H8.7C3.9,0,0,3.9,0,8.7v30.6C0,44.1,3.9,48,8.7,48h30.6c4.8,0,8.7-3.9,8.7-8.7V8.7C48,3.9,44.1,0,39.3,0
	z"/>
<path class="st1" d="M41.4,21.9c0-7.8-7.8-14.2-17.5-14.2c-9.6,0-17.5,6.4-17.5,14.2c0,7,6.2,12.9,14.6,14c0.6,0.1,1.3,0.4,1.5,0.9
	c0.2,0.4,0.1,1.1,0.1,1.6c0,0-0.2,1.2-0.2,1.5c-0.1,0.4-0.4,1.7,1.5,0.9C25.8,40,34,34.8,37.7,30.6h0C40.2,27.8,41.4,25,41.4,21.9z"
	/>
<path class="st0" d="M20.4,18.1h-1.2c-0.2,0-0.3,0.2-0.3,0.3v7.6c0,0.2,0.2,0.3,0.3,0.3h1.2c0.2,0,0.3-0.2,0.3-0.3v-7.6
	C20.7,18.3,20.6,18.1,20.4,18.1z"/>
<path class="st0" d="M28.8,18.1h-1.2c-0.2,0-0.3,0.2-0.3,0.3V23l-3.5-4.7c0,0,0,0,0,0l0,0c0,0,0,0,0,0c0,0,0,0,0,0c0,0,0,0,0,0
	c0,0,0,0,0,0c0,0,0,0,0,0c0,0,0,0,0,0c0,0,0,0,0,0c0,0,0,0,0,0c0,0,0,0,0,0c0,0,0,0,0,0c0,0,0,0,0,0c0,0,0,0,0,0c0,0,0,0,0,0
	c0,0,0,0,0,0c0,0,0,0,0,0c0,0,0,0,0,0c0,0,0,0,0,0h-1.2c-0.2,0-0.3,0.2-0.3,0.3v7.6c0,0.2,0.2,0.3,0.3,0.3h1.2
	c0.2,0,0.3-0.2,0.3-0.3v-4.5l3.5,4.7c0,0,0.1,0.1,0.1,0.1c0,0,0,0,0,0c0,0,0,0,0,0c0,0,0,0,0,0c0,0,0,0,0,0c0,0,0,0,0,0c0,0,0,0,0,0
	c0,0,0,0,0,0c0,0,0,0,0,0c0,0,0.1,0,0.1,0h1.2c0.2,0,0.3-0.2,0.3-0.3v-7.6C29.1,18.3,29,18.1,28.8,18.1z"/>
<path class="st0" d="M17.4,24.5h-3.3v-6c0-0.2-0.2-0.3-0.3-0.3h-1.2c-0.2,0-0.3,0.2-0.3,0.3v7.6v0c0,0.1,0,0.2,0.1,0.2c0,0,0,0,0,0
	c0,0,0,0,0,0c0.1,0.1,0.1,0.1,0.2,0.1h0h4.9c0.2,0,0.3-0.2,0.3-0.3v-1.2C17.8,24.7,17.6,24.5,17.4,24.5z"/>
<path class="st0" d="M35.6,20c0.2,0,0.3-0.2,0.3-0.3v-1.2c0-0.2-0.2-0.3-0.3-0.3h-4.9h0c-0.1,0-0.2,0-0.2,0.1c0,0,0,0,0,0
	c0,0,0,0,0,0c-0.1,0.1-0.1,0.1-0.1,0.2v0v7.6v0c0,0.1,0,0.2,0.1,0.2c0,0,0,0,0,0c0,0,0,0,0,0c0.1,0.1,0.1,0.1,0.2,0.1h0h4.9
	c0.2,0,0.3-0.2,0.3-0.3v-1.2c0-0.2-0.2-0.3-0.3-0.3h-3.3v-1.3h3.3c0.2,0,0.3-0.2,0.3-0.3v-1.2c0-0.2-0.2-0.3-0.3-0.3h-3.3V20H35.6z"
	/>
</svg>
