<?xml version="1.0" encoding="utf-8"?>
<!-- Generator: Adobe Illustrator 24.0.1, SVG Export Plug-In . SVG Version: 6.00 Build 0)  -->
<svg version="1.1" id="Layer_1" xmlns="http://www.w3.org/2000/svg" xmlns:xlink="http://www.w3.org/1999/xlink" x="0px" y="0px"
	 width="163.4px" height="38.4px" viewBox="0 0 163.4 38.4" style="enable-background:new 0 0 163.4 38.4;" xml:space="preserve">
<style type="text/css">
	.st0{fill-rule:evenodd;clip-rule:evenodd;fill:#32325D;}
	.st1{fill:#32325D;}
</style>
<path class="st0" d="M139.7,5.6c-3.7-1.6-9.2-4.4-11.2-5.5h-3.7v30.7c1-0.5,1.8-1.1,2.6-1.9c3.8-4.4,8.1-8.4,11.9-9.3
	c0.9-0.6,1.5,0.6,1.5,0.6c0.6-1.4,1-2.8,1.3-4.3c0.4-2.2,0.5-4.7,0.7-6.7c0.2-1.7,0.5-3,0.5-3S141.9,6.5,139.7,5.6z M158.2,0.1
	c-0.6,1.5-1.8,4.6-2.3,4.6c-0.3,0-1.5-0.6-2.5-1.9c-0.7-0.9-1.3-1.8-1.8-2.8h-13.2c1.4,0.4,3.8,0.6,6.8,2.2c3.5,1.9,7.2,5.3,9.5,6.5
	c0.7,0.4,1.4,0.6,2.2,0.7c0,0,0.7-1.3,1.1-1.6c0.4-0.2,4.1,1.2,5.4,1.7V0.1H158.2z"/>
<path class="st0" d="M147.9,29.9c-2.3-0.2-4.5-0.7-6.6-1.4c0.4-0.4,0.7-0.8,1.1-1.2c0.2-0.3,0.4-0.6,0.5-0.9l-0.2-0.2
	c-2.5,2.1-5.1,4-7.8,5.7c-3.2,1.9-6.5,3.6-9.9,5v1.4h29.6c0.4-1.3,1.6-5.1,2.5-7.1c0.4-0.8,1.6-1,1.6-1v-0.4
	C154.9,30.1,151.4,30.1,147.9,29.9z M160.1,13c-2-0.2-4.3-0.7-4.3-0.7s-1.7,2.2-3.6,4.4c-2.2,2.5-4.5,5.1-4.5,5.1l15.7,4.5v-13
	C162.3,13.2,161.2,13.2,160.1,13L160.1,13z M163.4,38.4v-7.2l-4.3,7.2H163.4z"/>
<path class="st1" d="M0,13.3h2.8c2.2,0,3.7,0.7,3.7,2.6c0,1.4-0.8,2.2-2.2,2.5l0,0c1.4,0.1,2.4,1,2.4,2.5c0,2.2-1.9,2.8-4,2.8H0
	V13.3z M1.5,17.7h0.8c1.5,0,2.7-0.1,2.7-1.6c0-1.2-1.1-1.6-1.9-1.6H1.5V17.7z M1.5,22.5h1.1c1.3,0,2.6-0.3,2.6-1.7
	c0-1.6-1.4-1.8-2.7-1.8h-1C1.5,19,1.5,22.5,1.5,22.5z"/>
<path class="st1" d="M11.9,15.9c2.3,0,3.9,1.7,3.9,4c0,2.2-1.6,4-3.9,4S8,22.1,8,19.9C8,17.6,9.5,15.9,11.9,15.9z M11.9,22.8
	c1.6,0,2.4-1.5,2.4-2.9S13.4,17,11.9,17s-2.4,1.4-2.4,2.9C9.5,21.3,10.2,22.8,11.9,22.8L11.9,22.8z"/>
<path class="st1" d="M17.3,22.2c0.5,0.3,1.1,0.5,1.8,0.5c0.6,0,1.4-0.3,1.4-1.1c0-1.4-3.3-1.3-3.3-3.4c0-1.6,1.2-2.3,2.7-2.3
	c0.6,0,1.2,0.1,1.7,0.3l-0.1,1.2C21,17.2,20.5,17,20,17c-0.7,0-1.3,0.3-1.3,0.9c0,1.6,3.3,1.1,3.3,3.5c0,1.6-1.3,2.4-2.7,2.4
	c-0.7,0-1.4-0.1-2.1-0.4L17.3,22.2z"/>
<path class="st1" d="M28.3,17.2h-2v4.2c0,0.9,0.5,1.4,1.2,1.4c0.3,0,0.7-0.1,1-0.3v1.2c-0.4,0.1-0.8,0.2-1.2,0.2
	c-1.5,0-2.3-0.7-2.3-2.2v-4.4h-1.7v-1.2H25v-1.8l1.4-0.4v2.2h2L28.3,17.2z"/>
<path class="st1" d="M33.6,15.9c2.3,0,3.9,1.7,3.9,4c0,2.2-1.6,4-3.9,4s-3.9-1.8-3.9-4C29.7,17.6,31.3,15.9,33.6,15.9z M33.6,22.8
	c1.6,0,2.4-1.5,2.4-2.9S35.1,17,33.6,17s-2.4,1.4-2.4,2.9C31.2,21.3,32,22.8,33.6,22.8L33.6,22.8z"/>
<path class="st1" d="M39.3,16.1h1.4v1.2l0,0c0.4-0.9,1.4-1.4,2.5-1.4c2,0,2.9,1.2,2.9,3.3v4.5h-1.4v-3.9c0-1.8-0.4-2.7-1.6-2.7
	c-1.6,0-2.3,1.3-2.3,3.1v3.5h-1.4L39.3,16.1z"/>
<path class="st1" d="M49.4,13.3h3.1c3.1,0,5.6,1.9,5.6,5.1c0,3.5-2.1,5.3-5.6,5.3h-3.1V13.3z M50.9,22.4h1.6c2.6,0,4-1.2,4-3.9
	c0-2.4-1.7-3.9-3.8-3.9H51L50.9,22.4z"/>
<path class="st1" d="M59.7,25.8c0.2,0.1,0.4,0.1,0.7,0.1c1.3,0,1.7-1.7,1.7-1.9c-0.1-0.3-0.2-0.5-0.3-0.8l-2.7-7.1h1.5l2,6.3l0,0
	l2.1-6.3h1.4l-2.8,7.8c-0.5,1.5-1.1,3.2-2.9,3.2c-0.3,0-0.6,0-1-0.1L59.7,25.8z"/>
<path class="st1" d="M67.9,16.1h1.4v1.2l0,0c0.4-0.9,1.4-1.4,2.5-1.4c2,0,2.9,1.2,2.9,3.3v4.5h-1.4v-3.9c0-1.8-0.4-2.7-1.6-2.7
	c-1.6,0-2.3,1.3-2.3,3.1v3.5H68L67.9,16.1z"/>
<path class="st1" d="M77.3,16.6c0.8-0.5,1.6-0.7,2.5-0.7c2.2,0,3.1,1.1,3.1,3.2v3.2c0,0.5,0,1,0.1,1.5h-1.3v-1l0,0
	c-0.3,0.4-0.6,0.7-1,0.9c-0.4,0.2-0.9,0.3-1.3,0.3c-1.6,0-2.8-0.7-2.8-2.4c0-1.9,2.1-2.5,3.5-2.5c0.6,0,0.9,0,1.5,0
	c0-1.3-0.5-2-1.9-2c-0.8,0-1.6,0.3-2.2,0.8L77.3,16.6z M81.4,20.1c-0.3,0-0.6,0-0.9,0c-0.8,0-2.7,0.1-2.7,1.5c0,0.8,0.8,1.2,1.4,1.2
	c1.4,0,2.1-0.9,2.1-2L81.4,20.1z"/>
<path class="st1" d="M85,16.1h1.3v1.1l0,0c0.5-0.9,1.3-1.3,2.4-1.3c0.5,0,0.9,0.1,1.3,0.4c0.4,0.3,0.7,0.6,0.8,1.1
	c0.2-0.4,0.6-0.8,1-1.1s0.9-0.4,1.4-0.4c1.9,0,2.7,1.3,2.7,2.9v4.9h-1.4v-4.5c0-0.9-0.2-2.1-1.4-2.1c-1.4,0-2,1.4-2,2.8v3.8h-1.4
	v-4.5c0-0.9-0.2-2.1-1.4-2.1c-1.4,0-2,1.4-2,2.8v3.8H85V16.1z"/>
<path class="st1" d="M99.9,14.4h-1.6v-1.6h1.6V14.4z M98.4,16.1h1.4v7.6h-1.4V16.1z"/>
<path class="st1" d="M107.2,17.4c-0.5-0.2-1-0.3-1.5-0.3c-1.6,0-2.5,1.4-2.5,2.9c0,1.4,0.7,2.9,2.5,2.9c0.5,0,1.1-0.2,1.5-0.4
	l0.1,1.3c-0.6,0.2-1.2,0.3-1.8,0.3c-2.3,0-3.9-1.8-3.9-4c0-2.3,1.6-4,3.9-4c0.6,0,1.2,0.1,1.7,0.3L107.2,17.4z"/>
<path class="st1" d="M109,22.2c0.5,0.3,1.1,0.5,1.7,0.5s1.4-0.3,1.4-1.1c0-1.4-3.3-1.3-3.3-3.4c0-1.6,1.2-2.3,2.7-2.3
	c0.6,0,1.2,0.1,1.7,0.3l-0.1,1.2c-0.5-0.2-1-0.4-1.5-0.4c-0.7,0-1.3,0.3-1.3,0.9c0,1.6,3.3,1.1,3.3,3.5c0,1.6-1.3,2.4-2.7,2.4
	c-0.7,0-1.4-0.1-2.1-0.4L109,22.2z"/>
</svg>
