<?xml version="1.0" encoding="utf-8"?>
<!-- Generator: Adobe Illustrator 21.1.0, SVG Export Plug-In . SVG Version: 6.00 Build 0)  -->
<svg version="1.1" id="Layer_1" xmlns="http://www.w3.org/2000/svg" xmlns:xlink="http://www.w3.org/1999/xlink" x="0px" y="0px"
	 width="50px" height="64px" viewBox="0 0 50 64" style="enable-background:new 0 0 50 64;" xml:space="preserve">
<style type="text/css">
	.st0{fill:#32325D;}
</style>
<g>
	<path class="st0" d="M49.4,5.6C49.1,5.2,48.6,5,48,5H38V1c0-0.3-0.1-0.5-0.3-0.7C37.5,0.1,37.3,0,37,0H13c-0.3,0-0.5,0.1-0.7,0.3
		S12,0.7,12,1v4H2C0.9,5,0,5.9,0,7v55c0,1.1,0.9,2,2,2h46c1.1,0,2-0.9,2-2V7C50,6.5,49.8,6,49.4,5.6z M14,2h22v8H14V2z M48,62H2V7
		h10v4c0,0.6,0.5,1,1,1h24c0.6,0,1-0.4,1-1V7h10V62z"/>
	<path class="st0" d="M14,40v11c0,0.6-0.4,1-1,1c-0.5,0-1-0.4-1-1V40c0-0.5,0.5-1,1-1C13.6,39,14,39.5,14,40z"/>
	<path class="st0" d="M26,30v21c0,0.6-0.4,1-1,1c-0.5,0-1-0.4-1-1V30c0-0.5,0.5-1,1-1C25.6,29,26,29.5,26,30z"/>
	<path class="st0" d="M38,24v27c0,0.6-0.4,1-1,1c-0.5,0-1-0.4-1-1V24c0-0.5,0.5-1,1-1C37.6,23,38,23.5,38,24z"/>
</g>
</svg>
