<svg width="167" height="43" viewBox="0 0 167 43" fill="none" xmlns="http://www.w3.org/2000/svg">
<g opacity="0.6">
<path fill-rule="evenodd" clip-rule="evenodd" d="M141.208 7.93861C137.503 6.37147 131.995 3.50613 129.979 2.44366H126.327V33.1456C127.279 32.6611 128.146 32.0253 128.894 31.2631C132.712 26.8306 136.995 22.8497 140.83 21.92C141.769 21.3024 142.301 22.5243 142.301 22.5243C142.906 21.1623 143.34 19.7302 143.592 18.2611C143.981 16.0764 144.107 13.5431 144.309 11.5842C144.482 9.90085 144.761 8.63253 144.761 8.63253C144.761 8.63253 143.433 8.88154 141.208 7.93861ZM159.728 2.44366C159.174 3.90124 157.929 7.02887 157.437 7.06207C157.132 7.08531 155.937 6.44783 154.911 5.19612C154.238 4.33498 153.645 3.4136 153.141 2.44366H139.927C141.368 2.85205 143.765 3.04794 146.687 4.64828C150.226 6.57068 153.935 9.99049 156.232 11.1758C156.905 11.5404 157.639 11.779 158.397 11.8797C158.397 11.8797 159.084 10.5981 159.542 10.3258C159.918 10.1001 163.593 11.5078 164.898 12.0191V2.44366H159.728Z" fill="#32325D"/>
<path fill-rule="evenodd" clip-rule="evenodd" d="M149.386 32.206C147.128 32.0052 144.9 31.5485 142.745 30.8447C143.129 30.4824 143.486 30.0918 143.811 29.676C144.008 29.3998 144.172 29.1011 144.299 28.7862L144.07 28.5571C141.587 30.6384 138.971 32.5549 136.238 34.2944C133.059 36.2107 129.741 37.8877 126.313 39.3113V40.7257H155.863C156.252 39.4175 157.414 35.6258 158.413 33.6503C158.832 32.8203 160.03 32.6742 160.03 32.6742L159.984 32.3089C156.452 32.4783 152.913 32.4439 149.386 32.206ZM161.604 15.3759C159.612 15.1269 157.347 14.7119 157.347 14.7119C157.347 14.7119 155.598 16.9331 153.725 19.1178C151.567 21.6378 149.246 24.1678 149.246 24.1678L164.898 28.6434V15.605C163.797 15.5858 162.697 15.5104 161.604 15.3792V15.3759ZM164.898 40.7257V33.554L160.555 40.7257H164.898Z" fill="#32325D"/>
<path d="M1.51367 15.6382H4.33585C6.50062 15.6382 7.98808 16.3387 7.98808 18.2678C7.98808 19.7021 7.15138 20.4193 5.83658 20.748V20.7779C7.25431 20.8974 8.25701 21.8237 8.25701 23.2879C8.25701 25.5291 6.40434 26.067 4.27276 26.067H1.51367V15.6382ZM3.00777 20.0906H3.82786C5.27547 20.0906 6.50062 19.9578 6.50062 18.4305C6.50062 17.192 5.44148 16.8766 4.5749 16.8766H3.00777V20.0906ZM3.00777 24.8418H4.12667C5.45476 24.8418 6.67991 24.5596 6.67991 23.1551C6.67991 21.5415 5.26219 21.3157 3.97727 21.3157H3.00777V24.8418Z" fill="#32325D"/>
<path d="M13.3934 18.2611C15.7176 18.2611 17.2615 19.9212 17.2615 22.2454C17.2615 24.4267 15.6777 26.2296 13.3934 26.2296C11.1091 26.2296 9.50879 24.4234 9.50879 22.2454C9.50879 19.9411 11.0626 18.2611 13.3934 18.2611ZM13.3934 25.1041C15.0369 25.1041 15.7674 23.61 15.7674 22.252C15.7674 20.8044 14.8842 19.3999 13.3934 19.3999C11.9027 19.3999 11.0029 20.8044 11.0029 22.252C11.0029 23.6166 11.7333 25.1107 13.3934 25.1107V25.1041Z" fill="#32325D"/>
<path d="M18.825 24.5695C19.3575 24.8934 19.9623 25.0794 20.5847 25.1107C21.2288 25.1107 22.019 24.8418 22.019 24.0217C22.019 22.6305 18.7188 22.7501 18.7188 20.6152C18.7188 19.0314 19.9007 18.2711 21.4081 18.2711C22.0032 18.2814 22.5932 18.3821 23.1579 18.5699L23.0383 19.7951C22.5745 19.5743 22.0733 19.4425 21.5608 19.4066C20.8437 19.4066 20.2328 19.7054 20.2328 20.333C20.2328 21.8868 23.533 21.4386 23.533 23.8723C23.533 25.4992 22.2348 26.2463 20.8769 26.2463C20.1558 26.2813 19.4373 26.1376 18.7852 25.8279L18.825 24.5695Z" fill="#32325D"/>
<path d="M29.836 19.5892H27.8206V23.7528C27.8206 24.6326 28.3585 25.1108 28.9993 25.1108C29.3374 25.1163 29.6698 25.0228 29.9555 24.8418V26.0371C29.5686 26.1617 29.1664 26.2321 28.7602 26.2463C27.3093 26.2463 26.4162 25.559 26.4162 24.035V19.5892H24.6963V18.4471H26.4128V16.6841L27.8173 16.2358V18.4471H29.8326L29.836 19.5892Z" fill="#32325D"/>
<path d="M35.1415 18.2611C37.4656 18.2611 39.0095 19.9212 39.0095 22.2454C39.0095 24.4267 37.4258 26.2296 35.1415 26.2296C32.8572 26.2296 31.2568 24.4234 31.2568 22.2454C31.2568 19.9411 32.8107 18.2611 35.1415 18.2611ZM35.1415 25.1041C36.785 25.1041 37.5154 23.61 37.5154 22.252C37.5154 20.8044 36.6322 19.3999 35.1415 19.3999C33.6507 19.3999 32.7509 20.8044 32.7509 22.252C32.7509 23.6166 33.4847 25.1107 35.1415 25.1107V25.1041Z" fill="#32325D"/>
<path d="M40.8119 18.4471H42.1666V19.6589H42.1964C42.6148 18.7924 43.6308 18.2678 44.6899 18.2678C46.6621 18.2678 47.542 19.4929 47.542 21.5382V26.0669H46.1508V22.1225C46.1508 20.3462 45.7623 19.4664 44.5372 19.4033C42.9368 19.4033 42.213 20.6882 42.213 22.5409V26.0669H40.8086L40.8119 18.4471Z" fill="#32325D"/>
<path d="M50.9082 15.6382H53.986C57.0772 15.6382 59.5441 17.5506 59.5441 20.7613C59.5441 24.2574 57.4225 26.0736 53.986 26.0736H50.9082V15.6382ZM52.4023 24.7522H53.9694C56.5393 24.7522 57.9537 23.5137 57.9537 20.8243C57.9537 18.3906 56.2936 16.9563 54.1454 16.9563H52.399L52.4023 24.7522Z" fill="#32325D"/>
<path d="M61.1646 28.1288C61.3783 28.2033 61.6024 28.2437 61.8287 28.2483C63.0837 28.2483 63.4888 26.5152 63.4888 26.3658C63.4266 26.0884 63.3365 25.8181 63.2198 25.559L60.6367 18.4471H62.174L64.2192 24.7555H64.2491L66.3408 18.4471H67.7619L64.9596 26.2296C64.435 27.6939 63.8839 29.3805 62.0312 29.3805C61.7097 29.3796 61.3893 29.3451 61.075 29.2776L61.1646 28.1288Z" fill="#32325D"/>
<path d="M69.3689 18.4471H70.7203V19.6589H70.7501C71.1685 18.7924 72.1845 18.2678 73.2436 18.2678C75.2158 18.2678 76.0957 19.4929 76.0957 21.5382V26.0669H74.7045V22.1225C74.7045 20.3462 74.3161 19.4664 73.0909 19.4033C71.4906 19.4033 70.7668 20.6882 70.7668 22.5409V26.0669H69.3623L69.3689 18.4471Z" fill="#32325D"/>
<path d="M78.7754 18.9849C79.5302 18.5188 80.3983 18.2685 81.2854 18.2611C83.4668 18.2611 84.3467 19.3369 84.3467 21.412V24.5695C84.3354 25.0683 84.3554 25.5673 84.4064 26.0636H83.0784V25.0675H83.0485C82.7789 25.4386 82.4232 25.7386 82.012 25.9416C81.6007 26.1446 81.1463 26.2446 80.6878 26.2329C79.0443 26.2329 77.8955 25.5158 77.8955 23.859C77.8955 21.9465 79.9872 21.3489 81.4349 21.3489C81.9893 21.3489 82.3745 21.3489 82.9289 21.3788C82.9289 20.0507 82.4508 19.3867 81.0464 19.3867C80.243 19.3904 79.4643 19.664 78.8351 20.1636L78.7754 18.9849ZM82.9422 22.4346C82.6434 22.4346 82.3446 22.4047 82.0458 22.4047C81.2854 22.4047 79.3896 22.5243 79.3896 23.8689C79.3896 24.6758 80.1665 25.1074 80.8106 25.1074C82.1985 25.1074 82.9323 24.2408 82.9323 23.1153L82.9422 22.4346Z" fill="#32325D"/>
<path d="M86.541 18.4471H87.8691V19.5527H87.899C88.4236 18.6729 89.1839 18.2612 90.3095 18.2612C90.7798 18.2508 91.2415 18.3881 91.6298 18.6537C92.0181 18.9193 92.3134 19.2999 92.4742 19.742C92.697 19.3054 93.0337 18.9373 93.4487 18.6766C93.8638 18.4159 94.3416 18.2723 94.8316 18.2612C96.7739 18.2612 97.4877 19.5162 97.4877 21.173V26.067H96.0833V21.5249C96.0833 20.5853 95.8608 19.4033 94.7253 19.4033C93.291 19.4033 92.7332 20.8078 92.7332 22.2255V26.067H91.3055V21.5249C91.3055 20.5853 91.0831 19.4033 89.9476 19.4033C88.5132 19.4033 87.9554 20.8078 87.9554 22.2255V26.067H86.551L86.541 18.4471Z" fill="#32325D"/>
<path d="M101.429 16.7438H99.8457V15.16H101.429V16.7438ZM99.9387 18.447H101.343V26.0669H99.9387V18.447Z" fill="#32325D"/>
<path d="M108.668 19.732C108.186 19.524 107.668 19.4113 107.144 19.4C105.573 19.4 104.693 20.8044 104.693 22.252C104.693 23.61 105.427 25.1041 107.233 25.1041C107.766 25.0987 108.287 24.9483 108.741 24.6691L108.847 25.9242C108.288 26.1511 107.687 26.2575 107.084 26.2363C104.783 26.2363 103.199 24.4301 103.199 22.252C103.199 19.9279 104.753 18.2678 107.084 18.2678C107.664 18.2726 108.24 18.3736 108.787 18.5666L108.668 19.732Z" fill="#32325D"/>
<path d="M110.563 24.5695C111.092 24.8901 111.692 25.0749 112.309 25.1074C112.953 25.1074 113.744 24.8385 113.744 24.0184C113.744 22.6272 110.443 22.7467 110.443 20.6118C110.443 19.0281 111.622 18.2678 113.133 18.2678C113.727 18.2783 114.316 18.3791 114.879 18.5666L114.76 19.7917C114.296 19.5708 113.795 19.4391 113.282 19.4033C112.565 19.4033 111.937 19.7021 111.937 20.3296C111.937 21.8835 115.241 21.4352 115.241 23.869C115.241 25.4959 113.94 26.2429 112.585 26.2429C111.864 26.278 111.145 26.1343 110.493 25.8246L110.563 24.5695Z" fill="#32325D"/>
</g>
</svg>
