<?xml version="1.0" encoding="utf-8"?>
<!-- Generator: Adobe Illustrator 21.1.0, SVG Export Plug-In . SVG Version: 6.00 Build 0)  -->
<svg version="1.1" id="Layer_1" xmlns="http://www.w3.org/2000/svg" xmlns:xlink="http://www.w3.org/1999/xlink" x="0px" y="0px"
	 width="52px" height="43px" viewBox="0 0 52 43" style="enable-background:new 0 0 52 43;" xml:space="preserve">
<style type="text/css">
	.st0{fill:none;}
	.st1{fill:#32325D;}
</style>
<g>
	<path class="st0" d="M2,10v31h48V10H2z M17.5,30.1c0.5,0.3,0.6,0.9,0.3,1.4c-0.3,0.5-0.9,0.6-1.4,0.3l-8-5L7.1,26l1.4-0.9l8-5
		c0.5-0.3,1.1-0.1,1.4,0.3c0.3,0.5,0.2,1.1-0.3,1.4L10.9,26L17.5,30.1z M30.9,17.4l-8,18c-0.2,0.5-0.8,0.7-1.3,0.5
		c-0.5-0.2-0.7-0.8-0.5-1.3l8-18c0.2-0.5,0.8-0.7,1.3-0.5C30.9,16.3,31.1,16.9,30.9,17.4z M43.5,26.8l-8,5c-0.5,0.3-1.1,0.2-1.4-0.3
		c-0.3-0.5-0.1-1.1,0.3-1.4l6.6-4.1l-6.6-4.2c-0.5-0.3-0.6-0.9-0.3-1.4c0.3-0.5,0.9-0.6,1.4-0.3l8,5l1.4,0.9L43.5,26.8z"/>
	<rect x="2" y="2" class="st0" width="48" height="6"/>
	<path class="st1" d="M50,0H2C0.9,0,0,0.9,0,2v39c0,1.1,0.9,2,2,2h48c1.1,0,2-0.9,2-2V2C52,0.9,51.1,0,50,0z M50,41H2V10h48V41z
		 M50,8H2V2h48V8z"/>
	<circle class="st1" cx="9" cy="26" r="0"/>
	<path class="st1" d="M17.8,31.5c-0.3,0.5-0.9,0.6-1.4,0.3l-8-5L7.1,26l1.4-0.9l8-5c0.5-0.3,1.1-0.1,1.4,0.3
		c0.3,0.5,0.2,1.1-0.3,1.4L10.9,26l6.6,4.1C18,30.4,18.1,31.1,17.8,31.5z"/>
	<path class="st1" d="M44.9,26l-1.4,0.8l-8,5c-0.5,0.3-1.1,0.2-1.4-0.3c-0.3-0.5-0.1-1.1,0.3-1.4l6.6-4.1l-6.6-4.2
		c-0.5-0.3-0.6-0.9-0.3-1.4c0.3-0.5,0.9-0.6,1.4-0.3l8,5L44.9,26z"/>
	<path class="st1" d="M30.9,17.4l-8,18c-0.2,0.5-0.8,0.7-1.3,0.5c-0.5-0.2-0.7-0.8-0.5-1.3l8-18c0.2-0.5,0.8-0.7,1.3-0.5
		C30.9,16.3,31.1,16.9,30.9,17.4z"/>
</g>
</svg>
