<?xml version="1.0" encoding="utf-8"?>
<!-- Generator: Adobe Illustrator 21.1.0, SVG Export Plug-In . SVG Version: 6.00 Build 0)  -->
<svg version="1.1" id="Layer_1" xmlns="http://www.w3.org/2000/svg" xmlns:xlink="http://www.w3.org/1999/xlink" x="0px" y="0px"
	 width="50px" height="64px" viewBox="0 0 50 64" style="enable-background:new 0 0 50 64;" xml:space="preserve">
<style type="text/css">
	.st0{fill:#32325D;}
</style>
<g>
	<path class="st0" d="M48,0H2C0.9,0,0,0.9,0,2v60c0,1.1,0.9,2,2,2h34.1c0.6,0,1.1-0.2,1.5-0.7l11.9-13.3c0.3-0.4,0.5-0.8,0.5-1.3V2
		C50,0.9,49.1,0,48,0z M37,61V49.5h10.3L37,61z M48,47.5H37c-1.1,0-2,0.9-2,2V62H2V2h46V47.5z"/>
	<path class="st0" d="M42,15c0,0.6-0.4,1-1,1H9c-0.6,0-1-0.4-1-1c0-0.5,0.4-1,1-1h32C41.6,14,42,14.5,42,15z"/>
	<path class="st0" d="M42,23c0,0.6-0.4,1-1,1H9c-0.6,0-1-0.4-1-1c0-0.5,0.4-1,1-1h32C41.6,22,42,22.5,42,23z"/>
	<path class="st0" d="M42,31c0,0.6-0.4,1-1,1H9c-0.6,0-1-0.4-1-1c0-0.5,0.4-1,1-1h32C41.6,30,42,30.5,42,31z"/>
	<path class="st0" d="M20,47v-2.5c0-2.5-2-4.5-4.5-4.5C13,40,11,42,11,44.5V47H8v5c0,2.2,1.8,4,4,4h7c2.2,0,4-1.8,4-4v-5H20z
		 M13,44.5c0-1.4,1.1-2.5,2.5-2.5c1.4,0,2.5,1.1,2.5,2.5V47h-5V44.5z M21,52c0,1.1-0.9,2-2,2h-7c-1.1,0-2-0.9-2-2v-3h11V52z"/>
</g>
</svg>
