<?xml version="1.0" encoding="utf-8"?>
<!-- Generator: Adobe Illustrator 21.1.0, SVG Export Plug-In . SVG Version: 6.00 Build 0)  -->
<svg version="1.1" id="Layer_1" xmlns="http://www.w3.org/2000/svg" xmlns:xlink="http://www.w3.org/1999/xlink" x="0px" y="0px"
	 width="52px" height="59px" viewBox="0 0 52 59" style="enable-background:new 0 0 52 59;" xml:space="preserve">
<style type="text/css">
	.st0{fill:none;}
	.st1{fill:#32325D;}
</style>
<g>
	<path class="st0" d="M2,29v22c0,3.3,2.7,6,6,6h36c3.3,0,6-2.7,6-6V29H2z M27,41.8V49h-2v-7.2c-1.2-0.4-2-1.5-2-2.8c0-1.7,1.3-3,3-3
		s3,1.3,3,3C29,40.3,28.2,41.4,27,41.8z"/>
	<path class="st1" d="M42,27V16.5C42,7.4,34.6,0,25.5,0S9,7.4,9,16.5V27H0v24l0.6,3.1c0.1,0.2,0.2,0.4,0.3,0.6L1,54.9
		c0.1,0.1,0.2,0.3,0.3,0.4l0.2,0.2c0.1,0.2,0.2,0.3,0.4,0.5l0.5,0.6c0.2,0.2,0.4,0.4,0.6,0.5c0.2,0.1,0.3,0.3,0.5,0.4
		c0.1,0.1,0.2,0.1,0.2,0.2c0.1,0.1,0.3,0.2,0.4,0.3c0.1,0.1,0.2,0.1,0.2,0.1c0.2,0.1,0.4,0.2,0.6,0.3c1,0.4,2,0.6,3.1,0.6h36
		c4.4,0,8-3.6,8-8V27H42z M11,16.5C11,8.5,17.5,2,25.5,2S40,8.5,40,16.5V27H11V16.5z M50,51c0,3.3-2.7,6-6,6H8c-3.3,0-6-2.7-6-6V29
		h48V51z"/>
	<path class="st1" d="M25,41.8V49h2v-7.2c1.2-0.4,2-1.5,2-2.8c0-1.7-1.3-3-3-3c-1.7,0-3,1.3-3,3C23,40.3,23.8,41.4,25,41.8z"/>
</g>
</svg>
