<?xml version="1.0" encoding="utf-8"?>
<!-- Generator: Adobe Illustrator 21.1.0, SVG Export Plug-In . SVG Version: 6.00 Build 0)  -->
<svg version="1.1" id="Layer_1" xmlns="http://www.w3.org/2000/svg" xmlns:xlink="http://www.w3.org/1999/xlink" x="0px" y="0px"
	 width="64px" height="64px" viewBox="0 0 64 64" style="enable-background:new 0 0 64 64;" xml:space="preserve">
<style type="text/css">
	.st0{fill:#32325D;}
</style>
<g>
	<path class="st0" d="M62,0H2C0.9,0,0,0.9,0,2v60c0,1.1,0.9,2,2,2h60c1.1,0,2-0.9,2-2V2C64,0.9,63.1,0,62,0z M62,62H2V2h60V62z"/>
	<path class="st0" d="M27.5,21l-0.8,0.7l-11,10c-0.4,0.4-1,0.3-1.4-0.1c-0.4-0.4-0.3-1,0.1-1.4L24.5,21l-10.2-9.3
		c-0.4-0.4-0.4-1-0.1-1.4c0.4-0.4,1-0.4,1.4-0.1l11,10L27.5,21z"/>
	<path class="st0" d="M49,31c0,0.6-0.5,1-1,1H30c-0.6,0-1-0.4-1-1c0-0.5,0.4-1,1-1h18C48.5,30,49,30.5,49,31z"/>
	<path class="st0" d="M24.8,50.4c0,0.8-0.2,1.4-0.6,2c-0.4,0.6-1,1-1.8,1.3c-0.8,0.3-1.7,0.5-2.7,0.5c-1,0-1.9-0.1-2.8-0.4
		c-0.9-0.3-1.6-0.6-2.2-1.1l0.8-1.7c0.6,0.5,1.3,0.8,1.9,1c0.7,0.2,1.4,0.3,2.2,0.3c0.9,0,1.6-0.2,2-0.5c0.5-0.3,0.7-0.8,0.7-1.3
		c0-0.5-0.2-0.8-0.7-1.1c-0.4-0.3-1.2-0.5-2.2-0.7c-1.6-0.3-2.8-0.8-3.5-1.3C15.4,46.8,15,46,15,44.9c0-0.8,0.2-1.4,0.6-2
		c0.4-0.6,1-1.1,1.7-1.4C18.1,41.2,19,41,20,41c0.9,0,1.8,0.1,2.5,0.4c0.8,0.3,1.5,0.6,2,1.1l-0.8,1.7c-1.1-0.9-2.4-1.4-3.8-1.4
		c-0.8,0-1.5,0.2-2,0.5c-0.5,0.3-0.7,0.8-0.7,1.4c0,0.5,0.2,0.9,0.6,1.2c0.4,0.3,1.2,0.5,2.2,0.7c1.1,0.3,1.9,0.5,2.6,0.8
		c0.7,0.3,1.2,0.7,1.5,1.1C24.6,49.1,24.8,49.7,24.8,50.4z"/>
	<polygon class="st0" points="49,41.2 49,54 46.7,54 46.7,48.4 40.1,48.4 40.1,54 37.8,54 37.8,41.2 40.1,41.2 40.1,46.6 46.7,46.6 
		46.7,41.2 	"/>
	<path class="st0" d="M36,50.4c0,0.8-0.2,1.4-0.6,2c-0.4,0.6-1,1-1.8,1.3c-0.8,0.3-1.7,0.5-2.7,0.5c-1,0-1.9-0.1-2.8-0.4
		c-0.9-0.3-1.6-0.6-2.2-1.1l0.8-1.7c0.6,0.5,1.3,0.8,1.9,1c0.7,0.2,1.4,0.3,2.2,0.3c0.9,0,1.6-0.2,2-0.5c0.5-0.3,0.7-0.8,0.7-1.3
		c0-0.5-0.2-0.8-0.7-1.1c-0.4-0.3-1.2-0.5-2.2-0.7c-1.6-0.3-2.8-0.8-3.5-1.3s-1.1-1.4-1.1-2.4c0-0.8,0.2-1.4,0.6-2
		c0.4-0.6,1-1.1,1.7-1.4c0.8-0.3,1.6-0.5,2.6-0.5c0.9,0,1.8,0.1,2.6,0.4c0.8,0.3,1.5,0.6,2,1.1L35,44.2c-1.1-0.9-2.4-1.4-3.8-1.4
		c-0.8,0-1.5,0.2-2,0.5c-0.5,0.3-0.7,0.8-0.7,1.4c0,0.5,0.2,0.9,0.6,1.2c0.4,0.3,1.2,0.5,2.2,0.7c1.1,0.3,1.9,0.5,2.6,0.8
		c0.7,0.3,1.2,0.7,1.6,1.1C35.9,49.1,36,49.7,36,50.4z"/>
</g>
</svg>
