<svg width="51" height="47" viewBox="0 0 51 47" fill="none" xmlns="http://www.w3.org/2000/svg">
<path d="M25.5 7C28.6625 7 31.25 9.5875 31.25 12.75C31.25 15.9125 28.6625 18.5 25.5 18.5C22.3375 18.5 19.75 15.9125 19.75 12.75C19.75 9.5875 22.3375 7 25.5 7ZM37 28.3613C37 29.2663 36.2663 30 35.3613 30H15.6387C14.7337 30 14 29.2663 14 28.3613C14 26.0325 15.38 23.9625 17.5075 23.0425C19.9512 21.9788 22.6538 21.375 25.5 21.375C28.3463 21.375 31.0487 21.9788 33.4925 23.0425C35.62 23.9625 37 26.0325 37 28.3613Z" fill="#32325D"/>
<path d="M46.3636 0H4.63636C2.08636 0 0 2.08636 0 4.63636V32.4545C0 35.0045 2.08636 37.0909 4.63636 37.0909H20.8636V41.7273H16.2273V46.3636H34.7727V41.7273H30.1364V37.0909H46.3636C48.9136 37.0909 51 35.0045 51 32.4545V4.63636C51 2.08636 48.9136 0 46.3636 0ZM46.3636 32.4545H4.63636V4.63636H46.3636V32.4545Z" fill="#32325D"/>
</svg>
