<?xml version="1.0" encoding="utf-8"?>
<!-- Generator: Adobe Illustrator 21.1.0, SVG Export Plug-In . SVG Version: 6.00 Build 0)  -->
<svg version="1.1" id="Layer_1" xmlns="http://www.w3.org/2000/svg" xmlns:xlink="http://www.w3.org/1999/xlink" x="0px" y="0px"
	 width="64px" height="58.5px" viewBox="0 0 64 58.5" style="enable-background:new 0 0 64 58.5;" xml:space="preserve">
<style type="text/css">
	.st0{fill:none;}
	.st1{fill:#32325D;}
</style>
<g>
	<polygon class="st0" points="62.5,50.7 62.5,50.7 62.5,50.7 	"/>
	<path class="st0" d="M36.1,45.3v11.2h-8.3v-6.4c0.1-0.1,0.3-0.3,0.5-0.5c0.7-0.6,1.7-1.5,3.1-2.3C32.7,46.6,34.3,45.9,36.1,45.3z"
		/>
	<path class="st1" d="M44.9,42.2c-2.1-0.1-3.9,0.1-5.6,0.3c-0.9,0.1-1.7,0.3-2.4,0.5c-0.5-0.4-1.2-0.9-2-1.5c-3-2-8.2-4.4-15.8-4.7
		C5.9,36.3,0,44.2,0,44.2v14.3h64v-9.2C64,49.3,58.1,42.7,44.9,42.2z M25.9,49.3v7.2H2V45c0.1-0.2,0.3-0.3,0.5-0.5
		c0.7-0.7,1.7-1.5,3.1-2.4c2.8-1.8,7.2-3.5,13.3-3.2c6.2,0.3,10.6,2,13.4,3.6c0,0,0.1,0,0.1,0c0.8,0.5,1.4,0.9,2,1.3
		C28.6,45.8,25.9,49.3,25.9,49.3z M36.1,45.3v11.2h-8.3v-6.4c0.1-0.1,0.3-0.3,0.5-0.5c0.7-0.6,1.7-1.5,3.1-2.3
		C32.7,46.6,34.3,45.9,36.1,45.3V45l0.2,0.2C36.3,45.3,36.2,45.3,36.1,45.3z M62,56.5H38.1V44.8c0.6-0.1,1.3-0.3,2-0.3
		c1.5-0.2,3-0.3,4.7-0.2c6.2,0.2,10.7,1.9,13.6,3.5c1.4,0.8,2.5,1.6,3.2,2.1c0.2,0.1,0.3,0.2,0.4,0.3V56.5z"/>
	<path class="st1" d="M36.3,45.2c-0.1,0-0.1,0-0.2,0.1V45L36.3,45.2z"/>
	<path class="st0" d="M26.6,25.2c0,3.8-3.1,6.9-6.9,6.9c-3.8,0-6.8-3.1-6.8-6.9c0-3.8,3.1-6.8,6.8-6.8
		C23.5,18.3,26.6,21.4,26.6,25.2z"/>
	<path class="st1" d="M26,18.9c-1.6-1.6-3.8-2.6-6.3-2.6c-4.9,0-8.8,4-8.8,8.8c0,4.9,4,8.9,8.8,8.9c4.9,0,8.9-4,8.9-8.9
		C28.6,22.7,27.6,20.5,26,18.9z M19.7,32c-3.8,0-6.8-3.1-6.8-6.9c0-3.8,3.1-6.8,6.8-6.8c3.8,0,6.9,3.1,6.9,6.8
		C26.6,29,23.5,32,19.7,32z"/>
	<path class="st0" d="M52.5,29.3c0,3.8-3.1,6.9-6.8,6.9c-3.8,0-6.8-3.1-6.8-6.9c0-3.8,3.1-6.8,6.8-6.8
		C49.4,22.4,52.5,25.5,52.5,29.3z"/>
	<path class="st1" d="M54.1,26.6c-0.1-0.3-0.2-0.5-0.3-0.8c-0.1-0.2-0.2-0.4-0.3-0.6c-0.1-0.1-0.1-0.3-0.2-0.4
		c-0.1-0.2-0.2-0.4-0.3-0.5c-0.2-0.2-0.3-0.5-0.5-0.7c-0.2-0.2-0.4-0.4-0.6-0.6s-0.4-0.4-0.6-0.6c-0.2-0.2-0.4-0.4-0.7-0.5
		c-0.2-0.2-0.5-0.3-0.7-0.4c-0.3-0.1-0.5-0.3-0.8-0.4c-1.1-0.4-2.2-0.7-3.4-0.7c-4.9,0-8.8,4-8.8,8.8s4,8.9,8.8,8.9s8.8-4,8.8-8.9
		C54.5,28.4,54.3,27.5,54.1,26.6z M45.6,36.1c-3.8,0-6.8-3.1-6.8-6.9c0-3.8,3.1-6.8,6.8-6.8c3.8,0,6.8,3.1,6.8,6.8
		C52.5,33.1,49.4,36.1,45.6,36.1z"/>
	<circle class="st1" cx="23.1" cy="8.2" r="2.7"/>
	<circle class="st1" cx="31.3" cy="2.7" r="2.7"/>
	<circle class="st1" cx="40.9" cy="6.8" r="2.7"/>
	<circle class="st1" cx="49" cy="13.6" r="2.7"/>
</g>
</svg>
