<svg width="80" height="80" viewBox="0 0 80 80" fill="none" xmlns="http://www.w3.org/2000/svg">
<rect width="80" height="80" fill="white"/>
<path d="M68 27V22C68 20.3431 66.6569 19 65 19H15C13.3431 19 12 20.3431 12 22V58C12 59.6569 13.3431 61 15 61H65C66.6569 61 68 59.6569 68 58V49" stroke="#32325D" stroke-width="2"/>
<path d="M61 32L65.3333 45L68.2222 39.2222L74 36.3333L61 32Z" fill="#32325D"/>
<path d="M21.3462 52C20.571 45.4974 20.6529 36.7694 26.4079 37.4894C32.7278 38.28 33.1896 48.3999 40.667 49.0147C46.2094 49.4703 46.8905 41.5037 47.43 37.4894C47.8832 34.1174 48.2539 28.1232 51.6049 26.3505C54.6968 24.715 58 29.3413 58 29.2005" stroke="#32325D" stroke-width="2" stroke-linecap="round"/>
</svg>
