<svg width="588" height="289" viewBox="0 0 588 289" fill="none" xmlns="http://www.w3.org/2000/svg">
<g filter="url(#filter0_d_114_1990)">
<path d="M28.6741 23.7449C28.6741 18.8655 32.6296 14.91 37.509 14.91H460.646C465.526 14.91 469.481 18.8655 469.481 23.7449V246.597C469.481 251.477 465.526 255.432 460.646 255.432H37.509C32.6296 255.432 28.6741 251.477 28.6741 246.597V23.7449Z" fill="white" stroke="#D9E0E8" stroke-width="1.13637"/>
<g opacity="0.48">
<rect x="145.062" y="44" width="32.6374" height="32.6374" rx="2.35366" fill="#F6F9FC"/>
<path d="M153.963 65.5116V69.2199H157.672L168.609 58.2829L164.9 54.5746L153.963 65.5116ZM171.476 55.4152C171.862 55.0295 171.862 54.4065 171.476 54.0209L169.162 51.7069C168.777 51.3212 168.154 51.3212 167.768 51.7069L165.958 53.5166L169.667 57.2248L171.476 55.4152Z" fill="#32325D"/>
<rect x="108.031" y="44.0002" width="32.6374" height="32.6374" rx="1.3694" fill="#F6F9FC"/>
<line x1="115.449" y1="60.6522" x2="133.251" y2="60.6522" stroke="#32325D" stroke-width="3.76122"/>
<rect x="71" y="44.0002" width="32.6374" height="32.6374" rx="2.51057" fill="#F6F9FC"/>
<circle cx="87.3183" cy="60.3185" r="9.89012" fill="#32325D"/>
<rect x="219.124" y="44.0002" width="32.6374" height="32.6374" rx="1.52663" fill="#F6F9FC"/>
<rect x="225.552" y="50.4283" width="19.7802" height="19.7802" rx="0.763314" fill="#32325D"/>
<rect x="293.186" y="44.0002" width="32.6374" height="32.6374" rx="1.25528" fill="#F6F9FC"/>
<path d="M309.246 49.5853C309.45 49.3293 309.84 49.3293 310.044 49.5853L318.469 60.1409C318.618 60.3271 318.618 60.5914 318.469 60.7776L314.184 66.1461L310.044 71.3332C309.84 71.5892 309.45 71.5892 309.246 71.3332L300.821 60.7776C300.672 60.5914 300.672 60.3271 300.821 60.1409L309.246 49.5853Z" fill="#32325D"/>
<rect x="182.092" y="44.0002" width="32.6374" height="32.6374" rx="1.17921" fill="#F6F9FC"/>
<path d="M207.806 60.3188L198.403 54.89V65.7477L207.806 60.3188ZM188.521 61.2592H199.343V59.3785H188.521V61.2592Z" fill="#32325D"/>
<rect x="256.154" y="44.0002" width="32.6374" height="32.6374" rx="1.97802" fill="#F6F9FC"/>
<path d="M265.725 67.7993V66.4673L267.448 66.1713V53.9822H263.96L263.653 56.1176H262.088V52.407H274.88V56.1176H273.337L273.019 53.9822H269.531V66.1713L271.254 66.4673V67.7993H265.725Z" fill="#32325D"/>
<path d="M280.325 67.979C279.479 67.979 278.806 67.7324 278.306 67.239C277.812 66.7386 277.566 65.9422 277.566 64.8498V57.9042H275.758V56.3608H277.566V53.6016H279.648V56.3608H282.133V57.9042H279.648V64.8498C279.648 65.3996 279.758 65.8048 279.976 66.0656C280.195 66.3263 280.487 66.4567 280.854 66.4567C281.1 66.4567 281.375 66.4356 281.678 66.3933C281.981 66.344 282.217 66.3017 282.386 66.2664L282.672 67.6302C282.369 67.7218 281.995 67.8028 281.551 67.8733C281.114 67.9438 280.705 67.979 280.325 67.979Z" fill="#32325D"/>
</g>
</g>
<g filter="url(#filter1_d_114_1990)">
<path d="M67.4511 101.538L68.8499 100.112L69.2069 100.462L69.9063 99.7485C70.0398 99.6123 70.1934 99.5104 70.3571 99.4418L70.1637 98.9807C70.6284 98.7858 71.1557 98.7857 71.6205 98.9807L71.4271 99.4418C71.5908 99.5104 71.7443 99.6123 71.8779 99.7485L72.5772 100.462L72.9342 100.112L74.333 101.538L73.976 101.888L75.3748 103.315L75.7318 102.965L77.1306 104.391L76.7736 104.741L78.1724 106.168L78.5294 105.818L79.9282 107.244L79.5712 107.594L80.97 109.021L81.327 108.671L82.7257 110.097L82.3687 110.447L83.7675 111.874L84.1245 111.523L85.5233 112.95L85.1663 113.3L86.5651 114.727L86.9221 114.376L88.3209 115.803L87.9639 116.153L89.3627 117.579L89.7197 117.229L91.1185 118.656L90.7615 119.006L92.1603 120.432L92.5173 120.082L93.9161 121.509L93.559 121.859L94.9578 123.285L95.3148 122.935L96.7136 124.362L96.3566 124.712L97.7554 126.138L98.1124 125.788L99.5112 127.215L99.1542 127.565L100.553 128.991L100.91 128.641L102.309 130.068L101.952 130.418L103.351 131.844L103.708 131.494L105.106 132.921L104.749 133.271L106.148 134.697L106.505 134.347L107.904 135.774L107.547 136.124L108.946 137.55L109.303 137.2L110.702 138.627L110.344 138.977L111.743 140.403L112.1 140.053L113.499 141.48L113.142 141.83L114.541 143.256L114.898 142.906L116.297 144.333L115.94 144.683L117.338 146.109L117.695 145.759L119.094 147.186L118.737 147.536L120.136 148.962L120.493 148.612L121.892 150.038L121.535 150.389L122.934 151.815L123.291 151.465L124.689 152.891L124.332 153.242L125.032 153.955C125.162 154.087 125.259 154.238 125.324 154.399L125.787 154.21C125.973 154.665 125.973 155.178 125.787 155.633L125.324 155.444C125.259 155.604 125.162 155.756 125.032 155.888L124.332 156.601L124.689 156.951L123.291 158.378L122.934 158.028L121.535 159.454L121.892 159.804L120.493 161.231L120.136 160.881L118.737 162.307L119.094 162.657L117.695 164.084L117.338 163.734L115.94 165.16L116.297 165.51L114.898 166.937L114.541 166.587L113.142 168.013L113.499 168.363L112.1 169.79L111.743 169.44L110.345 170.866L110.702 171.216L109.303 172.643L108.946 172.293L107.547 173.719L107.904 174.069L106.505 175.496L106.148 175.145L104.749 176.572L105.106 176.922L103.708 178.349L103.351 177.998L101.952 179.425L102.309 179.775L100.91 181.201L100.553 180.851L99.1542 182.278L99.5112 182.628L98.1124 184.054L97.7554 183.704L96.3566 185.131L96.7136 185.481L95.3148 186.907L94.9578 186.557L93.5591 187.984L93.9161 188.334L92.5173 189.76L92.1603 189.41L90.7615 190.837L91.1185 191.187L89.7197 192.613L89.3627 192.263L87.9639 193.69L88.3209 194.04L86.9221 195.466L86.5651 195.116L85.1663 196.543L85.5233 196.893L84.1245 198.319L83.7675 197.969L82.3688 199.396L82.7258 199.746L81.327 201.172L80.97 200.822L79.5712 202.249L79.9282 202.599L78.5294 204.025L78.1724 203.675L76.7736 205.102L77.1306 205.452L75.7318 206.878L75.3748 206.528L73.976 207.955L74.333 208.305L72.9342 209.731L72.5772 209.381L71.8779 210.094C71.7443 210.23 71.5908 210.332 71.4271 210.401L71.6205 210.862C71.1557 211.057 70.6285 211.057 70.1637 210.862L70.3571 210.401C70.1934 210.332 70.0398 210.23 69.9063 210.094L69.207 209.381L68.85 209.731L67.4512 208.305L67.8082 207.955L66.4094 206.528L66.0524 206.878L64.6536 205.452L65.0106 205.102L63.6118 203.675L63.2548 204.025L61.856 202.599L62.213 202.249L60.8142 200.822L60.4572 201.172L59.0584 199.746L59.4154 199.396L58.0167 197.969L57.6597 198.319L56.2609 196.893L56.6179 196.543L55.2191 195.116L54.8621 195.466L53.4633 194.04L53.8203 193.69L52.4215 192.263L52.0645 192.613L50.6657 191.187L51.0227 190.837L49.6239 189.41L49.2669 189.76L47.8681 188.334L48.2251 187.984L46.8263 186.557L46.4693 186.907L45.0706 185.481L45.4276 185.131L44.0288 183.704L43.6718 184.054L42.273 182.628L42.63 182.278L41.2312 180.851L40.8742 181.201L39.4754 179.775L39.8324 179.425L38.4336 177.998L38.0766 178.349L36.6778 176.922L37.0348 176.572L35.636 175.145L35.279 175.496L33.8803 174.069L34.2373 173.719L32.8385 172.293L32.4815 172.643L31.0827 171.216L31.4397 170.866L30.0409 169.44L29.6839 169.79L28.2851 168.363L28.6421 168.013L27.2433 166.587L26.8863 166.937L25.4875 165.51L25.8445 165.16L24.4457 163.734L24.0887 164.084L22.69 162.657L23.047 162.307L21.6482 160.881L21.2912 161.231L19.8924 159.804L20.2494 159.454L18.8506 158.028L18.4936 158.378L17.0948 156.951L17.4518 156.601L16.7524 155.888C16.6225 155.756 16.5253 155.604 16.4597 155.444L15.9968 155.633C15.8112 155.178 15.8112 154.665 15.9968 154.21L16.4597 154.399C16.5252 154.238 16.6225 154.087 16.7524 153.955L17.4518 153.242L17.0948 152.891L18.4936 151.465L18.8506 151.815L20.2494 150.389L19.8924 150.039L21.2912 148.612L21.6482 148.962L23.0469 147.536L22.6899 147.186L24.0887 145.759L24.4457 146.109L25.8445 144.683L25.4875 144.333L26.8863 142.906L27.2433 143.256L28.6421 141.83L28.2851 141.48L29.6839 140.053L30.0409 140.403L31.4397 138.977L31.0827 138.627L32.4815 137.2L32.8385 137.55L34.2372 136.124L33.8802 135.774L35.279 134.347L35.636 134.697L37.0348 133.271L36.6778 132.921L38.0766 131.494L38.4336 131.844L39.8324 130.418L39.4754 130.068L40.8742 128.641L41.2312 128.991L42.63 127.565L42.273 127.215L43.6718 125.788L44.0288 126.138L45.4276 124.712L45.0705 124.362L46.4693 122.935L46.8263 123.285L48.2251 121.859L47.8681 121.509L49.2669 120.082L49.6239 120.432L51.0227 119.006L50.6657 118.656L52.0645 117.229L52.4215 117.579L53.8203 116.153L53.4633 115.803L54.8621 114.376L55.2191 114.727L56.6178 113.3L56.2608 112.95L57.6596 111.523L58.0166 111.874L59.4154 110.447L59.0584 110.097L60.4572 108.671L60.8142 109.021L62.213 107.594L61.856 107.244L63.2548 105.818L63.6118 106.168L65.0106 104.741L64.6536 104.391L66.0524 102.965L66.4094 103.315L67.8081 101.888L67.4511 101.538Z" fill="white" stroke="#D9E0E8" stroke-dasharray="2 2"/>
<path d="M44.87 151.746V150.337H47.0026V143.887H47.8187L45.0806 145.519V143.913L47.4896 142.465H48.7008V150.337H50.7017V151.746H44.87ZM52.013 151.746V149.916H53.856V151.746H52.013ZM64.3002 151.878C63.3349 151.878 62.5055 151.685 61.8122 151.298C61.1277 150.904 60.6011 150.351 60.2325 149.64C59.8639 148.92 59.6796 148.073 59.6796 147.099C59.6796 146.125 59.8639 145.282 60.2325 144.572C60.6011 143.861 61.1277 143.312 61.8122 142.926C62.5055 142.531 63.3349 142.334 64.3002 142.334C64.9497 142.334 65.5333 142.426 66.0511 142.61C66.5777 142.794 67.0296 143.066 67.407 143.426L66.8541 144.769C66.4416 144.435 66.0423 144.199 65.6562 144.058C65.2788 143.909 64.8444 143.834 64.3529 143.834C63.4138 143.834 62.6942 144.12 62.194 144.69C61.7025 145.252 61.4568 146.055 61.4568 147.099C61.4568 148.143 61.7025 148.951 62.194 149.521C62.6942 150.092 63.4138 150.377 64.3529 150.377C64.8444 150.377 65.2788 150.307 65.6562 150.166C66.0423 150.017 66.4416 149.771 66.8541 149.429L67.407 150.772C67.0296 151.123 66.5777 151.395 66.0511 151.588C65.5333 151.781 64.9497 151.878 64.3002 151.878ZM68.5861 151.746V146.796C68.5861 146.515 68.5774 146.23 68.5598 145.941C68.551 145.651 68.5291 145.37 68.494 145.098H70.0869L70.2712 146.915H70.0079C70.0956 146.476 70.2404 146.112 70.4423 145.822C70.6529 145.532 70.9074 145.317 71.2058 145.177C71.5042 145.037 71.8289 144.966 72.18 144.966C72.338 144.966 72.4652 144.975 72.5618 144.993C72.6583 145.002 72.7548 145.023 72.8514 145.059L72.8382 146.507C72.6715 146.436 72.5266 146.393 72.4038 146.375C72.2897 146.357 72.1449 146.349 71.9694 146.349C71.592 146.349 71.2717 146.428 71.0084 146.586C70.7539 146.744 70.5608 146.963 70.4291 147.244C70.3063 147.525 70.2448 147.845 70.2448 148.205V151.746H68.5861ZM76.6133 151.878C75.4987 151.878 74.6255 151.571 73.9936 150.956C73.3617 150.342 73.0457 149.499 73.0457 148.429C73.0457 147.735 73.1818 147.13 73.4538 146.612C73.7259 146.094 74.1033 145.69 74.586 145.401C75.0774 145.111 75.6479 144.966 76.2973 144.966C76.938 144.966 77.4733 145.102 77.9034 145.375C78.3334 145.647 78.6581 146.028 78.8775 146.52C79.1057 147.011 79.2198 147.586 79.2198 148.244V148.679H74.3753V147.81H78.0482L77.8244 147.994C77.8244 147.38 77.6927 146.91 77.4294 146.586C77.1749 146.261 76.8019 146.099 76.3105 146.099C75.7664 146.099 75.3451 146.292 75.0467 146.678C74.7571 147.064 74.6123 147.604 74.6123 148.297V148.468C74.6123 149.188 74.7878 149.728 75.1389 150.087C75.4987 150.438 76.0033 150.614 76.6528 150.614C77.0301 150.614 77.3812 150.566 77.7059 150.469C78.0394 150.364 78.3553 150.197 78.6537 149.969L79.1408 151.075C78.8249 151.329 78.4475 151.527 78.0087 151.667C77.5699 151.807 77.1047 151.878 76.6133 151.878ZM82.917 151.878C82.3378 151.878 81.8287 151.742 81.3899 151.47C80.9511 151.189 80.6089 150.789 80.3631 150.272C80.1174 149.754 79.9945 149.135 79.9945 148.415C79.9945 147.696 80.1174 147.081 80.3631 146.572C80.6089 146.055 80.9511 145.66 81.3899 145.388C81.8287 145.107 82.3378 144.966 82.917 144.966C83.4787 144.966 83.9701 145.107 84.3914 145.388C84.8214 145.66 85.1067 146.028 85.2471 146.493H85.1023L85.2471 145.098H86.8268C86.8005 145.37 86.7741 145.647 86.7478 145.927C86.7302 146.208 86.7215 146.485 86.7215 146.757V151.746H85.0891L85.0759 150.377H85.2339C85.0935 150.833 84.8083 151.198 84.3782 151.47C83.9482 151.742 83.4611 151.878 82.917 151.878ZM83.3777 150.614C83.8955 150.614 84.3124 150.434 84.6283 150.074C84.9443 149.706 85.1023 149.153 85.1023 148.415C85.1023 147.678 84.9443 147.13 84.6283 146.77C84.3124 146.41 83.8955 146.23 83.3777 146.23C82.8599 146.23 82.4431 146.41 82.1271 146.77C81.8112 147.13 81.6532 147.678 81.6532 148.415C81.6532 149.153 81.8068 149.706 82.114 150.074C82.4299 150.434 82.8512 150.614 83.3777 150.614ZM91.0936 151.878C90.3037 151.878 89.7069 151.671 89.3032 151.259C88.8995 150.846 88.6977 150.228 88.6977 149.403V146.336H87.4207V145.098H88.6977V143.4L90.3432 142.979V145.098H92.1204V146.336H90.3432V149.297C90.3432 149.754 90.4309 150.074 90.6065 150.258C90.782 150.443 91.0233 150.535 91.3305 150.535C91.4973 150.535 91.6377 150.522 91.7518 150.495C91.8746 150.469 91.9931 150.434 92.1072 150.39V151.693C91.958 151.755 91.7913 151.799 91.607 151.825C91.4314 151.86 91.2603 151.878 91.0936 151.878ZM96.1226 151.878C95.008 151.878 94.1348 151.571 93.5029 150.956C92.871 150.342 92.5551 149.499 92.5551 148.429C92.5551 147.735 92.6911 147.13 92.9632 146.612C93.2353 146.094 93.6126 145.69 94.0953 145.401C94.5868 145.111 95.1572 144.966 95.8067 144.966C96.4473 144.966 96.9827 145.102 97.4127 145.375C97.8428 145.647 98.1675 146.028 98.3869 146.52C98.6151 147.011 98.7291 147.586 98.7291 148.244V148.679H93.8847V147.81H97.5575L97.3337 147.994C97.3337 147.38 97.2021 146.91 96.9388 146.586C96.6843 146.261 96.3113 146.099 95.8198 146.099C95.2757 146.099 94.8545 146.292 94.5561 146.678C94.2665 147.064 94.1216 147.604 94.1216 148.297V148.468C94.1216 149.188 94.2972 149.728 94.6482 150.087C95.008 150.438 95.5127 150.614 96.1621 150.614C96.5395 150.614 96.8905 150.566 97.2153 150.469C97.5487 150.364 97.8647 150.197 98.1631 149.969L98.6502 151.075C98.3342 151.329 97.9568 151.527 97.518 151.667C97.0792 151.807 96.6141 151.878 96.1226 151.878ZM45.4644 171.878C44.8852 171.878 44.3718 171.742 43.9242 171.47C43.4854 171.189 43.1431 170.789 42.8974 170.272C42.6517 169.754 42.5288 169.135 42.5288 168.415C42.5288 167.696 42.6517 167.081 42.8974 166.572C43.1431 166.055 43.4854 165.66 43.9242 165.388C44.3718 165.107 44.8852 164.966 45.4644 164.966C46.0173 164.966 46.5044 165.102 46.9257 165.375C47.3557 165.638 47.6409 165.998 47.7813 166.454H47.6102V162.057H49.2557V171.746H47.6365V170.337H47.7945C47.6541 170.811 47.3689 171.189 46.9388 171.47C46.5176 171.742 46.0261 171.878 45.4644 171.878ZM45.9252 170.614C46.443 170.614 46.8598 170.434 47.1758 170.074C47.4917 169.706 47.6497 169.153 47.6497 168.415C47.6497 167.678 47.4917 167.13 47.1758 166.77C46.8598 166.41 46.443 166.23 45.9252 166.23C45.4074 166.23 44.9861 166.41 44.6614 166.77C44.3455 167.13 44.1875 167.678 44.1875 168.415C44.1875 169.153 44.3455 169.706 44.6614 170.074C44.9861 170.434 45.4074 170.614 45.9252 170.614ZM50.7843 171.746V165.098H52.4299V171.746H50.7843ZM50.6922 163.847V162.241H52.522V163.847H50.6922ZM56.5206 171.878C55.9413 171.878 55.4323 171.742 54.9935 171.47C54.5547 171.189 54.2124 170.789 53.9667 170.272C53.721 169.754 53.5981 169.135 53.5981 168.415C53.5981 167.696 53.721 167.081 53.9667 166.572C54.2124 166.055 54.5547 165.66 54.9935 165.388C55.4323 165.107 55.9413 164.966 56.5206 164.966C57.0822 164.966 57.5737 165.107 57.995 165.388C58.425 165.66 58.7102 166.028 58.8506 166.493H58.7058L58.8506 165.098H60.4304C60.404 165.37 60.3777 165.647 60.3514 165.927C60.3338 166.208 60.325 166.485 60.325 166.757V171.746H58.6927L58.6795 170.377H58.8375C58.6971 170.833 58.4118 171.198 57.9818 171.47C57.5518 171.742 57.0647 171.878 56.5206 171.878ZM56.9813 170.614C57.4991 170.614 57.916 170.434 58.2319 170.074C58.5479 169.706 58.7058 169.153 58.7058 168.415C58.7058 167.678 58.5479 167.13 58.2319 166.77C57.916 166.41 57.4991 166.23 56.9813 166.23C56.4635 166.23 56.0467 166.41 55.7307 166.77C55.4148 167.13 55.2568 167.678 55.2568 168.415C55.2568 169.153 55.4104 169.706 55.7175 170.074C56.0335 170.434 56.4547 170.614 56.9813 170.614ZM64.9341 174.695C64.3197 174.695 63.7625 174.629 63.2622 174.497C62.7708 174.366 62.3319 174.164 61.9458 173.892L62.3012 172.707C62.5557 172.874 62.819 173.01 63.0911 173.115C63.3631 173.22 63.644 173.299 63.9336 173.352C64.2232 173.405 64.5172 173.431 64.8156 173.431C65.4299 173.431 65.8863 173.277 66.1847 172.97C66.4919 172.672 66.6454 172.242 66.6454 171.68V170.087H66.7771C66.6367 170.544 66.3514 170.908 65.9214 171.18C65.5001 171.452 65.0131 171.588 64.4602 171.588C63.8634 171.588 63.3412 171.456 62.8936 171.193C62.4548 170.921 62.1125 170.535 61.8668 170.035C61.6211 169.534 61.4982 168.946 61.4982 168.271C61.4982 167.595 61.6211 167.011 61.8668 166.52C62.1125 166.02 62.4548 165.638 62.8936 165.375C63.3412 165.102 63.8634 164.966 64.4602 164.966C65.0218 164.966 65.5089 165.102 65.9214 165.375C66.3427 165.638 66.6235 165.998 66.7639 166.454L66.6454 166.375L66.7771 165.098H68.37C68.3349 165.37 68.3085 165.647 68.291 165.927C68.2734 166.208 68.2646 166.485 68.2646 166.757V171.483C68.2646 172.527 67.9794 173.321 67.409 173.865C66.8473 174.418 66.0223 174.695 64.9341 174.695ZM64.9078 170.324C65.4343 170.324 65.8512 170.149 66.1584 169.798C66.4743 169.438 66.6323 168.929 66.6323 168.271C66.6323 167.612 66.4743 167.108 66.1584 166.757C65.8512 166.406 65.4343 166.23 64.9078 166.23C64.3724 166.23 63.9468 166.406 63.6308 166.757C63.3149 167.108 63.1569 167.612 63.1569 168.271C63.1569 168.929 63.3149 169.438 63.6308 169.798C63.9468 170.149 64.3724 170.324 64.9078 170.324ZM69.7663 171.746V166.796C69.7663 166.515 69.7575 166.23 69.74 165.941C69.7312 165.651 69.7093 165.37 69.6741 165.098H71.267L71.4513 166.915H71.188C71.2758 166.476 71.4206 166.112 71.6225 165.822C71.8331 165.532 72.0876 165.317 72.386 165.177C72.6844 165.037 73.0091 164.966 73.3601 164.966C73.5181 164.966 73.6454 164.975 73.7419 164.993C73.8384 165.002 73.935 165.023 74.0315 165.059L74.0184 166.507C73.8516 166.436 73.7068 166.393 73.5839 166.375C73.4698 166.357 73.325 166.349 73.1495 166.349C72.7721 166.349 72.4518 166.428 72.1885 166.586C71.934 166.744 71.7409 166.963 71.6093 167.244C71.4864 167.525 71.425 167.845 71.425 168.205V171.746H69.7663ZM77.1869 171.878C76.6077 171.878 76.0987 171.742 75.6599 171.47C75.2211 171.189 74.8788 170.789 74.6331 170.272C74.3873 169.754 74.2645 169.135 74.2645 168.415C74.2645 167.696 74.3873 167.081 74.6331 166.572C74.8788 166.055 75.2211 165.66 75.6599 165.388C76.0987 165.107 76.6077 164.966 77.1869 164.966C77.7486 164.966 78.2401 165.107 78.6613 165.388C79.0914 165.66 79.3766 166.028 79.517 166.493H79.3722L79.517 165.098H81.0967C81.0704 165.37 81.0441 165.647 81.0177 165.927C81.0002 166.208 80.9914 166.485 80.9914 166.757V171.746H79.359L79.3459 170.377H79.5038C79.3634 170.833 79.0782 171.198 78.6482 171.47C78.2181 171.742 77.7311 171.878 77.1869 171.878ZM77.6477 170.614C78.1655 170.614 78.5823 170.434 78.8983 170.074C79.2142 169.706 79.3722 169.153 79.3722 168.415C79.3722 167.678 79.2142 167.13 78.8983 166.77C78.5823 166.41 78.1655 166.23 77.6477 166.23C77.1299 166.23 76.713 166.41 76.3971 166.77C76.0811 167.13 75.9232 167.678 75.9232 168.415C75.9232 169.153 76.0767 169.706 76.3839 170.074C76.6999 170.434 77.1211 170.614 77.6477 170.614ZM82.52 171.746V166.757C82.52 166.485 82.5112 166.208 82.4937 165.927C82.4761 165.647 82.4498 165.37 82.4147 165.098H84.0076L84.1392 166.415H83.9812C84.1655 165.958 84.4464 165.603 84.8238 165.348C85.2099 165.094 85.6663 164.966 86.1928 164.966C86.7194 164.966 87.1538 165.094 87.4961 165.348C87.8472 165.594 88.0929 165.98 88.2333 166.507H88.0227C88.207 166.033 88.5098 165.66 88.931 165.388C89.3523 165.107 89.835 164.966 90.3791 164.966C91.1251 164.966 91.6823 165.186 92.0509 165.625C92.4195 166.063 92.6038 166.748 92.6038 167.678V171.746H90.9583V167.744C90.9583 167.218 90.8706 166.84 90.695 166.612C90.5195 166.375 90.2387 166.257 89.8525 166.257C89.3962 166.257 89.0363 166.419 88.773 166.744C88.5098 167.06 88.3781 167.49 88.3781 168.034V171.746H86.7326V167.744C86.7326 167.218 86.6448 166.84 86.4693 166.612C86.2938 166.375 86.0129 166.257 85.6268 166.257C85.1704 166.257 84.8106 166.419 84.5473 166.744C84.2928 167.06 84.1655 167.49 84.1655 168.034V171.746H82.52ZM96.4664 171.878C95.896 171.878 95.3694 171.812 94.8867 171.68C94.4128 171.54 94.0135 171.347 93.6888 171.101L94.1495 169.995C94.483 170.223 94.8516 170.399 95.2553 170.522C95.659 170.645 96.0671 170.706 96.4796 170.706C96.9184 170.706 97.2431 170.631 97.4538 170.482C97.6732 170.333 97.7829 170.131 97.7829 169.877C97.7829 169.675 97.7126 169.517 97.5722 169.403C97.4406 169.28 97.2256 169.188 96.9272 169.126L95.6108 168.876C95.0491 168.753 94.619 168.543 94.3207 168.244C94.031 167.946 93.8862 167.555 93.8862 167.073C93.8862 166.66 93.9959 166.296 94.2153 165.98C94.4435 165.664 94.7639 165.418 95.1763 165.243C95.5976 165.059 96.0891 164.966 96.6507 164.966C97.1422 164.966 97.6029 165.032 98.033 165.164C98.4718 165.296 98.8404 165.493 99.1388 165.756L98.6649 166.823C98.3928 166.603 98.0812 166.432 97.7302 166.309C97.3792 166.186 97.0369 166.125 96.7034 166.125C96.247 166.125 95.9135 166.208 95.7029 166.375C95.4923 166.533 95.387 166.739 95.387 166.994C95.387 167.187 95.4484 167.349 95.5713 167.481C95.7029 167.604 95.9048 167.696 96.1768 167.757L97.4932 168.007C98.0812 168.121 98.5244 168.323 98.8228 168.613C99.13 168.894 99.2836 169.28 99.2836 169.771C99.2836 170.21 99.1651 170.588 98.9282 170.904C98.6912 171.219 98.3621 171.461 97.9408 171.628C97.5196 171.794 97.0281 171.878 96.4664 171.878Z" fill="#32325D"/>
</g>
<g filter="url(#filter2_d_114_1990)">
<rect x="167.77" y="125.798" width="157.912" height="51.6571" rx="1.38061" fill="white" stroke="#D9E0E8" stroke-dasharray="2 2"/>
<path d="M185.601 156V154.749L188.682 151.537C189.068 151.133 189.353 150.76 189.537 150.418C189.722 150.076 189.814 149.725 189.814 149.365C189.814 148.917 189.673 148.579 189.393 148.351C189.112 148.123 188.704 148.009 188.168 148.009C187.738 148.009 187.326 148.088 186.931 148.246C186.536 148.395 186.15 148.632 185.772 148.957L185.219 147.693C185.597 147.36 186.062 147.092 186.615 146.89C187.177 146.688 187.765 146.587 188.379 146.587C189.379 146.587 190.147 146.811 190.683 147.259C191.218 147.706 191.486 148.347 191.486 149.181C191.486 149.76 191.35 150.313 191.078 150.839C190.806 151.357 190.384 151.901 189.814 152.472L187.247 155.039V154.591H191.854V156H185.601ZM192.915 156V154.17H194.758V156H192.915ZM199.583 156V146.719H201.281V156H199.583ZM202.929 156V146.311H204.574V156H202.929ZM206.098 156V146.311H207.743V156H206.098ZM211.663 156.131C210.847 156.131 210.237 155.908 209.833 155.46C209.429 155.012 209.228 154.328 209.228 153.406V149.352H210.873V153.393C210.873 153.885 210.974 154.249 211.176 154.486C211.378 154.714 211.685 154.828 212.097 154.828C212.563 154.828 212.94 154.67 213.23 154.354C213.528 154.038 213.677 153.621 213.677 153.104V149.352H215.323V156H213.717V154.644H213.901C213.708 155.118 213.414 155.486 213.019 155.75C212.633 156.004 212.181 156.131 211.663 156.131ZM219.215 156.131C218.645 156.131 218.118 156.066 217.636 155.934C217.162 155.794 216.762 155.6 216.438 155.355L216.898 154.249C217.232 154.477 217.601 154.653 218.004 154.775C218.408 154.898 218.816 154.96 219.229 154.96C219.667 154.96 219.992 154.885 220.203 154.736C220.422 154.587 220.532 154.385 220.532 154.13C220.532 153.929 220.462 153.771 220.321 153.657C220.19 153.534 219.975 153.441 219.676 153.38L218.36 153.13C217.798 153.007 217.368 152.796 217.07 152.498C216.78 152.2 216.635 151.809 216.635 151.326C216.635 150.914 216.745 150.55 216.964 150.234C217.192 149.918 217.513 149.672 217.925 149.497C218.347 149.312 218.838 149.22 219.4 149.22C219.891 149.22 220.352 149.286 220.782 149.418C221.221 149.549 221.589 149.747 221.888 150.01L221.414 151.076C221.142 150.857 220.83 150.686 220.479 150.563C220.128 150.44 219.786 150.379 219.452 150.379C218.996 150.379 218.662 150.462 218.452 150.629C218.241 150.787 218.136 150.993 218.136 151.247C218.136 151.441 218.197 151.603 218.32 151.735C218.452 151.857 218.654 151.95 218.926 152.011L220.242 152.261C220.83 152.375 221.273 152.577 221.572 152.867C221.879 153.147 222.033 153.534 222.033 154.025C222.033 154.464 221.914 154.841 221.677 155.157C221.44 155.473 221.111 155.715 220.69 155.881C220.269 156.048 219.777 156.131 219.215 156.131ZM225.957 156.131C225.167 156.131 224.57 155.925 224.166 155.513C223.763 155.1 223.561 154.481 223.561 153.657V150.589H222.284V149.352H223.561V147.654L225.206 147.232V149.352H226.984V150.589H225.206V153.551C225.206 154.008 225.294 154.328 225.47 154.512C225.645 154.696 225.887 154.789 226.194 154.789C226.36 154.789 226.501 154.775 226.615 154.749C226.738 154.723 226.856 154.688 226.97 154.644V155.947C226.821 156.009 226.654 156.052 226.47 156.079C226.295 156.114 226.123 156.131 225.957 156.131ZM227.825 156V151.05C227.825 150.769 227.816 150.484 227.798 150.194C227.79 149.905 227.768 149.624 227.733 149.352H229.326L229.51 151.168H229.247C229.334 150.73 229.479 150.365 229.681 150.076C229.892 149.786 230.146 149.571 230.445 149.431C230.743 149.29 231.068 149.22 231.419 149.22C231.577 149.22 231.704 149.229 231.8 149.246C231.897 149.255 231.994 149.277 232.09 149.312L232.077 150.76C231.91 150.69 231.765 150.646 231.642 150.629C231.528 150.611 231.384 150.602 231.208 150.602C230.831 150.602 230.51 150.681 230.247 150.839C229.993 150.997 229.799 151.217 229.668 151.498C229.545 151.778 229.484 152.099 229.484 152.459V156H227.825ZM235.245 156.131C234.666 156.131 234.157 155.995 233.718 155.723C233.28 155.442 232.937 155.043 232.692 154.525C232.446 154.008 232.323 153.389 232.323 152.669C232.323 151.95 232.446 151.335 232.692 150.826C232.937 150.308 233.28 149.913 233.718 149.641C234.157 149.361 234.666 149.22 235.245 149.22C235.807 149.22 236.299 149.361 236.72 149.641C237.15 149.913 237.435 150.282 237.576 150.747H237.431L237.576 149.352H239.155C239.129 149.624 239.103 149.9 239.076 150.181C239.059 150.462 239.05 150.738 239.05 151.01V156H237.418L237.404 154.631H237.562C237.422 155.087 237.137 155.451 236.707 155.723C236.277 155.995 235.79 156.131 235.245 156.131ZM235.706 154.868C236.224 154.868 236.641 154.688 236.957 154.328C237.273 153.959 237.431 153.406 237.431 152.669C237.431 151.932 237.273 151.383 236.957 151.024C236.641 150.664 236.224 150.484 235.706 150.484C235.188 150.484 234.772 150.664 234.456 151.024C234.14 151.383 233.982 151.932 233.982 152.669C233.982 153.406 234.135 153.959 234.442 154.328C234.758 154.688 235.18 154.868 235.706 154.868ZM243.422 156.131C242.632 156.131 242.035 155.925 241.632 155.513C241.228 155.1 241.026 154.481 241.026 153.657V150.589H239.749V149.352H241.026V147.654L242.672 147.232V149.352H244.449V150.589H242.672V153.551C242.672 154.008 242.759 154.328 242.935 154.512C243.11 154.696 243.352 154.789 243.659 154.789C243.826 154.789 243.966 154.775 244.08 154.749C244.203 154.723 244.322 154.688 244.436 154.644V155.947C244.286 156.009 244.12 156.052 243.935 156.079C243.76 156.114 243.589 156.131 243.422 156.131ZM248.451 156.131C247.337 156.131 246.463 155.824 245.831 155.21C245.2 154.596 244.884 153.753 244.884 152.682C244.884 151.989 245.02 151.383 245.292 150.866C245.564 150.348 245.941 149.944 246.424 149.655C246.915 149.365 247.486 149.22 248.135 149.22C248.776 149.22 249.311 149.356 249.741 149.628C250.171 149.9 250.496 150.282 250.715 150.774C250.944 151.265 251.058 151.84 251.058 152.498V152.932H246.213V152.064H249.886L249.662 152.248C249.662 151.634 249.531 151.164 249.267 150.839C249.013 150.515 248.64 150.352 248.148 150.352C247.604 150.352 247.183 150.545 246.885 150.932C246.595 151.318 246.45 151.857 246.45 152.551V152.722C246.45 153.441 246.626 153.981 246.977 154.341C247.337 154.692 247.841 154.868 248.491 154.868C248.868 154.868 249.219 154.819 249.544 154.723C249.877 154.618 250.193 154.451 250.492 154.223L250.979 155.328C250.663 155.583 250.285 155.78 249.847 155.921C249.408 156.061 248.943 156.131 248.451 156.131ZM258.591 156.131C257.907 156.131 257.305 155.991 256.788 155.71C256.279 155.429 255.884 155.03 255.603 154.512C255.322 153.986 255.182 153.363 255.182 152.643C255.182 151.923 255.322 151.309 255.603 150.8C255.892 150.291 256.292 149.9 256.801 149.628C257.31 149.356 257.907 149.22 258.591 149.22C259.03 149.22 259.456 149.29 259.868 149.431C260.289 149.562 260.632 149.756 260.895 150.01L260.395 151.155C260.158 150.936 259.89 150.774 259.592 150.668C259.302 150.554 259.017 150.497 258.736 150.497C258.148 150.497 257.687 150.681 257.354 151.05C257.029 151.419 256.867 151.954 256.867 152.656C256.867 153.358 257.029 153.898 257.354 154.275C257.687 154.653 258.148 154.841 258.736 154.841C259.008 154.841 259.289 154.789 259.578 154.683C259.877 154.578 260.149 154.416 260.395 154.196L260.895 155.328C260.623 155.583 260.276 155.78 259.855 155.921C259.442 156.061 259.021 156.131 258.591 156.131ZM264.78 156.131C264.096 156.131 263.503 155.991 263.003 155.71C262.503 155.429 262.112 155.03 261.831 154.512C261.559 153.994 261.423 153.38 261.423 152.669C261.423 151.958 261.559 151.348 261.831 150.839C262.112 150.322 262.503 149.922 263.003 149.641C263.503 149.361 264.096 149.22 264.78 149.22C265.465 149.22 266.057 149.361 266.557 149.641C267.066 149.922 267.457 150.322 267.729 150.839C268.01 151.348 268.15 151.958 268.15 152.669C268.15 153.38 268.01 153.994 267.729 154.512C267.457 155.03 267.066 155.429 266.557 155.71C266.057 155.991 265.465 156.131 264.78 156.131ZM264.78 154.868C265.298 154.868 265.71 154.688 266.018 154.328C266.325 153.959 266.478 153.406 266.478 152.669C266.478 151.932 266.325 151.383 266.018 151.024C265.71 150.664 265.298 150.484 264.78 150.484C264.262 150.484 263.85 150.664 263.543 151.024C263.236 151.383 263.082 151.932 263.082 152.669C263.082 153.406 263.236 153.959 263.543 154.328C263.85 154.688 264.262 154.868 264.78 154.868ZM269.306 156V151.01C269.306 150.738 269.297 150.462 269.28 150.181C269.262 149.9 269.236 149.624 269.201 149.352H270.794L270.925 150.668H270.767C270.978 150.203 271.289 149.848 271.702 149.602C272.114 149.347 272.593 149.22 273.137 149.22C273.918 149.22 274.506 149.44 274.901 149.878C275.296 150.317 275.493 151.002 275.493 151.932V156H273.848V152.011C273.848 151.476 273.742 151.094 273.532 150.866C273.33 150.629 273.023 150.51 272.61 150.51C272.101 150.51 271.697 150.668 271.399 150.984C271.101 151.3 270.952 151.721 270.952 152.248V156H269.306ZM280.029 156.131C279.344 156.131 278.743 155.991 278.225 155.71C277.716 155.429 277.321 155.03 277.041 154.512C276.76 153.986 276.619 153.363 276.619 152.643C276.619 151.923 276.76 151.309 277.041 150.8C277.33 150.291 277.729 149.9 278.238 149.628C278.747 149.356 279.344 149.22 280.029 149.22C280.468 149.22 280.893 149.29 281.306 149.431C281.727 149.562 282.069 149.756 282.333 150.01L281.832 151.155C281.595 150.936 281.328 150.774 281.029 150.668C280.74 150.554 280.454 150.497 280.174 150.497C279.586 150.497 279.125 150.681 278.791 151.05C278.467 151.419 278.304 151.954 278.304 152.656C278.304 153.358 278.467 153.898 278.791 154.275C279.125 154.653 279.586 154.841 280.174 154.841C280.446 154.841 280.727 154.789 281.016 154.683C281.315 154.578 281.587 154.416 281.832 154.196L282.333 155.328C282.06 155.583 281.714 155.78 281.293 155.921C280.88 156.061 280.459 156.131 280.029 156.131ZM286.428 156.131C285.314 156.131 284.441 155.824 283.809 155.21C283.177 154.596 282.861 153.753 282.861 152.682C282.861 151.989 282.997 151.383 283.269 150.866C283.541 150.348 283.918 149.944 284.401 149.655C284.893 149.365 285.463 149.22 286.113 149.22C286.753 149.22 287.289 149.356 287.719 149.628C288.149 149.9 288.473 150.282 288.693 150.774C288.921 151.265 289.035 151.84 289.035 152.498V152.932H284.191V152.064H287.863L287.64 152.248C287.64 151.634 287.508 151.164 287.245 150.839C286.99 150.515 286.617 150.352 286.126 150.352C285.582 150.352 285.16 150.545 284.862 150.932C284.572 151.318 284.428 151.857 284.428 152.551V152.722C284.428 153.441 284.603 153.981 284.954 154.341C285.314 154.692 285.819 154.868 286.468 154.868C286.845 154.868 287.196 154.819 287.521 154.723C287.855 154.618 288.171 154.451 288.469 154.223L288.956 155.328C288.64 155.583 288.263 155.78 287.824 155.921C287.385 156.061 286.92 156.131 286.428 156.131ZM290.165 158.843V151.01C290.165 150.738 290.156 150.462 290.139 150.181C290.121 149.9 290.095 149.624 290.06 149.352H291.653L291.798 150.747H291.653C291.784 150.282 292.061 149.913 292.482 149.641C292.912 149.361 293.408 149.22 293.97 149.22C294.558 149.22 295.071 149.361 295.51 149.641C295.949 149.913 296.291 150.308 296.537 150.826C296.782 151.335 296.905 151.95 296.905 152.669C296.905 153.389 296.782 154.008 296.537 154.525C296.291 155.043 295.949 155.442 295.51 155.723C295.071 155.995 294.558 156.131 293.97 156.131C293.417 156.131 292.93 155.995 292.508 155.723C292.087 155.451 291.806 155.087 291.666 154.631H291.811V158.843H290.165ZM293.509 154.868C294.035 154.868 294.457 154.688 294.773 154.328C295.089 153.959 295.247 153.406 295.247 152.669C295.247 151.932 295.089 151.383 294.773 151.024C294.457 150.664 294.035 150.484 293.509 150.484C292.991 150.484 292.574 150.664 292.258 151.024C291.942 151.383 291.784 151.932 291.784 152.669C291.784 153.406 291.942 153.959 292.258 154.328C292.574 154.688 292.991 154.868 293.509 154.868ZM300.844 156.131C300.055 156.131 299.458 155.925 299.054 155.513C298.65 155.1 298.449 154.481 298.449 153.657V150.589H297.172V149.352H298.449V147.654L300.094 147.232V149.352H301.871V150.589H300.094V153.551C300.094 154.008 300.182 154.328 300.357 154.512C300.533 154.696 300.774 154.789 301.081 154.789C301.248 154.789 301.389 154.775 301.503 154.749C301.626 154.723 301.744 154.688 301.858 154.644V155.947C301.709 156.009 301.542 156.052 301.358 156.079C301.182 156.114 301.011 156.131 300.844 156.131ZM305.095 156.131C304.525 156.131 303.998 156.066 303.516 155.934C303.042 155.794 302.642 155.6 302.318 155.355L302.778 154.249C303.112 154.477 303.481 154.653 303.884 154.775C304.288 154.898 304.696 154.96 305.108 154.96C305.547 154.96 305.872 154.885 306.083 154.736C306.302 154.587 306.412 154.385 306.412 154.13C306.412 153.929 306.342 153.771 306.201 153.657C306.069 153.534 305.854 153.441 305.556 153.38L304.24 153.13C303.678 153.007 303.248 152.796 302.95 152.498C302.66 152.2 302.515 151.809 302.515 151.326C302.515 150.914 302.625 150.55 302.844 150.234C303.072 149.918 303.393 149.672 303.805 149.497C304.226 149.312 304.718 149.22 305.28 149.22C305.771 149.22 306.232 149.286 306.662 149.418C307.101 149.549 307.469 149.747 307.768 150.01L307.294 151.076C307.022 150.857 306.71 150.686 306.359 150.563C306.008 150.44 305.666 150.379 305.332 150.379C304.876 150.379 304.542 150.462 304.332 150.629C304.121 150.787 304.016 150.993 304.016 151.247C304.016 151.441 304.077 151.603 304.2 151.735C304.332 151.857 304.534 151.95 304.806 152.011L306.122 152.261C306.71 152.375 307.153 152.577 307.452 152.867C307.759 153.147 307.912 153.534 307.912 154.025C307.912 154.464 307.794 154.841 307.557 155.157C307.32 155.473 306.991 155.715 306.57 155.881C306.148 156.048 305.657 156.131 305.095 156.131Z" fill="#32325D"/>
</g>
<g filter="url(#filter3_d_114_1990)">
<circle cx="423.974" cy="151.626" r="57.7989" fill="white" stroke="#D9E0E8" stroke-dasharray="2 2"/>
<path d="M396.04 147.131C395.4 147.131 394.785 147.039 394.197 146.855C393.609 146.662 393.127 146.399 392.749 146.065L393.302 144.788C393.715 145.104 394.14 145.337 394.579 145.486C395.027 145.635 395.496 145.71 395.988 145.71C396.585 145.71 397.037 145.591 397.344 145.354C397.651 145.117 397.805 144.771 397.805 144.314C397.805 143.875 397.651 143.546 397.344 143.327C397.045 143.099 396.607 142.985 396.027 142.985H394.527V141.629H395.883C396.383 141.629 396.782 141.506 397.08 141.26C397.379 141.014 397.528 140.677 397.528 140.246C397.528 139.843 397.388 139.536 397.107 139.325C396.835 139.114 396.44 139.009 395.922 139.009C394.992 139.009 394.171 139.325 393.46 139.957L392.907 138.693C393.285 138.342 393.75 138.07 394.303 137.877C394.864 137.684 395.452 137.587 396.067 137.587C397.032 137.587 397.787 137.807 398.331 138.246C398.884 138.676 399.16 139.277 399.16 140.049C399.16 140.602 399.002 141.08 398.687 141.484C398.379 141.879 397.954 142.142 397.41 142.274V142.116C398.05 142.221 398.546 142.484 398.897 142.906C399.257 143.318 399.437 143.836 399.437 144.459C399.437 145.284 399.134 145.938 398.529 146.421C397.923 146.894 397.094 147.131 396.04 147.131ZM400.577 147V145.17H402.42V147H400.577ZM407.244 147V137.719H413.497V139.049H408.877V141.616H413.194V142.958H408.877V145.657H413.497V147H407.244ZM414.678 147V142.01C414.678 141.738 414.67 141.462 414.652 141.181C414.635 140.9 414.608 140.624 414.573 140.352H416.166L416.298 141.668H416.14C416.35 141.203 416.662 140.848 417.074 140.602C417.487 140.347 417.965 140.22 418.509 140.22C419.29 140.22 419.878 140.44 420.273 140.878C420.668 141.317 420.866 142.002 420.866 142.932V147H419.22V143.011C419.22 142.476 419.115 142.094 418.904 141.866C418.702 141.629 418.395 141.51 417.983 141.51C417.474 141.51 417.07 141.668 416.772 141.984C416.473 142.3 416.324 142.721 416.324 143.248V147H414.678ZM425.428 149.949C424.813 149.949 424.256 149.883 423.756 149.751C423.264 149.619 422.825 149.418 422.439 149.146L422.795 147.961C423.049 148.127 423.313 148.264 423.585 148.369C423.857 148.474 424.137 148.553 424.427 148.606C424.717 148.658 425.011 148.685 425.309 148.685C425.923 148.685 426.38 148.531 426.678 148.224C426.985 147.926 427.139 147.496 427.139 146.934V145.341H427.271C427.13 145.797 426.845 146.162 426.415 146.434C425.994 146.706 425.507 146.842 424.954 146.842C424.357 146.842 423.835 146.71 423.387 146.447C422.948 146.175 422.606 145.789 422.36 145.288C422.115 144.788 421.992 144.2 421.992 143.524C421.992 142.849 422.115 142.265 422.36 141.774C422.606 141.273 422.948 140.892 423.387 140.628C423.835 140.356 424.357 140.22 424.954 140.22C425.515 140.22 426.002 140.356 426.415 140.628C426.836 140.892 427.117 141.251 427.257 141.708L427.139 141.629L427.271 140.352H428.863C428.828 140.624 428.802 140.9 428.784 141.181C428.767 141.462 428.758 141.738 428.758 142.01V146.736C428.758 147.781 428.473 148.575 427.902 149.119C427.341 149.672 426.516 149.949 425.428 149.949ZM425.401 145.578C425.928 145.578 426.345 145.402 426.652 145.051C426.968 144.692 427.126 144.183 427.126 143.524C427.126 142.866 426.968 142.362 426.652 142.01C426.345 141.659 425.928 141.484 425.401 141.484C424.866 141.484 424.44 141.659 424.124 142.01C423.808 142.362 423.65 142.866 423.65 143.524C423.65 144.183 423.808 144.692 424.124 145.051C424.44 145.402 424.866 145.578 425.401 145.578ZM432.84 147.131C432.261 147.131 431.752 146.995 431.313 146.723C430.874 146.442 430.532 146.043 430.286 145.525C430.04 145.008 429.918 144.389 429.918 143.669C429.918 142.95 430.04 142.335 430.286 141.826C430.532 141.308 430.874 140.913 431.313 140.641C431.752 140.361 432.261 140.22 432.84 140.22C433.402 140.22 433.893 140.361 434.314 140.641C434.744 140.913 435.03 141.282 435.17 141.747H435.025L435.17 140.352H436.75C436.723 140.624 436.697 140.9 436.671 141.181C436.653 141.462 436.644 141.738 436.644 142.01V147H435.012L434.999 145.631H435.157C435.016 146.087 434.731 146.451 434.301 146.723C433.871 146.995 433.384 147.131 432.84 147.131ZM433.301 145.868C433.819 145.868 434.235 145.688 434.551 145.328C434.867 144.959 435.025 144.406 435.025 143.669C435.025 142.932 434.867 142.383 434.551 142.024C434.235 141.664 433.819 141.484 433.301 141.484C432.783 141.484 432.366 141.664 432.05 142.024C431.734 142.383 431.576 142.932 431.576 143.669C431.576 144.406 431.73 144.959 432.037 145.328C432.353 145.688 432.774 145.868 433.301 145.868ZM441.254 149.949C440.639 149.949 440.082 149.883 439.582 149.751C439.09 149.619 438.651 149.418 438.265 149.146L438.621 147.961C438.875 148.127 439.138 148.264 439.411 148.369C439.683 148.474 439.963 148.553 440.253 148.606C440.543 148.658 440.837 148.685 441.135 148.685C441.749 148.685 442.206 148.531 442.504 148.224C442.811 147.926 442.965 147.496 442.965 146.934V145.341H443.097C442.956 145.797 442.671 146.162 442.241 146.434C441.82 146.706 441.332 146.842 440.78 146.842C440.183 146.842 439.661 146.71 439.213 146.447C438.774 146.175 438.432 145.789 438.186 145.288C437.94 144.788 437.818 144.2 437.818 143.524C437.818 142.849 437.94 142.265 438.186 141.774C438.432 141.273 438.774 140.892 439.213 140.628C439.661 140.356 440.183 140.22 440.78 140.22C441.341 140.22 441.828 140.356 442.241 140.628C442.662 140.892 442.943 141.251 443.083 141.708L442.965 141.629L443.097 140.352H444.689C444.654 140.624 444.628 140.9 444.61 141.181C444.593 141.462 444.584 141.738 444.584 142.01V146.736C444.584 147.781 444.299 148.575 443.728 149.119C443.167 149.672 442.342 149.949 441.254 149.949ZM441.227 145.578C441.754 145.578 442.171 145.402 442.478 145.051C442.794 144.692 442.952 144.183 442.952 143.524C442.952 142.866 442.794 142.362 442.478 142.01C442.171 141.659 441.754 141.484 441.227 141.484C440.692 141.484 440.266 141.659 439.95 142.01C439.634 142.362 439.476 142.866 439.476 143.524C439.476 144.183 439.634 144.692 439.95 145.051C440.266 145.402 440.692 145.578 441.227 145.578ZM449.311 147.131C448.196 147.131 447.323 146.824 446.691 146.21C446.059 145.596 445.743 144.753 445.743 143.682C445.743 142.989 445.879 142.383 446.152 141.866C446.424 141.348 446.801 140.944 447.284 140.655C447.775 140.365 448.346 140.22 448.995 140.22C449.636 140.22 450.171 140.356 450.601 140.628C451.031 140.9 451.356 141.282 451.575 141.774C451.803 142.265 451.917 142.84 451.917 143.498V143.932H447.073V143.064H450.746L450.522 143.248C450.522 142.634 450.39 142.164 450.127 141.839C449.873 141.515 449.5 141.352 449.008 141.352C448.464 141.352 448.043 141.545 447.744 141.932C447.455 142.318 447.31 142.857 447.31 143.551V143.722C447.31 144.441 447.486 144.981 447.837 145.341C448.196 145.692 448.701 145.868 449.35 145.868C449.728 145.868 450.079 145.819 450.404 145.723C450.737 145.618 451.053 145.451 451.351 145.223L451.839 146.328C451.523 146.583 451.145 146.78 450.706 146.921C450.268 147.061 449.802 147.131 449.311 147.131ZM394.765 167.131C393.8 167.131 392.971 166.938 392.277 166.552C391.593 166.157 391.066 165.604 390.698 164.893C390.329 164.174 390.145 163.327 390.145 162.353C390.145 161.379 390.329 160.536 390.698 159.825C391.066 159.114 391.593 158.566 392.277 158.18C392.971 157.785 393.8 157.587 394.765 157.587C395.415 157.587 395.998 157.679 396.516 157.864C397.043 158.048 397.495 158.32 397.872 158.68L397.319 160.023C396.907 159.689 396.507 159.452 396.121 159.312C395.744 159.163 395.309 159.088 394.818 159.088C393.879 159.088 393.159 159.373 392.659 159.944C392.168 160.505 391.922 161.308 391.922 162.353C391.922 163.397 392.168 164.205 392.659 164.775C393.159 165.345 393.879 165.631 394.818 165.631C395.309 165.631 395.744 165.56 396.121 165.42C396.507 165.271 396.907 165.025 397.319 164.683L397.872 166.026C397.495 166.377 397.043 166.649 396.516 166.842C395.998 167.035 395.415 167.131 394.765 167.131ZM401.4 167.131C400.821 167.131 400.312 166.995 399.873 166.723C399.434 166.442 399.092 166.043 398.846 165.525C398.6 165.008 398.478 164.389 398.478 163.669C398.478 162.95 398.6 162.335 398.846 161.826C399.092 161.308 399.434 160.913 399.873 160.641C400.312 160.361 400.821 160.22 401.4 160.22C401.962 160.22 402.453 160.361 402.874 160.641C403.304 160.913 403.59 161.282 403.73 161.747H403.585L403.73 160.352H405.31C405.283 160.624 405.257 160.9 405.231 161.181C405.213 161.462 405.204 161.738 405.204 162.01V167H403.572L403.559 165.631H403.717C403.576 166.087 403.291 166.451 402.861 166.723C402.431 166.995 401.944 167.131 401.4 167.131ZM401.861 165.868C402.379 165.868 402.795 165.688 403.111 165.328C403.427 164.959 403.585 164.406 403.585 163.669C403.585 162.932 403.427 162.383 403.111 162.024C402.795 161.664 402.379 161.484 401.861 161.484C401.343 161.484 400.926 161.664 400.61 162.024C400.294 162.383 400.136 162.932 400.136 163.669C400.136 164.406 400.29 164.959 400.597 165.328C400.913 165.688 401.334 165.868 401.861 165.868ZM406.733 167V162.01C406.733 161.738 406.724 161.462 406.707 161.181C406.689 160.9 406.663 160.624 406.628 160.352H408.221L408.352 161.668H408.194C408.405 161.203 408.716 160.848 409.129 160.602C409.541 160.347 410.02 160.22 410.564 160.22C411.345 160.22 411.933 160.44 412.328 160.878C412.723 161.317 412.92 162.002 412.92 162.932V167H411.275V163.011C411.275 162.476 411.169 162.094 410.959 161.866C410.757 161.629 410.45 161.51 410.037 161.51C409.528 161.51 409.125 161.668 408.826 161.984C408.528 162.3 408.379 162.721 408.379 163.248V167H406.733ZM416.982 167.131C416.403 167.131 415.889 166.995 415.442 166.723C415.003 166.442 414.661 166.043 414.415 165.525C414.169 165.008 414.046 164.389 414.046 163.669C414.046 162.95 414.169 162.335 414.415 161.826C414.661 161.308 415.003 160.913 415.442 160.641C415.889 160.361 416.403 160.22 416.982 160.22C417.535 160.22 418.022 160.356 418.443 160.628C418.873 160.892 419.158 161.251 419.299 161.708H419.128V157.311H420.773V167H419.154V165.591H419.312C419.172 166.065 418.886 166.442 418.456 166.723C418.035 166.995 417.544 167.131 416.982 167.131ZM417.443 165.868C417.961 165.868 418.377 165.688 418.693 165.328C419.009 164.959 419.167 164.406 419.167 163.669C419.167 162.932 419.009 162.383 418.693 162.024C418.377 161.664 417.961 161.484 417.443 161.484C416.925 161.484 416.504 161.664 416.179 162.024C415.863 162.383 415.705 162.932 415.705 163.669C415.705 164.406 415.863 164.959 416.179 165.328C416.504 165.688 416.925 165.868 417.443 165.868ZM422.302 167V160.352H423.947V167H422.302ZM422.21 159.101V157.495H424.04V159.101H422.21ZM428.051 167.131C427.472 167.131 426.959 166.995 426.511 166.723C426.072 166.442 425.73 166.043 425.484 165.525C425.239 165.008 425.116 164.389 425.116 163.669C425.116 162.95 425.239 162.335 425.484 161.826C425.73 161.308 426.072 160.913 426.511 160.641C426.959 160.361 427.472 160.22 428.051 160.22C428.604 160.22 429.091 160.356 429.513 160.628C429.943 160.892 430.228 161.251 430.368 161.708H430.197V157.311H431.843V167H430.223V165.591H430.381C430.241 166.065 429.956 166.442 429.526 166.723C429.104 166.995 428.613 167.131 428.051 167.131ZM428.512 165.868C429.03 165.868 429.447 165.688 429.763 165.328C430.079 164.959 430.237 164.406 430.237 163.669C430.237 162.932 430.079 162.383 429.763 162.024C429.447 161.664 429.03 161.484 428.512 161.484C427.994 161.484 427.573 161.664 427.248 162.024C426.932 162.383 426.774 162.932 426.774 163.669C426.774 164.406 426.932 164.959 427.248 165.328C427.573 165.688 427.994 165.868 428.512 165.868ZM435.938 167.131C435.359 167.131 434.85 166.995 434.411 166.723C433.972 166.442 433.63 166.043 433.384 165.525C433.139 165.008 433.016 164.389 433.016 163.669C433.016 162.95 433.139 162.335 433.384 161.826C433.63 161.308 433.972 160.913 434.411 160.641C434.85 160.361 435.359 160.22 435.938 160.22C436.5 160.22 436.991 160.361 437.413 160.641C437.843 160.913 438.128 161.282 438.268 161.747H438.123L438.268 160.352H439.848C439.822 160.624 439.795 160.9 439.769 161.181C439.751 161.462 439.743 161.738 439.743 162.01V167H438.11L438.097 165.631H438.255C438.115 166.087 437.829 166.451 437.399 166.723C436.969 166.995 436.482 167.131 435.938 167.131ZM436.399 165.868C436.917 165.868 437.334 165.688 437.65 165.328C437.966 164.959 438.123 164.406 438.123 163.669C438.123 162.932 437.966 162.383 437.65 162.024C437.334 161.664 436.917 161.484 436.399 161.484C435.881 161.484 435.464 161.664 435.148 162.024C434.832 162.383 434.674 162.932 434.674 163.669C434.674 164.406 434.828 164.959 435.135 165.328C435.451 165.688 435.872 165.868 436.399 165.868ZM444.115 167.131C443.325 167.131 442.728 166.925 442.324 166.513C441.921 166.1 441.719 165.481 441.719 164.657V161.589H440.442V160.352H441.719V158.654L443.364 158.232V160.352H445.142V161.589H443.364V164.551C443.364 165.008 443.452 165.328 443.628 165.512C443.803 165.696 444.045 165.789 444.352 165.789C444.518 165.789 444.659 165.775 444.773 165.749C444.896 165.723 445.014 165.688 445.128 165.644V166.947C444.979 167.009 444.812 167.052 444.628 167.079C444.453 167.114 444.282 167.131 444.115 167.131ZM449.144 167.131C448.029 167.131 447.156 166.824 446.524 166.21C445.892 165.596 445.576 164.753 445.576 163.682C445.576 162.989 445.712 162.383 445.984 161.866C446.256 161.348 446.634 160.944 447.117 160.655C447.608 160.365 448.178 160.22 448.828 160.22C449.469 160.22 450.004 160.356 450.434 160.628C450.864 160.9 451.189 161.282 451.408 161.774C451.636 162.265 451.75 162.84 451.75 163.498V163.932H446.906V163.064H450.579L450.355 163.248C450.355 162.634 450.223 162.164 449.96 161.839C449.706 161.515 449.333 161.352 448.841 161.352C448.297 161.352 447.876 161.545 447.577 161.932C447.288 162.318 447.143 162.857 447.143 163.551V163.722C447.143 164.441 447.318 164.981 447.669 165.341C448.029 165.692 448.534 165.868 449.183 165.868C449.561 165.868 449.912 165.819 450.236 165.723C450.57 165.618 450.886 165.451 451.184 165.223L451.671 166.328C451.355 166.583 450.978 166.78 450.539 166.921C450.1 167.061 449.635 167.131 449.144 167.131ZM455.25 167.131C454.68 167.131 454.153 167.066 453.67 166.934C453.196 166.794 452.797 166.6 452.472 166.355L452.933 165.249C453.267 165.477 453.635 165.653 454.039 165.775C454.443 165.898 454.851 165.96 455.263 165.96C455.702 165.96 456.027 165.885 456.237 165.736C456.457 165.587 456.567 165.385 456.567 165.13C456.567 164.929 456.496 164.771 456.356 164.657C456.224 164.534 456.009 164.441 455.711 164.38L454.394 164.13C453.833 164.007 453.403 163.796 453.104 163.498C452.815 163.2 452.67 162.809 452.67 162.326C452.67 161.914 452.78 161.55 452.999 161.234C453.227 160.918 453.548 160.672 453.96 160.497C454.381 160.312 454.873 160.22 455.434 160.22C455.926 160.22 456.387 160.286 456.817 160.418C457.255 160.549 457.624 160.747 457.922 161.01L457.449 162.076C457.176 161.857 456.865 161.686 456.514 161.563C456.163 161.44 455.821 161.379 455.487 161.379C455.031 161.379 454.697 161.462 454.487 161.629C454.276 161.787 454.171 161.993 454.171 162.247C454.171 162.441 454.232 162.603 454.355 162.735C454.487 162.857 454.688 162.95 454.961 163.011L456.277 163.261C456.865 163.375 457.308 163.577 457.607 163.867C457.914 164.147 458.067 164.534 458.067 165.025C458.067 165.464 457.949 165.841 457.712 166.157C457.475 166.473 457.146 166.715 456.725 166.881C456.303 167.048 455.812 167.131 455.25 167.131Z" fill="#32325D"/>
</g>
<path d="M160.088 154.779C160.272 154.596 160.272 154.298 160.088 154.115L157.096 151.123C156.912 150.939 156.615 150.939 156.431 151.123C156.247 151.306 156.247 151.604 156.431 151.787L159.091 154.447L156.431 157.107C156.247 157.29 156.247 157.588 156.431 157.772C156.615 157.955 156.912 157.955 157.096 157.772L160.088 154.779ZM135.308 154.917H159.756V153.977H135.308V154.917Z" fill="#D9E0E8"/>
<path d="M358.484 154.779C358.668 154.596 358.668 154.298 358.484 154.115L355.492 151.123C355.309 150.939 355.011 150.939 354.828 151.123C354.644 151.306 354.644 151.604 354.828 151.787L357.487 154.447L354.828 157.107C354.644 157.29 354.644 157.588 354.828 157.772C355.011 157.955 355.309 157.955 355.492 157.772L358.484 154.779ZM333.704 154.917H358.152V153.977H333.704V154.917Z" fill="#D9E0E8"/>
<g filter="url(#filter4_d_114_1990)">
<rect x="374" width="197.764" height="52.1303" rx="3.30986" fill="#4C81DD"/>
</g>
<path d="M433.671 31.8943L430.007 21.3938H431.303L434.505 30.8517H433.984L437.35 21.3938H438.333L441.52 30.8517H441.044L444.335 21.3938H445.557L441.863 31.8943H440.761L437.663 22.7939H437.976L434.744 31.8943H433.671ZM446.947 31.8943V20.9321H448.153V26.0707H447.959C448.168 25.4848 448.515 25.0429 449.002 24.7451C449.498 24.4372 450.069 24.2833 450.715 24.2833C451.608 24.2833 452.274 24.5266 452.711 25.0132C453.148 25.4898 453.366 26.2146 453.366 27.1877V31.8943H452.16V27.2622C452.16 26.5671 452.021 26.0607 451.743 25.743C451.474 25.4252 451.038 25.2664 450.432 25.2664C449.737 25.2664 449.181 25.4798 448.764 25.9068C448.357 26.3338 448.153 26.8948 448.153 27.5899V31.8943H446.947ZM455.376 31.8943V24.4174H456.582V31.8943H455.376ZM455.227 22.7194V21.364H456.716V22.7194H455.227ZM461.278 32.0284C460.543 32.0284 459.982 31.8199 459.595 31.4028C459.208 30.9759 459.014 30.3354 459.014 29.4815V25.3557H457.555V24.4174H459.014V22.3768L460.221 22.0343V24.4174H462.365V25.3557H460.221V29.3474C460.221 29.9432 460.32 30.3702 460.519 30.6283C460.727 30.8766 461.035 31.0007 461.442 31.0007C461.631 31.0007 461.799 30.9858 461.948 30.956C462.097 30.9163 462.231 30.8716 462.351 30.822V31.8348C462.212 31.8943 462.043 31.939 461.844 31.9688C461.655 32.0085 461.467 32.0284 461.278 32.0284ZM466.785 32.0284C465.613 32.0284 464.69 31.6908 464.015 31.0156C463.339 30.3304 463.002 29.3822 463.002 28.1708C463.002 27.3863 463.151 26.7061 463.449 26.1302C463.747 25.5444 464.164 25.0926 464.7 24.7748C465.236 24.4472 465.852 24.2833 466.547 24.2833C467.232 24.2833 467.808 24.4273 468.274 24.7153C468.741 25.0032 469.099 25.4153 469.347 25.9515C469.595 26.4778 469.719 27.1033 469.719 27.8282V28.275H463.925V27.5154H468.93L468.677 27.709C468.677 26.9147 468.498 26.2941 468.14 25.8472C467.783 25.4004 467.252 25.177 466.547 25.177C465.802 25.177 465.221 25.4401 464.804 25.9664C464.387 26.4827 464.179 27.1828 464.179 28.0665V28.2005C464.179 29.1339 464.407 29.8439 464.864 30.3304C465.33 30.8071 465.981 31.0454 466.815 31.0454C467.262 31.0454 467.679 30.9808 468.066 30.8517C468.463 30.7127 468.84 30.4893 469.198 30.1815L469.615 31.0305C469.287 31.3482 468.87 31.5965 468.364 31.7752C467.867 31.944 467.341 32.0284 466.785 32.0284ZM475.021 32.0284C474.346 32.0284 473.765 31.8596 473.278 31.522C472.792 31.1745 472.464 30.7028 472.295 30.107H472.459V31.8943H471.267V20.9321H472.474V26.16H472.295C472.464 25.5841 472.792 25.1273 473.278 24.7897C473.765 24.4521 474.346 24.2833 475.021 24.2833C475.696 24.2833 476.277 24.4422 476.763 24.7599C477.26 25.0678 477.642 25.5096 477.91 26.0855C478.188 26.6615 478.327 27.3516 478.327 28.1559C478.327 28.9602 478.188 29.6503 477.91 30.2262C477.632 30.8021 477.245 31.2489 476.749 31.5667C476.262 31.8745 475.686 32.0284 475.021 32.0284ZM474.768 31.0454C475.473 31.0454 476.039 30.8021 476.466 30.3155C476.893 29.829 477.106 29.1091 477.106 28.1559C477.106 27.2026 476.893 26.4827 476.466 25.9962C476.039 25.4997 475.473 25.2515 474.768 25.2515C474.063 25.2515 473.497 25.4997 473.07 25.9962C472.653 26.4827 472.444 27.2026 472.444 28.1559C472.444 29.0992 472.653 29.8191 473.07 30.3155C473.497 30.8021 474.063 31.0454 474.768 31.0454ZM482.969 32.0284C482.254 32.0284 481.628 31.8745 481.092 31.5667C480.566 31.2489 480.158 30.8021 479.871 30.2262C479.583 29.6403 479.439 28.9502 479.439 28.1559C479.439 27.3516 479.583 26.6615 479.871 26.0855C480.158 25.5096 480.566 25.0678 481.092 24.7599C481.628 24.4422 482.254 24.2833 482.969 24.2833C483.693 24.2833 484.319 24.4422 484.845 24.7599C485.381 25.0678 485.794 25.5096 486.081 26.0855C486.379 26.6615 486.528 27.3516 486.528 28.1559C486.528 28.9502 486.379 29.6403 486.081 30.2262C485.794 30.8021 485.381 31.2489 484.845 31.5667C484.319 31.8745 483.693 32.0284 482.969 32.0284ZM482.969 31.0454C483.683 31.0454 484.249 30.8021 484.667 30.3155C485.084 29.8191 485.292 29.0992 485.292 28.1559C485.292 27.2026 485.079 26.4827 484.652 25.9962C484.235 25.4997 483.674 25.2515 482.969 25.2515C482.264 25.2515 481.703 25.4997 481.285 25.9962C480.868 26.4827 480.66 27.2026 480.66 28.1559C480.66 29.0992 480.868 29.8191 481.285 30.3155C481.703 30.8021 482.264 31.0454 482.969 31.0454ZM490.956 32.0284C490.291 32.0284 489.71 31.8745 489.214 31.5667C488.717 31.2489 488.33 30.8021 488.052 30.2262C487.784 29.6503 487.65 28.9602 487.65 28.1559C487.65 27.3416 487.784 26.6466 488.052 26.0707C488.33 25.4947 488.717 25.0529 489.214 24.7451C489.71 24.4372 490.291 24.2833 490.956 24.2833C491.631 24.2833 492.212 24.4571 492.699 24.8046C493.195 25.1422 493.523 25.604 493.682 26.1898H493.503L493.667 24.4174H494.829C494.799 24.7053 494.769 24.9983 494.739 25.2961C494.72 25.5841 494.71 25.8671 494.71 26.1451V31.8943H493.503V30.1368H493.667C493.508 30.7227 493.18 31.1844 492.684 31.522C492.188 31.8596 491.612 32.0284 490.956 32.0284ZM491.195 31.0454C491.909 31.0454 492.475 30.8021 492.893 30.3155C493.31 29.8191 493.518 29.0992 493.518 28.1559C493.518 27.2026 493.31 26.4827 492.893 25.9962C492.475 25.4997 491.909 25.2515 491.195 25.2515C490.49 25.2515 489.924 25.4997 489.497 25.9962C489.08 26.4827 488.871 27.2026 488.871 28.1559C488.871 29.0992 489.08 29.8191 489.497 30.3155C489.924 30.8021 490.49 31.0454 491.195 31.0454ZM496.715 31.8943V26.2196C496.715 25.9217 496.705 25.6189 496.685 25.311C496.675 25.0032 496.655 24.7053 496.625 24.4174H497.787L497.936 26.2345L497.727 26.2494C497.827 25.8026 498 25.4352 498.249 25.1472C498.497 24.8592 498.79 24.6458 499.127 24.5067C499.465 24.3578 499.818 24.2833 500.185 24.2833C500.334 24.2833 500.463 24.2883 500.572 24.2982C500.691 24.3082 500.801 24.333 500.9 24.3727L500.885 25.4451C500.736 25.3954 500.597 25.3657 500.468 25.3557C500.349 25.3359 500.21 25.3259 500.051 25.3259C499.614 25.3259 499.232 25.4302 498.904 25.6387C498.586 25.8472 498.343 26.1153 498.174 26.443C498.015 26.7707 497.936 27.1182 497.936 27.4856V31.8943H496.715ZM504.6 32.0284C503.945 32.0284 503.369 31.8745 502.872 31.5667C502.376 31.2489 501.988 30.8021 501.71 30.2262C501.442 29.6503 501.308 28.9602 501.308 28.1559C501.308 27.3416 501.442 26.6466 501.71 26.0707C501.988 25.4947 502.376 25.0529 502.872 24.7451C503.369 24.4372 503.945 24.2833 504.6 24.2833C505.275 24.2833 505.856 24.4521 506.343 24.7897C506.839 25.1273 507.172 25.5841 507.341 26.16H507.162V20.9321H508.368V31.8943H507.177V30.107H507.341C507.182 30.7028 506.854 31.1745 506.357 31.522C505.861 31.8596 505.275 32.0284 504.6 32.0284ZM504.853 31.0454C505.558 31.0454 506.124 30.8021 506.551 30.3155C506.978 29.8191 507.192 29.0992 507.192 28.1559C507.192 27.2026 506.978 26.4827 506.551 25.9962C506.124 25.4997 505.558 25.2515 504.853 25.2515C504.148 25.2515 503.582 25.4997 503.155 25.9962C502.738 26.4827 502.53 27.2026 502.53 28.1559C502.53 29.0992 502.738 29.8191 503.155 30.3155C503.582 30.8021 504.148 31.0454 504.853 31.0454ZM513.989 31.8943V26.1451C513.989 25.8671 513.974 25.5841 513.944 25.2961C513.924 24.9983 513.899 24.7053 513.869 24.4174H515.031L515.18 26.0558H515.001C515.2 25.4898 515.513 25.0529 515.94 24.7451C516.377 24.4372 516.903 24.2833 517.519 24.2833C518.144 24.2833 518.651 24.4323 519.038 24.7302C519.435 25.028 519.703 25.4898 519.842 26.1153H519.619C519.807 25.5493 520.14 25.1025 520.617 24.7748C521.093 24.4472 521.649 24.2833 522.285 24.2833C523.109 24.2833 523.73 24.5216 524.147 24.9983C524.564 25.4649 524.772 26.2047 524.772 27.2175V31.8943H523.566V27.292C523.566 26.587 523.442 26.0756 523.193 25.7579C522.945 25.4302 522.548 25.2664 522.002 25.2664C521.376 25.2664 520.88 25.4848 520.512 25.9217C520.155 26.3487 519.976 26.9246 519.976 27.6495V31.8943H518.77V27.292C518.77 26.587 518.646 26.0756 518.397 25.7579C518.149 25.4302 517.752 25.2664 517.206 25.2664C516.58 25.2664 516.089 25.4848 515.731 25.9217C515.374 26.3487 515.195 26.9246 515.195 27.6495V31.8943H513.989ZM529.835 32.0284C529.12 32.0284 528.495 31.8745 527.959 31.5667C527.432 31.2489 527.025 30.8021 526.737 30.2262C526.449 29.6403 526.305 28.9502 526.305 28.1559C526.305 27.3516 526.449 26.6615 526.737 26.0855C527.025 25.5096 527.432 25.0678 527.959 24.7599C528.495 24.4422 529.12 24.2833 529.835 24.2833C530.56 24.2833 531.186 24.4422 531.712 24.7599C532.248 25.0678 532.66 25.5096 532.948 26.0855C533.246 26.6615 533.395 27.3516 533.395 28.1559C533.395 28.9502 533.246 29.6403 532.948 30.2262C532.66 30.8021 532.248 31.2489 531.712 31.5667C531.186 31.8745 530.56 32.0284 529.835 32.0284ZM529.835 31.0454C530.55 31.0454 531.116 30.8021 531.533 30.3155C531.95 29.8191 532.159 29.0992 532.159 28.1559C532.159 27.2026 531.945 26.4827 531.518 25.9962C531.101 25.4997 530.54 25.2515 529.835 25.2515C529.13 25.2515 528.569 25.4997 528.152 25.9962C527.735 26.4827 527.527 27.2026 527.527 28.1559C527.527 29.0992 527.735 29.8191 528.152 30.3155C528.569 30.8021 529.13 31.0454 529.835 31.0454ZM537.808 32.0284C537.153 32.0284 536.577 31.8745 536.08 31.5667C535.584 31.2489 535.197 30.8021 534.918 30.2262C534.65 29.6503 534.516 28.9602 534.516 28.1559C534.516 27.3416 534.65 26.6466 534.918 26.0707C535.197 25.4947 535.584 25.0529 536.08 24.7451C536.577 24.4372 537.153 24.2833 537.808 24.2833C538.483 24.2833 539.064 24.4521 539.551 24.7897C540.047 25.1273 540.38 25.5841 540.549 26.16H540.37V20.9321H541.576V31.8943H540.385V30.107H540.549C540.39 30.7028 540.062 31.1745 539.566 31.522C539.069 31.8596 538.483 32.0284 537.808 32.0284ZM538.061 31.0454C538.766 31.0454 539.332 30.8021 539.759 30.3155C540.186 29.8191 540.4 29.0992 540.4 28.1559C540.4 27.2026 540.186 26.4827 539.759 25.9962C539.332 25.4997 538.766 25.2515 538.061 25.2515C537.356 25.2515 536.79 25.4997 536.363 25.9962C535.946 26.4827 535.738 27.2026 535.738 28.1559C535.738 29.0992 535.946 29.8191 536.363 30.3155C536.79 30.8021 537.356 31.0454 538.061 31.0454ZM546.932 32.0284C545.761 32.0284 544.837 31.6908 544.162 31.0156C543.487 30.3304 543.149 29.3822 543.149 28.1708C543.149 27.3863 543.298 26.7061 543.596 26.1302C543.894 25.5444 544.311 25.0926 544.847 24.7748C545.383 24.4472 545.999 24.2833 546.694 24.2833C547.379 24.2833 547.955 24.4273 548.422 24.7153C548.889 25.0032 549.246 25.4153 549.494 25.9515C549.742 26.4778 549.867 27.1033 549.867 27.8282V28.275H544.073V27.5154H549.077L548.824 27.709C548.824 26.9147 548.645 26.2941 548.288 25.8472C547.93 25.4004 547.399 25.177 546.694 25.177C545.949 25.177 545.369 25.4401 544.951 25.9664C544.534 26.4827 544.326 27.1828 544.326 28.0665V28.2005C544.326 29.1339 544.554 29.8439 545.011 30.3304C545.478 30.8071 546.128 31.0454 546.962 31.0454C547.409 31.0454 547.826 30.9808 548.213 30.8517C548.611 30.7127 548.988 30.4893 549.345 30.1815L549.762 31.0305C549.435 31.3482 549.018 31.5965 548.511 31.7752C548.015 31.944 547.488 32.0284 546.932 32.0284Z" fill="white"/>
<rect x="386.412" y="11.5845" width="28.7208" height="28.7208" rx="2.07121" fill="#F6F9FC"/>
<path d="M394.245 30.5144V33.7776H397.508L407.133 24.1532L403.87 20.8899L394.245 30.5144ZM409.656 21.6296C409.996 21.2902 409.996 20.742 409.656 20.4026L407.62 18.3663C407.281 18.0269 406.733 18.0269 406.393 18.3663L404.801 19.9588L408.064 23.222L409.656 21.6296Z" fill="#4C81DD"/>
<path d="M251 206L257.667 225L262.111 216.556L271 212.333L251 206Z" fill="#D9E0E8"/>
<mask id="mask0_114_1990" style="mask-type:alpha" maskUnits="userSpaceOnUse" x="29" y="123" width="224" height="133">
<rect x="29" y="123" width="224" height="133" fill="#C4C4C4"/>
</mask>
<g mask="url(#mask0_114_1990)">
<mask id="mask1_114_1990" style="mask-type:alpha" maskUnits="userSpaceOnUse" x="108" y="157" width="145" height="121">
<rect x="108.994" y="218.976" width="126.411" height="67.3043" transform="rotate(-29.2252 108.994 218.976)" fill="#C4C4C4"/>
</mask>
<g mask="url(#mask1_114_1990)">
<path fill-rule="evenodd" clip-rule="evenodd" d="M-101.337 366.042L-97.3554 364.917C-93.3735 363.792 -85.4097 361.542 -78.2106 355.063C-71.5155 348.323 -65.9832 337.466 -59.8167 328.854C-53.6501 320.243 -46.5568 313.39 -41.6589 300.288C-36.7609 287.186 -33.6603 267.723 -25.8269 263.489C-18.4974 258.994 -6.93911 269.467 4.09058 278.069C15.1203 286.672 25.9138 292.916 35.6749 297.028C45.5416 301.513 54.6684 303.38 59.0377 288.407C63.6995 272.947 63.0999 240.386 66.2006 220.923C69.3013 201.459 76.1021 195.093 89.3273 209.944C102.154 224.908 121.113 261.576 130.24 263.442C139.87 265.57 139.271 233.009 143.006 215.791C146.635 198.199 154.599 195.949 166.661 206.684C178.219 217.157 193.584 241.102 202.076 240.723C210.674 240.718 212.904 216.651 219.071 208.04C225.237 199.429 235.633 205.785 244.231 205.781C253.121 205.289 259.922 198.923 265.455 188.067C270.987 177.21 275.649 161.75 285.515 166.236C295.276 170.348 310.535 193.918 317.864 189.423C325.592 184.815 325.098 152.629 324.746 136.161L324.499 120.068L361.078 249.544L357.096 250.669C353.114 251.794 345.15 254.044 336.788 256.406C328.825 258.656 320.861 260.906 312.897 263.156C304.933 265.406 296.571 267.768 288.607 270.018C280.644 272.268 272.68 274.518 264.318 276.88C256.354 279.13 248.39 281.38 240.426 283.63C232.463 285.88 224.101 288.242 216.137 290.492C208.173 292.742 200.209 294.992 192.245 297.242C183.883 299.604 175.92 301.854 167.956 304.104C159.992 306.354 152.028 308.604 143.666 310.967C135.702 313.216 127.739 315.466 119.775 317.716C111.413 320.079 103.449 322.329 95.4851 324.578C87.5213 326.828 79.5575 329.078 71.1955 331.441C63.2317 333.691 55.2679 335.941 47.3041 338.19C39.3403 340.44 30.9783 342.803 23.0145 345.053C15.0507 347.303 7.08691 349.553 -0.876896 351.802C-9.23889 354.165 -17.2027 356.415 -25.1665 358.665C-33.1303 360.915 -41.4923 363.277 -49.4561 365.527C-57.4199 367.777 -65.3837 370.027 -73.3475 372.277C-81.7095 374.639 -89.6733 376.889 -93.6552 378.014L-97.6371 379.139L-101.337 366.042Z" stroke="#D9E0E8" stroke-width="3"/>
</g>
</g>
<defs>
<filter id="filter0_d_114_1990" x="11.9087" y="14.3418" width="474.338" height="274.053" filterUnits="userSpaceOnUse" color-interpolation-filters="sRGB">
<feFlood flood-opacity="0" result="BackgroundImageFix"/>
<feColorMatrix in="SourceAlpha" type="matrix" values="0 0 0 0 0 0 0 0 0 0 0 0 0 0 0 0 0 0 127 0" result="hardAlpha"/>
<feOffset dy="16.1973"/>
<feGaussianBlur stdDeviation="8.09863"/>
<feColorMatrix type="matrix" values="0 0 0 0 0.196078 0 0 0 0 0.196078 0 0 0 0 0.364706 0 0 0 0.12 0"/>
<feBlend mode="normal" in2="BackgroundImageFix" result="effect1_dropShadow_114_1990"/>
<feBlend mode="normal" in="SourceGraphic" in2="effect1_dropShadow_114_1990" result="shape"/>
</filter>
<filter id="filter1_d_114_1990" x="0.812534" y="90.7896" width="140.159" height="142.264" filterUnits="userSpaceOnUse" color-interpolation-filters="sRGB">
<feFlood flood-opacity="0" result="BackgroundImageFix"/>
<feColorMatrix in="SourceAlpha" type="matrix" values="0 0 0 0 0 0 0 0 0 0 0 0 0 0 0 0 0 0 127 0" result="hardAlpha"/>
<feOffset dy="7"/>
<feGaussianBlur stdDeviation="7.52244"/>
<feColorMatrix type="matrix" values="0 0 0 0 0.196078 0 0 0 0 0.196078 0 0 0 0 0.364706 0 0 0 0.12 0"/>
<feBlend mode="normal" in2="BackgroundImageFix" result="effect1_dropShadow_114_1990"/>
<feBlend mode="normal" in="SourceGraphic" in2="effect1_dropShadow_114_1990" result="shape"/>
</filter>
<filter id="filter2_d_114_1990" x="152.225" y="117.253" width="189.001" height="82.7469" filterUnits="userSpaceOnUse" color-interpolation-filters="sRGB">
<feFlood flood-opacity="0" result="BackgroundImageFix"/>
<feColorMatrix in="SourceAlpha" type="matrix" values="0 0 0 0 0 0 0 0 0 0 0 0 0 0 0 0 0 0 127 0" result="hardAlpha"/>
<feOffset dy="7"/>
<feGaussianBlur stdDeviation="7.52244"/>
<feColorMatrix type="matrix" values="0 0 0 0 0.196078 0 0 0 0 0.196078 0 0 0 0 0.364706 0 0 0 0.12 0"/>
<feBlend mode="normal" in2="BackgroundImageFix" result="effect1_dropShadow_114_1990"/>
<feBlend mode="normal" in="SourceGraphic" in2="effect1_dropShadow_114_1990" result="shape"/>
</filter>
<filter id="filter3_d_114_1990" x="350.63" y="85.2825" width="146.687" height="146.688" filterUnits="userSpaceOnUse" color-interpolation-filters="sRGB">
<feFlood flood-opacity="0" result="BackgroundImageFix"/>
<feColorMatrix in="SourceAlpha" type="matrix" values="0 0 0 0 0 0 0 0 0 0 0 0 0 0 0 0 0 0 127 0" result="hardAlpha"/>
<feOffset dy="7"/>
<feGaussianBlur stdDeviation="7.52244"/>
<feColorMatrix type="matrix" values="0 0 0 0 0.196078 0 0 0 0 0.196078 0 0 0 0 0.364706 0 0 0 0.12 0"/>
<feBlend mode="normal" in2="BackgroundImageFix" result="effect1_dropShadow_114_1990"/>
<feBlend mode="normal" in="SourceGraphic" in2="effect1_dropShadow_114_1990" result="shape"/>
</filter>
<filter id="filter4_d_114_1990" x="358" y="0" width="229.764" height="84.1303" filterUnits="userSpaceOnUse" color-interpolation-filters="sRGB">
<feFlood flood-opacity="0" result="BackgroundImageFix"/>
<feColorMatrix in="SourceAlpha" type="matrix" values="0 0 0 0 0 0 0 0 0 0 0 0 0 0 0 0 0 0 127 0" result="hardAlpha"/>
<feOffset dy="16"/>
<feGaussianBlur stdDeviation="8"/>
<feColorMatrix type="matrix" values="0 0 0 0 0.196078 0 0 0 0 0.196078 0 0 0 0 0.364706 0 0 0 0.12 0"/>
<feBlend mode="normal" in2="BackgroundImageFix" result="effect1_dropShadow_114_1990"/>
<feBlend mode="normal" in="SourceGraphic" in2="effect1_dropShadow_114_1990" result="shape"/>
</filter>
</defs>
</svg>
