<?xml version="1.0" encoding="utf-8"?>
<!-- Generator: Adobe Illustrator 21.1.0, SVG Export Plug-In . SVG Version: 6.00 Build 0)  -->
<svg version="1.1" id="Layer_1" xmlns="http://www.w3.org/2000/svg" xmlns:xlink="http://www.w3.org/1999/xlink" x="0px" y="0px"
	 width="139.4px" height="57px" viewBox="0 0 139.4 57" style="enable-background:new 0 0 139.4 57;" xml:space="preserve">
<style type="text/css">
	.st0{fill:#333333;}
</style>
<path class="st0" d="M73.2,0c5.1-0.2,10.3,0.6,15.1,2.3c7.3,2.5,13.7,7.2,18.5,13.2c2.1,2.6,3.8,5.5,5.2,8.6
	c0.2,0.5,0.4,1.1,0.3,1.7c-0.2,1-1,1.7-2,1.8c-1,0.1-2-0.5-2.4-1.4c-2.7-6.4-7.4-11.9-13.2-15.8c-3.6-2.4-7.6-4.1-11.8-5.1
	c-5.4-1.3-11.1-1.3-16.5,0c-7.7,1.8-14.8,6.2-19.8,12.3c-2.1,2.6-3.9,5.5-5.2,8.5c-0.3,0.7-0.9,1.3-1.7,1.4
	c-0.7,0.1-1.5-0.1-2.1-0.7c-0.6-0.6-0.8-1.6-0.5-2.4c3.6-8.5,10.4-15.7,18.6-20C61.1,1.8,67.1,0.2,73.2,0"/>
<path class="st0" d="M66.4,26.3c0-0.4,0.4-0.8,0.8-0.8c0.5,0,1.1,0,1.6,0c0.4,0,0.8,0.3,0.8,0.7c0,5,0,9.9,0,14.9
	c2-2.2,4.1-4.5,6.1-6.7c0.4-0.4,0.7-1,1.3-1c0.8,0,1.7,0,2.5,0c0.3,0,0.7,0.3,0.6,0.6c-0.1,0.3-0.4,0.4-0.6,0.7
	c-2.2,2.2-4.4,4.4-6.6,6.5c2.1,2.4,4.2,4.8,6.3,7.2c0.3,0.3,0.6,0.6,0.8,1c0.2,0.3-0.1,0.7-0.4,0.7c-0.7,0-1.4,0-2.1,0
	c-0.4,0-0.8,0-1.1-0.1c-0.3-0.2-0.6-0.6-0.8-0.9c-2-2.5-4-5.1-6.1-7.6c0,2.5,0,5,0,7.5c0,0.3,0.1,0.6-0.2,0.8
	c-0.4,0.4-1,0.3-1.5,0.3c-0.4,0-1,0.1-1.3-0.2c-0.2-0.2-0.3-0.4-0.2-0.7C66.4,41.6,66.4,34,66.4,26.3"/>
<path class="st0" d="M57.2,33.3c1-0.3,2.2-0.4,3.2,0c0.3,0.2,0.8,0.5,0.6,0.9c-0.2,0.5-0.3,1.1-0.5,1.6c-0.1,0.4-0.6,0.5-1,0.4
	C58.7,36.2,57.8,36,57,36c-0.6,0-1.2,0.3-1.6,0.7c-0.7,0.6-1,1.5-1.2,2.4c-0.1,0.6-0.1,1.3-0.1,2c0,2.7,0,5.5,0,8.2
	c0,0.5-0.4,0.8-0.8,0.8c-0.6,0-1.1,0-1.7,0c-0.4,0-0.9-0.3-0.8-0.8c0-5.1,0-10.1,0-15.2c0-0.5,0.5-0.8,1-0.7c0.6,0,1.3-0.2,1.7,0.4
	c0.3,0.6,0.4,1.3,0.7,2C54.9,34.7,55.9,33.8,57.2,33.3"/>
<path class="st0" d="M0,33.7c0.2-0.2,0.3-0.4,0.6-0.4c0.8,0,1.5,0,2.3,0c0.4,0,0.7,0.3,0.7,0.7c0.7,3,1.5,6.1,2.2,9.1
	C6,44.1,6.3,45.1,6.4,46c0.1,0.9,0.2,1.7,0.3,2.6c0.2-1.2,0.4-2.5,0.7-3.6c1-3.6,1.9-7.2,2.9-10.8c0.1-0.4,0.5-0.7,0.9-0.7
	c0.8,0,1.7,0,2.5,0c0.5,0,0.9,0.2,1,0.7c0.7,2.6,1.4,5.3,2.2,7.9c0.4,1.7,1,3.4,1.3,5.1c0.1,0.5,0.1,1,0.2,1.4
	c0.3-2.8,1-5.4,1.6-8.1c0.5-2.1,1-4.3,1.4-6.4c0.1-0.4,0.5-0.6,0.9-0.6c0.7,0,1.4,0,2.1,0c0.4,0,0.6,0.5,0.5,0.8
	c-1.4,5-2.7,10.1-4.1,15.1c-0.1,0.4-0.4,0.7-0.8,0.7c-1.1,0-2.1,0-3.2,0c-0.4,0-0.8-0.2-0.8-0.6c-1-3.5-1.9-7-2.8-10.4
	c-0.3-1.2-0.5-2.5-0.6-3.7c-0.2,1.1-0.3,2.2-0.6,3.3c-1,3.6-1.9,7.2-2.9,10.7C9,50,8.3,50.1,7.9,50.1c-1,0-2,0-3,0
	c-0.4,0-0.6-0.3-0.7-0.6c-1.4-5-2.8-10.1-4.2-15.1C0,34.2,0,34,0,33.7z"/>
<path class="st0" d="M124.5,33.4c0.7,0,1.4,0,2.2,0c0.4,0,0.9,0.3,1,0.7c1.2,3.2,2.5,6.5,3.7,9.7c0.3,0.7,0.4,1.3,0.6,2
	c0.5-1.9,1.2-3.8,1.8-5.7c0.7-2.1,1.3-4.1,2-6.2c0.1-0.4,0.4-0.6,0.8-0.6c0.6,0,1.2,0,1.8,0c0.3,0,0.8,0,1,0.2
	c0.2,0.1,0.1,0.4,0.1,0.6c-2,5.6-4,11.3-6,16.9c-0.3,0.9-0.6,1.9-1.2,2.8c-0.8,1.3-2.1,2.2-3.5,2.7c-0.5,0.2-1,0.5-1.5,0.3
	c-0.4-0.1-0.5-0.5-0.7-0.8c-0.1-0.3-0.4-0.5-0.4-0.8c0-0.3,0.3-0.6,0.6-0.7c0.6-0.2,1.2-0.4,1.7-0.9c1.2-1,1.9-2.5,2.2-4
	c-0.2-0.7-0.5-1.3-0.8-1.9c-1.9-4.4-3.8-8.8-5.7-13.2c-0.1-0.3-0.3-0.6-0.3-0.9C123.8,33.6,124.2,33.4,124.5,33.4"/>
<path class="st0" d="M36.5,33.1c1.9-0.1,3.8,0.3,5.4,1.4c1.4,1,2.3,2.5,2.8,4.1c0.5,1.9,0.5,4,0,5.9c-0.4,1.8-1.5,3.5-3.1,4.5
	c-1.7,1.1-3.8,1.4-5.8,1.2c-1.7-0.2-3.3-0.9-4.5-2.2c-1.4-1.4-2.1-3.4-2.2-5.4c-0.2-2.2,0.2-4.5,1.4-6.3c0.9-1.4,2.3-2.4,3.9-2.9
	C35.1,33.3,35.8,33.2,36.5,33.1 M36.1,35.5c-1,0.2-2,0.8-2.5,1.7c-0.9,1.5-1,3.3-0.9,4.9c0.1,1.5,0.3,3.1,1.3,4.4
	c0.7,0.9,1.9,1.4,3.1,1.4c1.1,0,2.3-0.3,3-1.2c1-1.1,1.3-2.5,1.4-3.9c0.1-1.4,0.1-2.7-0.3-4.1c-0.3-1.1-0.9-2.2-1.9-2.8
	C38.3,35.4,37.1,35.4,36.1,35.5z"/>
<path class="st0" d="M96.1,26.1c0-0.4,0.4-0.6,0.7-0.7c0.6,0,1.1,0,1.7,0c0.4,0,0.9,0.3,0.8,0.8c0,7.7,0,15.3,0,23
	c0,0.4-0.4,0.7-0.7,0.7c-0.4,0-0.9,0-1.3,0c-0.3,0-0.6-0.2-0.7-0.5c-0.2-0.5-0.3-1-0.4-1.5c-0.6,0.8-1.4,1.6-2.4,1.9
	c-1.4,0.5-3,0.5-4.4,0.2c-1.4-0.3-2.7-1.3-3.4-2.6c-1.1-2-1.2-4.3-1.2-6.6c0-1.9,0.4-3.9,1.6-5.4c0.9-1.3,2.5-2,4-2.2
	c1.4-0.2,3,0,4.2,0.9c0.6,0.4,1,0.9,1.4,1.5C96.1,32.4,96.1,29.3,96.1,26.1 M91.7,35.4c-1,0.1-2,0.7-2.5,1.6
	c-0.9,1.7-0.9,3.7-0.9,5.6c0.1,1.2,0.2,2.5,0.8,3.6c0.4,0.8,1.1,1.3,1.9,1.5c1.3,0.3,2.8,0,3.7-1c0.9-1,1.2-2.4,1.3-3.6
	c0.1-1.5,0.1-3-0.3-4.4c-0.3-1-0.7-1.9-1.4-2.6C93.7,35.6,92.7,35.3,91.7,35.4z"/>
<path class="st0" d="M110.2,33.4c1.5-0.4,3.1-0.4,4.6-0.1c1.4,0.3,2.7,1.1,3.5,2.2c0.9,1.2,1.4,2.6,1.5,4.1c0.2,1.1,0.1,2.3,0.1,3.4
	c0,2,0,4.1,0,6.1c0,0.2-0.1,0.5-0.3,0.6c-0.3,0.2-0.8,0.1-1.2,0.1c-0.4,0-1,0-1.2-0.4c-0.2-0.5-0.3-1.1-0.4-1.7
	c-0.6,0.7-1.2,1.4-2,1.8c-1.3,0.6-2.8,0.6-4.1,0.3c-1.7-0.3-3.2-1.3-4.2-2.7c-1.1-1.6-1.5-3.7-1.5-5.7c0-1.9,0.4-3.9,1.4-5.5
	C107.3,34.8,108.7,33.8,110.2,33.4 M111.7,35.5c-0.5,0.1-1,0.3-1.4,0.6c-0.8,0.6-1.2,1.7-1.5,2.7c-0.3,1.6-0.3,3.2-0.2,4.8
	c0.2,1.2,0.5,2.4,1.3,3.3c0.7,0.7,1.8,1,2.8,1c1.1,0,2.2-0.4,2.9-1.2c0.9-1,1.1-2.4,1.2-3.7c0.1-1.5,0.1-3.1-0.4-4.6
	c-0.3-0.9-0.8-1.8-1.6-2.4C113.9,35.4,112.7,35.4,111.7,35.5z"/>
</svg>
