<svg width="53" height="53" viewBox="0 0 53 53" fill="none" xmlns="http://www.w3.org/2000/svg">
<path d="M27.9356 34.6046C28.2447 33.8096 28.046 32.9042 27.4277 32.2858L22.8122 27.7367L22.8785 27.6704C26.721 23.3862 29.4593 18.4617 31.0714 13.25H35.3556C36.5481 13.25 37.5418 12.2562 37.5418 11.0637V11.0196C37.5418 9.82707 36.5481 8.83332 35.3556 8.83332H22.0835V6.62499C22.0835 5.41041 21.0897 4.41666 19.8752 4.41666C18.6606 4.41666 17.6668 5.41041 17.6668 6.62499V8.83332H4.39475C3.20225 8.83332 2.2085 9.82707 2.2085 11.0196C2.2085 12.2342 3.20225 13.2058 4.39475 13.2058H26.8756C25.396 17.49 23.0552 21.5312 19.8752 25.0646C18.0864 23.0992 16.5847 20.9571 15.326 18.7046C14.9727 18.0642 14.3322 17.6667 13.6035 17.6667C12.0797 17.6667 11.1081 19.3229 11.8589 20.6479C13.2502 23.1433 14.9506 25.5283 16.9381 27.7367L7.28766 37.2546C6.40433 38.1158 6.40433 39.5292 7.28766 40.3904C8.14891 41.2517 9.54016 41.2517 10.4235 40.3904L19.8752 30.9167L24.336 35.3775C25.4622 36.5037 27.3835 36.0842 27.9356 34.6046ZM38.646 22.0833C37.321 22.0833 36.1285 22.9004 35.6647 24.1592L27.5602 45.8008C27.0302 47.1479 28.046 48.5833 29.4814 48.5833C30.3427 48.5833 31.1156 48.0533 31.4247 47.2362L33.3902 41.9583H43.8797L45.8672 47.2362C46.1764 48.0312 46.9493 48.5833 47.8106 48.5833C49.246 48.5833 50.2618 47.1479 49.7539 45.8008L41.6493 24.1592C41.1635 22.9004 39.971 22.0833 38.646 22.0833ZM35.0685 37.5417L38.646 27.9796L42.2235 37.5417H35.0685Z" fill="#32325D"/>
</svg>
