<?xml version="1.0" encoding="utf-8"?>
<!-- Generator: Adobe Illustrator 21.1.0, SVG Export Plug-In . SVG Version: 6.00 Build 0)  -->
<svg version="1.1" id="Layer_1" xmlns="http://www.w3.org/2000/svg" xmlns:xlink="http://www.w3.org/1999/xlink" x="0px" y="0px"
	 width="115px" height="47px" viewBox="0 0 115 47" style="enable-background:new 0 0 115 47;" xml:space="preserve">
<style type="text/css">
	.st0{fill:#333333;}
</style>
<path class="st0" d="M79.1,32.9c0.3,0,0.5-0.2,0.5-0.5V17.2h5.2c0.3,0,0.5-0.2,0.5-0.5v-2.1c0-0.3-0.2-0.5-0.5-0.5H71
	c-0.3,0-0.5,0.2-0.5,0.5v2.1c0,0.3,0.2,0.5,0.5,0.5h5.2v15.2c0,0.3,0.2,0.5,0.5,0.5H79.1z M102.7,32.3c0.3,0.3,0.1,0.7-0.3,0.7h-3
	c-0.4,0-0.6-0.1-0.9-0.4l-1.8-2c-1.2,1.6-2.9,2.8-5.7,2.8c-3.5,0-6.2-2.1-6.2-5.6c0-2.7,1.5-4.2,3.7-5.4c-1.1-1.2-1.6-2.6-1.6-3.7
	c0-2.9,2.1-4.9,5.2-4.9c3.2,0,5.1,1.9,5.1,4.6c0,2.3-1.7,3.7-3.5,4.7l2.6,2.8l1.5-2.6c0.2-0.3,0.4-0.4,0.8-0.4h2.3
	c0.4,0,0.6,0.3,0.4,0.7L98.7,28L102.7,32.3z M92.2,16.6c-1.2,0-1.9,0.8-1.9,1.8c0,0.8,0.4,1.5,1.4,2.5c1.7-1,2.4-1.6,2.4-2.6
	C94,17.4,93.4,16.6,92.2,16.6z M91.1,30.4c1.5,0,2.5-0.7,3.4-2l-3.8-4.1c-1.5,0.8-2.4,1.6-2.4,3.3C88.2,29.2,89.6,30.4,91.1,30.4z
	 M72.8,32.3c0.1,0.3-0.1,0.6-0.4,0.6h-2.5c-0.4,0-0.6-0.2-0.7-0.5l-1.4-4h-7.6l-1.4,4c-0.1,0.3-0.3,0.5-0.7,0.5h-2.3
	c-0.3,0-0.5-0.3-0.4-0.6l6.4-17.7c0.1-0.3,0.3-0.5,0.7-0.5h3.2c0.4,0,0.6,0.1,0.7,0.5L72.8,32.3z M66.7,25.4L64,17.6l-2.7,7.8H66.7z
	 M106.4,32.9c-0.3,0-0.5-0.2-0.5-0.5V17.2h-5.2c-0.3,0-0.5-0.2-0.5-0.5v-2.1c0-0.3,0.2-0.5,0.5-0.5h13.8c0.3,0,0.5,0.2,0.5,0.5v2.1
	c0,0.3-0.2,0.5-0.5,0.5h-5.2v15.2c0,0.3-0.2,0.5-0.5,0.5H106.4z"/>
<path class="st0" d="M35.7,3.3C32.2,1.2,28.1,0,23.6,0c-4.5,0-8.7,1.2-12.3,3.4c-1.1,0.7-1.7,1.2-1.7,1.8c0,2,4.7,4.1,12.9,4.1
	c8.2,0,14.5-2.3,14.5-4.6C37.2,4.3,36.7,3.9,35.7,3.3z M39.3,5.9c0.1,0.2,0.1,0.3,0.1,0.5c0,2.6-8,7.2-20.8,7.2
	C9.2,13.7,7.4,10.2,7.4,8c0-0.8,0.3-1.6,1-2.4c0,0,0-0.1,0,0C7.1,6.6,6,7.8,5,9c-0.5,0.6-0.8,1.1-0.8,1.4c0,4.6,11.5,7.9,22.3,7.9
	c11.5,0,16.6-3.7,16.6-7c0-1.2-0.5-1.9-1.6-3.2C40.8,7.3,40,6.6,39.3,5.9C39.3,5.9,39.2,5.9,39.3,5.9z M2.3,13.4
	c-0.7,1.4-1.5,3.7-1.7,4.9c-0.1,0.5-0.1,0.8,0.1,1.1c1.5,3.1,8.8,8,25.9,8c10.4,0,18.5-2.6,19.9-7.2c0.2-0.9,0.3-1.8-0.1-3
	c-0.3-1.4-1-3-1.5-4.1c0,0-0.1,0,0,0c0.2,6.1-16.9,10-25.5,10c-9.4,0-17.2-3.7-17.2-8.4C2.1,14.3,2.2,13.9,2.3,13.4
	C2.3,13.4,2.3,13.4,2.3,13.4z M18.9,32.9C6.8,32.9,1.1,27.3,0,23.5c0-0.1,0,0,0,0c0,1.3,0.1,2.9,0.4,4.1c0.1,0.5,0.5,1.4,1.2,2.1
	c2.9,3,10.2,7.3,22.9,7.3c17.2,0,21.2-5.7,22-7.6c0.6-1.3,0.9-3.8,0.9-5.8c0-0.5,0-0.9,0-1.3c0-0.1,0-0.1,0,0
	C46.3,26.8,31.6,32.9,18.9,32.9z M25.2,43.3c5.8,0,12.2-1.6,16-4.7c1-0.9,2-2,2.9-3.5c0.5-0.9,1-1.9,1.4-2.9c0,0,0-0.1-0.1,0
	c-3.6,5.2-13.9,8.4-24.5,8.4c-7.5,0-15.6-2.4-18.8-7c0,0-0.1,0,0,0C5.2,39.9,14.2,43.3,25.2,43.3z M9.1,42.1c4,3.1,9,4.9,14.5,4.9
	c6,0,11.4-2.2,15.6-5.8c0.1,0,0-0.1,0,0c-1.9,1.2-7.2,3.9-15.5,3.9C16.4,45.1,11.8,43.5,9.1,42.1C9.1,42,9.1,42,9.1,42.1z"/>
</svg>
