<?xml version="1.0" encoding="utf-8"?>
<!-- Generator: Adobe Illustrator 21.1.0, SVG Export Plug-In . SVG Version: 6.00 Build 0)  -->
<svg version="1.1" id="Layer_1" xmlns="http://www.w3.org/2000/svg" xmlns:xlink="http://www.w3.org/1999/xlink" x="0px" y="0px"
	 width="60px" height="59.9px" viewBox="0 0 60 59.9" style="enable-background:new 0 0 60 59.9;" xml:space="preserve">
<style type="text/css">
	.st0{fill:none;}
	.st1{fill:#32325D;}
</style>
<g>
	<polygon class="st0" points="16.7,17.2 16.6,17.2 16.6,17.2 16.6,17.2 16.7,17.2 	"/>
	<polygon class="st0" points="26.5,15.1 26.5,15.1 26.5,15.1 	"/>
	<circle class="st0" cx="44.2" cy="31.9" r="0"/>
	<polygon class="st1" points="16.6,17.2 16.6,17.2 16.6,17.2 	"/>
	<polygon class="st1" points="44.4,32.2 44.4,32.2 44.4,32.2 	"/>
	<polygon class="st1" points="16.6,17.2 16.7,17.2 16.7,17.2 	"/>
	<polygon class="st1" points="16.7,17.2 16.6,17.2 16.6,17.2 16.6,17.2 16.7,17.2 	"/>
	<polygon class="st1" points="44.2,31.9 44.2,31.9 44.2,31.9 	"/>
	<polygon class="st1" points="44.2,42.2 44.2,42.2 44.2,42.2 	"/>
	<polygon class="st1" points="46.3,41.1 46.3,41.1 46.3,41.1 	"/>
	<polygon class="st1" points="16.7,17.2 16.6,17.2 16.6,17.2 	"/>
	<polygon class="st1" points="0,39.7 0,39.7 0,39.7 	"/>
	<polygon class="st1" points="19.4,59.9 19.4,59.9 19.4,59.9 	"/>
	<path class="st1" d="M19.4,57.9v0.2C19.4,58,19.4,58,19.4,57.9L19.4,57.9z"/>
	<circle class="st1" cx="46.3" cy="41.1" r="0"/>
	<polygon class="st1" points="26.7,57.7 26.7,57.7 26.7,57.7 	"/>
	<polygon class="st0" points="16.7,17.2 16.7,17.2 16.7,17.2 	"/>
	<ellipse transform="matrix(0.4472 -0.8944 0.8944 0.4472 -32.6839 23.4805)" class="st0" cx="2.7" cy="38.2" rx="0" ry="0"/>
	<path class="st0" d="M58,37c0,4.3-2.7,7-5.3,7c-1.8,0-3.6-1.3-4.6-3.7l-0.5-1.2h-1.3c-1.6,0-2.9,0.8-3.7,1.9l-0.4,0.5v15.4
		c0,0.6-0.4,1-1,1H30c1.5-1.4,2.5-3.4,2.5-5.6c0-4.7-4.2-8.1-8.9-8.1c-4.7,0-8.9,3.4-8.9,8.1c0,1.8,0.6,3.4,1.6,4.7
		c0.3,0.3,0.5,0.6,0.7,0.9H3c-0.6,0-1-0.4-1-1V41c1.4,1.8,3.5,3,6,3c4.7,0,8-4.3,8-9s-3.3-9-8-9c-1.8,0-3.4,0.6-4.7,1.7
		c-0.5,0.4-1,0.8-1.3,1v-8.4c0-0.6,0.4-1,1-1h14.1l0.4-0.2l0,0h0c1-0.5,1.9-1.6,1.9-3s-0.8-2.5-1.9-3C15.3,11.8,14,9.9,14,8
		c0-2.9,3.1-6,8-6s8,3.1,8,6c0,2.1-1.5,4.2-4.2,5.3l-1.2,0.5v1.3c0,1.5,0.7,2.7,1.6,3.6l0.6,0.5h14.4c0.6,0,1,0.4,1,1v12.2l0.3,0.4
		c0.1,0.1,0.1,0.2,0.1,0.3c0.5,1,1.6,1.8,2.9,1.8s2.4-0.8,2.9-1.8c1-2,2.7-3.1,4.3-3.1C55.3,30,58,32.7,58,37z"/>
	<path class="st1" d="M2,40.5V41c-0.1-0.1-0.1-0.2-0.2-0.3C1.9,40.6,1.9,40.6,2,40.5z"/>
	<path class="st1" d="M19.4,59.9v-1.8C19.7,58.7,19.7,59.4,19.4,59.9z"/>
	<polygon class="st1" points="16.7,17.2 16.7,17.2 16.7,17.2 	"/>
	<polygon class="st1" points="27.3,17 27.3,17 27.3,17 	"/>
	<ellipse transform="matrix(0.8944 -0.4472 0.4472 0.8944 -16.7952 5.218)" class="st1" cx="2.7" cy="38.2" rx="0" ry="0"/>
	<path class="st1" d="M0.8,39c0.1,0.2,0.2,0.5,0.3,0.7H0c0.8-0.8,1.5-1.5,2.7-1.5L0.8,39z"/>
	<polygon class="st1" points="44.2,42.2 44.2,42.2 44.2,42.2 	"/>
	<path class="st1" d="M27.7,59.5v0.4c-0.5-0.6-1-1.3-1-2.2l0.8,1.8C27.6,59.5,27.7,59.5,27.7,59.5z"/>
	<path class="st1" d="M28.8,57.9h-1.1v1.6c0,0-0.1,0.1-0.1,0.1l-0.8-1.8h2C28.7,57.8,28.8,57.9,28.8,57.9z"/>
	<path class="st1" d="M57.9,30.6C56.6,29,54.8,28,52.8,28c-2.6,0-4.8,1.7-6.1,4.2c-0.2,0.4-0.6,0.7-1.1,0.7s-0.9-0.3-1.1-0.7
		c-0.1-0.1-0.1-0.2-0.2-0.3V20.2c0-0.8-0.3-1.6-0.9-2.1c-0.5-0.5-1.3-0.9-2.1-0.9H27.6c-0.1-0.1-0.2-0.2-0.3-0.3
		c-0.5-0.5-0.8-1.1-0.8-1.9c1.6-0.7,3-1.7,3.9-2.9C31.4,11,32,9.6,32,8c0-2.2-1.1-4.2-2.9-5.7C27.3,0.9,24.8,0,22,0
		c-5.5,0-10,3.6-10,8c0,2.9,1.9,5.4,4.7,6.8c0.5,0.2,0.8,0.7,0.8,1.2s-0.3,1-0.8,1.2l0,0H3c-1.7,0-3,1.4-3,3v10.1c0,0,0,0,0,0
		c1.3,1.3,3.1,0.1,4.6-1.1C5.6,28.4,6.7,28,8,28c3.3,0,6,3.1,6,7s-2.7,7-6,7c-2.3,0-4.3-1.6-5.3-3.8L0.8,39c0.1,0.2,0.2,0.5,0.3,0.7
		H0v17.3c0,1.7,1.3,3,3,3h16.4v-1.8c0-0.1,0-0.1-0.1-0.2c-0.3-0.7-0.8-1.5-1.4-2.1c-0.8-1-1.2-2.2-1.2-3.5c0-1.7,0.8-3.2,2-4.3
		c1.2-1.1,3-1.8,4.8-1.8c3.8,0,6.9,2.7,6.9,6.1c0,2.4-1.5,4.4-3.8,5.4h2c0,0.1,0,0.1,0.1,0.2h-1.1v2h13.5c1.7,0,3-1.3,3-3V42.2
		c0.1-0.1,0.2-0.2,0.3-0.3c0,0,0.1-0.1,0.1-0.1c0.5-0.4,1.1-0.7,1.7-0.7c1.2,2.9,3.6,4.9,6.5,4.9c4,0,7.3-4,7.3-9
		C60,34.5,59.2,32.3,57.9,30.6z M1.3,28.9C1.4,28.9,1.4,28.9,1.3,28.9C1.4,28.9,1.4,28.9,1.3,28.9C1.4,28.9,1.4,28.9,1.3,28.9z
		 M52.8,44c-1.8,0-3.6-1.3-4.6-3.7l-0.5-1.2h-1.3c-1.6,0-2.9,0.8-3.7,1.9l-0.4,0.5v15.4c0,0.6-0.4,1-1,1H30c1.5-1.4,2.5-3.4,2.5-5.6
		c0-4.7-4.2-8.1-8.9-8.1c-4.7,0-8.9,3.4-8.9,8.1c0,1.8,0.6,3.4,1.6,4.7c0.3,0.3,0.5,0.6,0.7,0.9H3c-0.6,0-1-0.4-1-1V41
		c-0.1-0.1-0.1-0.2-0.2-0.3c0.1-0.1,0.1-0.1,0.2-0.2V41c1.4,1.8,3.5,3,6,3c4.7,0,8-4.3,8-9s-3.3-9-8-9c-1.8,0-3.4,0.6-4.7,1.7
		c-0.5,0.4-1,0.8-1.3,1v-8.4c0-0.6,0.4-1,1-1h14.1l0.4-0.2l0,0h0c1-0.5,1.9-1.6,1.9-3s-0.8-2.5-1.9-3C15.3,11.8,14,9.9,14,8
		c0-2.9,3.1-6,8-6s8,3.1,8,6c0,2.1-1.5,4.2-4.2,5.3l-1.2,0.5v1.3c0,1.5,0.7,2.7,1.6,3.6l0.6,0.5h14.4c0.6,0,1,0.4,1,1v12.2l0.3,0.4
		c0.1,0.1,0.1,0.2,0.1,0.3c0.5,1,1.6,1.8,2.9,1.8s2.4-0.8,2.9-1.8c1-2,2.7-3.1,4.3-3.1c2.5,0,5.3,2.7,5.3,7S55.3,44,52.8,44z"/>
	<polygon class="st1" points="27.5,17.2 27.5,17.2 27.5,17.2 	"/>
	<path class="st1" d="M1.4,28.9L1.4,28.9C1.4,28.9,1.4,28.9,1.4,28.9C1.4,28.9,1.4,28.9,1.4,28.9z"/>
	<path class="st1" d="M1.4,28.9L1.4,28.9C1.4,28.9,1.4,28.9,1.4,28.9z"/>
	<polygon class="st1" points="16.6,17.2 16.6,17.2 16.6,17.2 	"/>
</g>
</svg>
