<?xml version="1.0" encoding="utf-8"?>
<!-- Generator: Adobe Illustrator 21.1.0, SVG Export Plug-In . SVG Version: 6.00 Build 0)  -->
<svg version="1.1" id="Layer_1" xmlns="http://www.w3.org/2000/svg" xmlns:xlink="http://www.w3.org/1999/xlink" x="0px" y="0px"
	 width="54px" height="61px" viewBox="0 0 54 61" style="enable-background:new 0 0 54 61;" xml:space="preserve">
<style type="text/css">
	.st0{fill:none;}
	.st1{fill:#32325D;}
</style>
<g>
	<polygon class="st0" points="25.6,3 25.6,13.5 18.6,8.3 	"/>
	<path class="st1" d="M27.6,7V1c0-0.8-0.9-1.3-1.6-0.8l-9.6,7.2c-0.5,0.4-0.5,1.2,0,1.6l0,0l9.5,7.3c0.7,0.5,1.6,0,1.6-0.8V9
		C41.1,9.3,52,20.4,52,34c0,13.8-11.2,25-25,25S2,47.8,2,34c0-4.8,1.3-9.2,3.6-13c0.3-0.5,0.1-1.1-0.3-1.4c-0.5-0.3-1.1,0-1.4,0.4
		C1.4,24.1,0,28.9,0,34c0,14.9,12.1,27,27,27s27-12.1,27-27C54,19.3,42.2,7.3,27.6,7z M25.6,13.5l-7-5.3l7-5.3V13.5z"/>
</g>
</svg>
