<?xml version="1.0" encoding="utf-8"?>
<!-- Generator: Adobe Illustrator 21.1.0, SVG Export Plug-In . SVG Version: 6.00 Build 0)  -->
<svg version="1.1" id="Layer_1" xmlns="http://www.w3.org/2000/svg" xmlns:xlink="http://www.w3.org/1999/xlink" x="0px" y="0px"
	 width="47px" height="43px" viewBox="0 0 47 43" style="enable-background:new 0 0 47 43;" xml:space="preserve">
<style type="text/css">
	.st0{fill:none;}
	.st1{fill:#32325D;}
	.st2{fill:#F6F9FC;}
</style>
<g>
	<polygon class="st0" points="0,32.5 0,32.5 0,32.5 	"/>
	<polygon class="st0" points="1.6,33.7 1.6,33.7 1.6,33.7 	"/>
	<path class="st1" d="M46.6,35.8c-1.3-1.2-5.7-4.5-13.6-4.8c-0.3,0-0.6,0-0.9,0c-0.9,0-1.8,0.1-2.6,0.1c-0.9,0.1-1.7,0.3-2.4,0.4h0
		c-0.5-0.4-1.2-0.9-2.1-1.5c-2.3-1.4-5.9-2.9-11-3.1c-0.3,0-0.6,0-0.9,0c-7.3,0-11.4,3.6-12.6,5c0,0.1-0.1,0.1-0.1,0.1
		C0.1,32.3,0,32.5,0,32.5V43h47v-6.8C47,36.2,46.8,36.1,46.6,35.8z M19,36.2V41H2v-7.8c0.1-0.1,0.1-0.1,0.2-0.2
		c0.5-0.5,1.2-1.1,2.2-1.7c2-1.2,5.1-2.5,9.5-2.3c3.8,0.1,6.7,1.1,8.7,2.1c0.4,0.2,0.7,0.4,1,0.5c0.4,0.2,0.8,0.5,1.1,0.7
		C20.8,33.9,19,36.2,19,36.2z M45,41H21v-4c0.1-0.1,0.1-0.1,0.2-0.2c0.5-0.4,1.2-1,2.2-1.6c0.7-0.4,1.6-0.8,2.6-1.2
		c0.6-0.2,1.3-0.4,2-0.6c0.6-0.1,1.3-0.3,2-0.3c0.9-0.1,1.9-0.1,2.9-0.1c4.5,0.2,7.7,1.4,9.7,2.5c1,0.6,1.8,1.1,2.2,1.5
		c0,0,0.1,0.1,0.1,0.1V41z"/>
	<polygon class="st1" points="0,32.5 0,32.5 0,32.5 	"/>
	<polygon class="st1" points="47,36.2 47,36.2 47,36.2 	"/>
	<polygon class="st0" points="19,36.2 19,36.2 19,36.2 	"/>
	<rect x="28" y="41" class="st2" width="0" height="0"/>
	<polygon class="st1" points="19,36.2 19,36.2 19,36.2 	"/>
	<polygon class="st1" points="28,32.5 28,32.5 28,32.5 	"/>
	<path class="st0" d="M19,18.5c0,2.5-2,4.5-4.5,4.5C12,23,10,21,10,18.5s2-4.5,4.5-4.5C17,14,19,16,19,18.5z"/>
	<path class="st1" d="M14.5,12c-1.8,0-3.4,0.7-4.6,1.9C8.7,15.1,8,16.7,8,18.5c0,3.6,2.9,6.5,6.5,6.5c3.6,0,6.5-2.9,6.5-6.5
		S18.1,12,14.5,12z M14.5,23C12,23,10,21,10,18.5s2-4.5,4.5-4.5c2.5,0,4.5,2,4.5,4.5S17,23,14.5,23z"/>
	<path class="st0" d="M38,21.5c0,2.5-2,4.5-4.5,4.5C31,26,29,24,29,21.5s2-4.5,4.5-4.5C36,17,38,19,38,21.5z"/>
	<path class="st1" d="M33.5,15c-1.8,0-3.4,0.7-4.6,1.9c-1.2,1.2-1.9,2.8-1.9,4.6c0,3.6,2.9,6.5,6.5,6.5c3.6,0,6.5-2.9,6.5-6.5
		S37.1,15,33.5,15z M33.5,26C31,26,29,24,29,21.5s2-4.5,4.5-4.5c2.5,0,4.5,2,4.5,4.5S36,26,33.5,26z"/>
	<circle class="st1" cx="17" cy="6" r="2"/>
	<circle class="st1" cx="23" cy="2" r="2"/>
	<circle class="st1" cx="30" cy="5" r="2"/>
	<circle class="st1" cx="36" cy="10" r="2"/>
</g>
</svg>
