<svg width="106" height="49" viewBox="0 0 106 49" fill="none" xmlns="http://www.w3.org/2000/svg">
<path d="M2.93384 0.112521C2.533 0.00810569 2.12341 0.248403 2.019 0.649239L0.317462 7.18126C0.213047 7.5821 0.453346 7.99168 0.854183 8.0961C1.25502 8.20051 1.66461 7.96022 1.76902 7.55938L3.2815 1.75314L9.08774 3.26561C9.48858 3.37003 9.89816 3.12973 10.0026 2.7289C10.107 2.32805 9.8667 1.91847 9.46586 1.81406L2.93384 0.112521ZM104.966 39.7053C72.8224 58.5634 27.3016 41.2132 3.39166 0.458781L2.09789 1.21782C26.2568 42.3967 72.6078 60.4284 105.725 40.9991L104.966 39.7053Z" fill="url(#paint0_linear_510_4774)"/>
<defs>
<linearGradient id="paint0_linear_510_4774" x1="66.4357" y1="60.9183" x2="54.0621" y2="20.5512" gradientUnits="userSpaceOnUse">
<stop stop-color="#136329"/>
<stop offset="1" stop-color="#5CC878"/>
</linearGradient>
</defs>
</svg>
