<svg width="65" height="98" viewBox="0 0 65 98" fill="none" xmlns="http://www.w3.org/2000/svg">
<path d="M0.503426 93.3237C0.321128 93.6957 0.474872 94.145 0.846823 94.3273L6.908 97.2979C7.27995 97.4802 7.72925 97.3264 7.91154 96.9545C8.09383 96.5825 7.94008 96.1332 7.56814 95.9509L2.18042 93.3104L4.82096 87.9227C5.00325 87.5507 4.84951 87.1014 4.47756 86.9191C4.10562 86.7369 3.65633 86.8906 3.47403 87.2625L0.503426 93.3237ZM59.6579 1.24284C71.7234 36.5027 45.6396 77.6465 0.934069 92.9442L1.41971 94.3634C46.5908 78.9064 73.5081 37.0851 61.0771 0.757204L59.6579 1.24284Z" fill="url(#paint0_linear_510_4775)"/>
<defs>
<linearGradient id="paint0_linear_510_4775" x1="41.8609" y1="79.7322" x2="19.6835" y2="14.9216" gradientUnits="userSpaceOnUse">
<stop stop-color="#136329"/>
<stop offset="1" stop-color="#4C81DD"/>
</linearGradient>
</defs>
</svg>
