<svg width="49" height="55" viewBox="0 0 49 55" fill="none" xmlns="http://www.w3.org/2000/svg">
<path d="M21.7771 35.8514L15.8699 29.9442L21.7771 24.0369L17.9388 20.1714L8.16602 29.9442L17.9388 39.7169L21.7771 35.8514Z" fill="#32325D"/>
<path d="M31.061 39.7169L40.8338 29.9442L31.061 20.1714L27.2227 24.0369L33.1299 29.9442L27.2227 35.8514L31.061 39.7169Z" fill="#32325D"/>
<path d="M43.5556 5.44444H32.1767C31.0333 2.28667 28.0389 0 24.5 0C20.9611 0 17.9667 2.28667 16.8233 5.44444H5.44444C5.06333 5.44444 4.70944 5.47167 4.35556 5.55333C3.29389 5.77111 2.34111 6.31556 1.60611 7.05056C1.11611 7.54056 0.707778 8.13944 0.435556 8.79278C0.163334 9.41889 0 10.1267 0 10.8889V38.1111V40.8333V49C0 49.735 0.163334 50.47 0.435556 51.1233C0.707778 51.7767 1.11611 52.3483 1.60611 52.8656C2.34111 53.6006 3.29389 54.145 4.35556 54.3628C4.70944 54.4172 5.06333 54.4444 5.44444 54.4444H43.5556C46.55 54.4444 49 51.9944 49 49V40.8333V38.1111V10.8889C49 7.89444 46.55 5.44444 43.5556 5.44444ZM24.5 4.76389C25.6161 4.76389 26.5417 5.68944 26.5417 6.80556C26.5417 7.92167 25.6161 8.84722 24.5 8.84722C23.3839 8.84722 22.4583 7.92167 22.4583 6.80556C22.4583 5.68944 23.3839 4.76389 24.5 4.76389ZM43.5556 38.1111V40.8333V49H5.44444V40.8333V38.1111V10.8889H43.5556V38.1111Z" fill="#32325D"/>
</svg>
