<svg width="54" height="48" viewBox="0 0 54 48" fill="none" xmlns="http://www.w3.org/2000/svg">
<path d="M24.75 32.46L19.8675 27.5775L24.75 22.695L21.5775 19.5L13.5 27.5775L21.5775 35.655L24.75 32.46Z" fill="#4C81DD"/>
<path d="M32.4225 35.655L40.5 27.5775L32.4225 19.5L29.25 22.695L34.1325 27.5775L29.25 32.46L32.4225 35.655Z" fill="#4C81DD"/>
<path fill-rule="evenodd" clip-rule="evenodd" d="M6 0H48C51.33 0 54 2.7 54 6V42C54 45.3 51.3 48 48 48H6C2.67 48 0 45.3 0 42V6C0 2.7 2.67 0 6 0ZM6 42H48V12H6V42ZM9 8.24993C10.2426 8.24993 11.25 7.24257 11.25 5.99993C11.25 4.75729 10.2426 3.74993 9 3.74993C7.75736 3.74993 6.75 4.75729 6.75 5.99993C6.75 7.24257 7.75736 8.24993 9 8.24993ZM18 5.99993C18 7.24257 16.9926 8.24993 15.75 8.24993C14.5074 8.24993 13.5 7.24257 13.5 5.99993C13.5 4.75729 14.5074 3.74993 15.75 3.74993C16.9926 3.74993 18 4.75729 18 5.99993ZM22.5 8.24993C23.7426 8.24993 24.75 7.24257 24.75 5.99993C24.75 4.75729 23.7426 3.74993 22.5 3.74993C21.2574 3.74993 20.25 4.75729 20.25 5.99993C20.25 7.24257 21.2574 8.24993 22.5 8.24993Z" fill="#4C81DD"/>
</svg>
