<svg width="51" height="47" viewBox="0 0 51 47" fill="none" xmlns="http://www.w3.org/2000/svg">
<path d="M29.366 34.6808L28.9959 34.7729L28.9891 34.7713L28.6978 34.5245C26.9983 33.0848 22.7896 29.9685 15.6667 29.9685C10.8504 29.9685 7.3843 31.1382 5.12981 32.5323C3.99969 33.2312 3.17053 33.9398 2.62785 34.4687L2 35.1347V44.9924L2.00758 45L49 44.9924M29.366 34.6808L29.9924 34.5442C31.5342 34.5442 33.2938 34.1084 35.2808 34.1084M29.366 34.6808C31.0243 34.2781 33.0571 34.1084 35.2808 34.1084M29.366 34.6808L29.3949 44.9848L29.4024 44.9924H49M49 44.9924V39.0523M49 39.0523L48.4258 38.5437M49 39.0523L48.6859 38.7753L48.4258 38.5437M35.2808 34.1084C40.1378 34.1084 43.6375 35.6087 45.9108 36.8582M35.2808 34.1084C40.1361 34.1084 43.6388 35.6091 45.9108 36.8582M45.9108 36.8582C47.0489 37.4837 47.8822 38.0948 48.4258 38.5437M22.1613 20.3945C22.1613 23.6887 19.4983 26.3591 16.2131 26.3591M22.1613 20.3945C22.1613 17.1003 19.4983 14.4298 16.2131 14.4298M22.1613 20.3945C22.1613 23.6929 19.5024 26.3591 16.2131 26.3591M22.1613 20.3945C22.1613 17.0961 19.5024 14.4298 16.2131 14.4298M16.2131 26.3591C12.9285 26.3591 10.2656 23.6886 10.2656 20.3945M16.2131 26.3591C12.9245 26.3591 10.2656 23.6929 10.2656 20.3945M16.2131 14.4298C12.9285 14.4298 10.2656 17.1004 10.2656 20.3945M16.2131 14.4298C12.9245 14.4298 10.2656 17.0961 10.2656 20.3945M41.774 23.5C41.774 26.7942 39.111 29.4647 35.8258 29.4647M41.774 23.5C41.774 20.2058 39.111 17.5354 35.8258 17.5354M41.774 23.5C41.774 26.7984 39.1151 29.4647 35.8258 29.4647M41.774 23.5C41.774 20.2016 39.1151 17.5354 35.8258 17.5354M35.8258 29.4647C32.5412 29.4647 29.8783 26.7942 29.8783 23.5M35.8258 29.4647C32.5372 29.4647 29.8783 26.7985 29.8783 23.5M35.8258 17.5354C32.5412 17.5354 29.8783 20.2059 29.8783 23.5M35.8258 17.5354C32.5372 17.5354 29.8783 20.2016 29.8783 23.5M24.9878 4.62797C25.7114 4.62797 26.2982 4.03957 26.2982 3.31396C26.2982 2.58838 25.7114 2 24.9878 2C24.2642 2 23.6774 2.58838 23.6774 3.31396C23.6774 4.03957 24.2642 4.62797 24.9878 4.62797ZM18.7945 8.76872C19.518 8.76872 20.1049 8.18032 20.1049 7.45471C20.1049 6.72913 19.5181 6.14075 18.7945 6.14075C18.0709 6.14075 17.4841 6.72913 17.4841 7.45471C17.4841 8.18032 18.0709 8.76872 18.7945 8.76872ZM32.2138 7.7335C32.9374 7.7335 33.5243 7.1451 33.5243 6.41949C33.5243 5.6939 32.9374 5.10553 32.2138 5.10553C31.4903 5.10553 30.9034 5.6939 30.9034 6.41949C30.9034 7.1451 31.4903 7.7335 32.2138 7.7335ZM38.4072 12.9094C39.1307 12.9094 39.7176 12.321 39.7176 11.5954C39.7176 10.8698 39.1308 10.2814 38.4072 10.2814C37.6836 10.2814 37.0968 10.8698 37.0968 11.5954C37.0968 12.321 37.6836 12.9094 38.4072 12.9094Z" stroke="#32325D" stroke-width="4" stroke-linecap="round" stroke-linejoin="round"/>
</svg>
