<svg width="48" height="48" viewBox="0 0 48 48" fill="none" xmlns="http://www.w3.org/2000/svg">
<path d="M36.7647 22.8607V24.9477H38.8516H41.9598C44.0223 24.9477 45.7189 26.4389 45.8937 28.1876C46.1125 30.3748 44.417 32.2007 42.2797 32.2007H38.8516H36.7647V34.2877V44.8696C36.7647 45.4459 36.2975 45.913 35.7212 45.913H27.6833V44.5719C27.6833 39.4594 23.0303 35.4623 17.7985 36.466L17.7917 36.4674C13.7762 37.2516 11.1683 40.925 11.1683 44.8004V45.913H3.13043C2.55414 45.913 2.08696 45.4459 2.08696 44.8696V36.8317H3.42809C8.54059 36.8317 12.5377 32.1786 11.534 26.9468L11.5326 26.94C10.7484 22.9246 7.07497 20.3167 3.19955 20.3167H2.10981V12.2788C2.10981 11.7025 2.57699 11.2353 3.15329 11.2353H13.7123H15.7993V9.14837V5.72028C15.7993 3.58301 17.6252 1.88754 19.8124 2.10626C21.5657 2.28159 23.0523 3.9599 23.0523 6.04024V9.14837V11.2353H25.1393H35.7212C36.2975 11.2353 36.7647 11.7025 36.7647 12.2788V22.8607Z" stroke="#32325D" stroke-width="4.17391"/>
</svg>
