<svg width="53" height="35" viewBox="0 0 53 35" fill="none" xmlns="http://www.w3.org/2000/svg">
<path d="M18.5402 10.603H34.4447C35.9027 10.603 37.0955 11.7958 37.0955 13.2538C37.0955 14.7117 35.9027 15.9045 34.4447 15.9045H18.5402C17.0823 15.9045 15.8895 14.7117 15.8895 13.2538C15.8895 11.7958 17.0823 10.603 18.5402 10.603ZM50.1637 13.2538C51.8072 13.2538 53 11.6898 52.6289 10.0994C51.1975 4.29422 45.9755 0 39.7462 0H31.6615C30.2831 0 29.1432 1.13982 29.1432 2.51821C29.1432 3.8966 30.2831 5.03642 31.6615 5.03642H39.7462C43.5898 5.03642 46.8237 7.68717 47.725 11.2392C48.0166 12.4055 48.9709 13.2538 50.1637 13.2538ZM5.18046 11.6103C5.92267 7.71368 9.58071 5.03642 13.5568 5.03642H21.3235C22.7019 5.03642 23.8417 3.8966 23.8417 2.51821C23.8417 1.13982 22.7019 0 21.3235 0H13.8219C6.90345 0 0.727202 5.06293 0.064514 11.9549C-0.704203 19.8541 5.49855 26.5075 13.2387 26.5075H21.3235C22.7019 26.5075 23.8417 25.3677 23.8417 23.9893C23.8417 22.6109 22.7019 21.4711 21.3235 21.4711H13.2387C8.17581 21.4711 4.17318 16.8588 5.18046 11.6103ZM42.397 13.2538C40.9391 13.2538 39.7462 14.4466 39.7462 15.9045V21.206H34.4447C32.9868 21.206 31.794 22.3988 31.794 23.8568C31.794 25.3147 32.9868 26.5075 34.4447 26.5075H39.7462V31.809C39.7462 33.2669 40.9391 34.4598 42.397 34.4598C43.8549 34.4598 45.0477 33.2669 45.0477 31.809V26.5075H50.3492C51.8072 26.5075 53 25.3147 53 23.8568C53 22.3988 51.8072 21.206 50.3492 21.206H45.0477V15.9045C45.0477 14.4466 43.8549 13.2538 42.397 13.2538Z" fill="#32325D"/>
</svg>
