<svg width="54" height="48" viewBox="0 0 54 48" fill="none" xmlns="http://www.w3.org/2000/svg">
<path d="M16.8935 35.8266L26.8068 25.9133L16.8935 16L13 19.9211L18.9922 25.9133L13 31.9055L16.8935 35.8266Z" fill="#32325D"/>
<path fill-rule="evenodd" clip-rule="evenodd" d="M6 0H48C51.33 0 54 2.7 54 6V42C54 45.3 51.3 48 48 48H6C2.67 48 0 45.3 0 42V6C0 2.7 2.67 0 6 0ZM6 42H48V12H6V42ZM9 8.25C10.2426 8.25 11.25 7.24264 11.25 6C11.25 4.75736 10.2426 3.75 9 3.75C7.75736 3.75 6.75 4.75736 6.75 6C6.75 7.24264 7.75736 8.25 9 8.25ZM18 6C18 7.24264 16.9926 8.25 15.75 8.25C14.5074 8.25 13.5 7.24264 13.5 6C13.5 4.75736 14.5074 3.75 15.75 3.75C16.9926 3.75 18 4.75736 18 6ZM22.5 8.25C23.7426 8.25 24.75 7.24264 24.75 6C24.75 4.75736 23.7426 3.75 22.5 3.75C21.2574 3.75 20.25 4.75736 20.25 6C20.25 7.24264 21.2574 8.25 22.5 8.25Z" fill="#32325D"/>
</svg>
