<svg width="44" height="55" viewBox="0 0 44 55" fill="none" xmlns="http://www.w3.org/2000/svg">
<path d="M36.3715 5.19593H28.11C27.0188 2.18229 24.1611 0 20.7837 0C17.4064 0 14.5486 2.18229 13.4575 5.19593H5.19593C2.33817 5.19593 0 7.5341 0 10.3919V49.3613C0 52.2191 2.33817 54.5573 5.19593 54.5573H21.0695C19.5367 53.0764 18.2897 51.3098 17.3804 49.3613H5.19593V10.3919H10.3919V18.1858H31.1756V10.3919H36.3715V23.5895C38.2161 23.8493 39.9567 24.3949 41.5674 25.1483V10.3919C41.5674 7.5341 39.2293 5.19593 36.3715 5.19593ZM20.7837 10.3919C19.3548 10.3919 18.1858 9.22277 18.1858 7.79389C18.1858 6.36501 19.3548 5.19593 20.7837 5.19593C22.2126 5.19593 23.3817 6.36501 23.3817 7.79389C23.3817 9.22277 22.2126 10.3919 20.7837 10.3919Z" fill="#32325D"/>
<path d="M41.1807 34.9896H39.7712V32.21C39.7712 28.3742 36.6138 25.261 32.7235 25.261C28.8332 25.261 25.6759 28.3742 25.6759 32.21H28.4949C28.4949 29.903 30.3837 28.0406 32.7235 28.0406C35.0634 28.0406 36.9521 29.903 36.9521 32.21V34.9896H24.2663C22.7158 34.9896 21.4473 36.2404 21.4473 37.7692V51.6671C21.4473 53.1959 22.7158 54.4467 24.2663 54.4467H41.1807C42.7312 54.4467 43.9998 53.1959 43.9998 51.6671V37.7692C43.9998 36.2404 42.7312 34.9896 41.1807 34.9896ZM41.1807 51.6671H24.2663V37.7692H41.1807V51.6671ZM32.7235 47.4977C34.274 47.4977 35.5426 46.2469 35.5426 44.7181C35.5426 43.1894 34.274 41.9386 32.7235 41.9386C31.173 41.9386 29.9045 43.1894 29.9045 44.7181C29.9045 46.2469 31.173 47.4977 32.7235 47.4977Z" fill="#32325D"/>
<path fill-rule="evenodd" clip-rule="evenodd" d="M25.4278 25.5927H10.835V22.2762H25.4278V25.5927Z" fill="#32325D"/>
<path fill-rule="evenodd" clip-rule="evenodd" d="M20.1213 34.2157H10.835V30.8992H20.1213V34.2157Z" fill="#32325D"/>
<path fill-rule="evenodd" clip-rule="evenodd" d="M22.7745 42.1754H10.835V38.8589H22.7745V42.1754Z" fill="#32325D"/>
</svg>
