<svg width="39" height="50" viewBox="0 0 39 50" fill="none" xmlns="http://www.w3.org/2000/svg">
<path d="M34.125 16.6667H31.6875V11.9048C31.6875 5.33333 26.2275 0 19.5 0C12.7725 0 7.3125 5.33333 7.3125 11.9048H12.1875C12.1875 7.95238 15.4538 4.7619 19.5 4.7619C23.5462 4.7619 26.8125 7.95238 26.8125 11.9048V16.6667H4.875C2.19375 16.6667 0 18.8095 0 21.4286V45.2381C0 47.8571 2.19375 50 4.875 50H34.125C36.8063 50 39 47.8571 39 45.2381V21.4286C39 18.8095 36.8063 16.6667 34.125 16.6667ZM34.125 45.2381H4.875V21.4286H34.125V45.2381ZM19.5 38.0952C22.1812 38.0952 24.375 35.9524 24.375 33.3333C24.375 30.7143 22.1812 28.5714 19.5 28.5714C16.8188 28.5714 14.625 30.7143 14.625 33.3333C14.625 35.9524 16.8188 38.0952 19.5 38.0952Z" fill="#32325D"/>
</svg>
