<?xml version="1.0" encoding="utf-8"?>
<!-- Generator: Adobe Illustrator 21.1.0, SVG Export Plug-In . SVG Version: 6.00 Build 0)  -->
<svg version="1.1" id="Layer_1" xmlns="http://www.w3.org/2000/svg" xmlns:xlink="http://www.w3.org/1999/xlink" x="0px" y="0px"
	 width="168.7px" height="44px" viewBox="0 0 168.7 44" style="enable-background:new 0 0 168.7 44;" xml:space="preserve">
<style type="text/css">
	.st0{fill:#333333;}
</style>
<g>
	<path class="st0" d="M105.4,0.1c3.6-0.3,7.3,0.2,10.5,1.9c3.3,1.7,5.9,4.6,7.4,8c0.4,0.9,0.1,2.1-0.7,2.7c-0.9,0.7-2.2,0.8-3.1,0
		c-0.5-0.4-0.7-1-1-1.5c-1.4-2.8-3.8-5.2-6.6-6.6c-3.3-1.8-7.2-2.3-10.8-1.5c-0.3,0.1-0.7,0.1-1-0.1c-0.4-0.3-0.7-0.8-0.5-1.3
		C99.7,1.3,100,1,100.4,1C102,0.5,103.7,0.2,105.4,0.1z"/>
	<path class="st0" d="M103.1,6.6c0.8-0.1,1.7-0.1,2.5-0.1c1.7,0,3.3,0.2,4.9,0.8c1.4,0.5,2.6,1.4,3.5,2.5c0.7,0.8,1.1,1.8,1.5,2.8
		c0.5,1.2-0.1,2.6-1.2,3.1c-0.9,0.5-2.1,0.3-2.9-0.5c-0.3-0.3-0.5-0.7-0.6-1.1c-0.6-1.6-1.7-3.1-3.1-4.1c-1.2-0.8-2.7-1.3-4.2-1.4
		c-0.5,0-1-0.4-1.1-0.9C102.2,7.3,102.6,6.7,103.1,6.6z"/>
	<path class="st0" d="M104.5,12.3c0.4-0.1,0.8-0.1,1.1,0.1c0.8,0.3,1.5,0.9,2,1.5c0.3,0.3,0.5,0.7,0.7,1.1c0.3,0.8,0.1,1.8-0.6,2.5
		c-0.7,0.7-1.9,0.9-2.8,0.4c-0.6-0.3-1-0.9-1.2-1.6c-0.2-0.9-0.3-1.9-0.1-2.8C103.8,13,104,12.5,104.5,12.3z"/>
	<path class="st0" d="M0.9,15.2c1.2-0.4,2.3-0.7,3.5-1.1c0.4-0.1,0.8,0.2,0.8,0.6c0,7.4,0,14.8,0,22.3c-1.7,0-3.4,0-5.1,0
		c0-6.9,0-13.7,0-20.6C0,15.9,0.4,15.3,0.9,15.2z"/>
	<path class="st0" d="M79.9,25c-0.7,0.2-1.3,0.5-1.8,1c-0.8,0.8-1.1,1.9-1.1,2.9c0,1.1,0.5,2.3,1.3,3c1,0.8,2.5,1,3.7,0.7
		c0.8-0.2,1.6-0.8,2-1.5c0.6-0.9,0.7-2.1,0.5-3.2c-0.2-1-0.8-1.9-1.6-2.4C82.1,24.9,80.9,24.8,79.9,25z M73,16.2
		c1.1-0.3,2.1-0.6,3.2-1c0.4-0.1,0.8,0.2,0.8,0.6c0,2.1,0,4.3,0,6.4c0.9-0.9,2.1-1.6,3.3-1.8c2.3-0.4,4.7,0.2,6.4,1.7
		c1.4,1.2,2.3,3,2.7,4.8c0.7,3.1-0.3,6.6-2.7,8.7c-1.3,1.2-3,1.8-4.7,1.8c-1.5,0-3-0.3-4.1-1.2c-0.3-0.2-0.5-0.5-0.8-0.7
		c0,0.5,0,0.9,0,1.4c-1.6,0-3.2,0-4.9,0c0-6.5,0-13,0-19.4C72.1,16.9,72.5,16.4,73,16.2z"/>
	<path class="st0" d="M119.3,25c-0.9,0.1-1.7,0.6-2.2,1.2c-0.5,0.6-0.8,1.4-0.8,2.1c-0.1,1,0.1,2.1,0.7,2.9c0.4,0.6,1.1,1.1,1.8,1.3
		c1.3,0.4,2.7,0.2,3.8-0.6c0.8-0.6,1.2-1.6,1.3-2.6c0.1-0.7,0-1.4-0.2-2.1c-0.3-0.8-0.8-1.4-1.4-1.8C121.4,24.9,120.3,24.8,119.3,25
		z M125.1,16.1c1-0.3,2-0.6,2.9-0.9c0.4-0.1,0.8,0.2,0.8,0.6c0,7,0,14.1,0,21.1c-1.6,0-3.2,0-4.9,0c0-0.5,0-0.9,0-1.4
		c-0.6,0.6-1.3,1.1-2.1,1.4c-1.3,0.6-2.8,0.5-4.2,0.2c-1.7-0.4-3.3-1.3-4.4-2.7c-1-1.2-1.6-2.8-1.8-4.4c-0.4-3.1,0.8-6.5,3.4-8.4
		c1.6-1.2,3.7-1.6,5.6-1.3c1.3,0.2,2.6,0.8,3.5,1.8c0-1.4,0-2.9,0-4.3c0-0.4,0-0.8,0.2-1.2C124.4,16.3,124.7,16.2,125.1,16.1z"/>
	<path class="st0" d="M43,17.3c1.1-0.3,2.2-0.7,3.3-1c0.3-0.1,0.8,0.1,0.8,0.5c0,1.3,0,2.6,0,3.8c1,0,1.9,0,2.9,0
		c0.2,0,0.4,0.2,0.4,0.5c0,1.2,0,2.5,0,3.7c0,0.2-0.2,0.5-0.4,0.5c-1,0-1.9,0-2.9,0c0,1.9,0,3.7,0,5.6c0,0.5,0.1,1.1,0.6,1.3
		c0.7,0.4,1.6,0.2,2.4,0.2c0.2,0,0.4,0.3,0.4,0.5c0,1.2,0,2.3,0,3.5c0,0.3-0.2,0.5-0.4,0.5c-1.4,0.2-2.8,0.2-4.1-0.1
		c-0.8-0.2-1.5-0.5-2.1-1c-0.8-0.7-1.3-1.7-1.4-2.8c-0.1-1.3-0.1-2.7-0.2-4.1c0-1.2,0-2.4,0-3.7c-0.7,0-1.4,0-2.1,0
		c-0.2,0-0.4-0.2-0.4-0.5c0-1.3,0-2.5,0-3.8c0-0.2,0.2-0.4,0.4-0.4c0.7,0,1.4,0,2.1,0c0-0.7,0-1.4,0-2.2C42.1,18,42.4,17.5,43,17.3z
		"/>
	<path class="st0" d="M8.7,20.7c1-0.3,2.1-0.6,3.1-1c0.4-0.1,0.8,0.1,0.8,0.5c0,0.6,0,1.3,0,1.9c0.7-0.7,1.5-1.3,2.4-1.6
		c1.4-0.5,2.9-0.4,4.2,0c1.1,0.3,2.2,1,2.9,2c0.9,1.2,1.2,2.8,1.3,4.2c0,2.7,0,5.4,0,8.1c0,0.7,0,1.4,0,2c-1.6,0-3.2,0-4.8,0
		c-0.1-0.7,0-1.5,0-2.2c0-2.3,0-4.5,0-6.8c0-0.8-0.1-1.7-0.7-2.4c-1-1.1-2.8-1.1-4-0.3c-0.8,0.5-1.1,1.5-1.1,2.4
		c-0.1,1.2,0,2.4-0.1,3.6c0,1.9,0,3.8,0,5.7c-1.6,0-3.2,0-4.9,0c0-5,0-10,0-15C7.8,21.4,8.2,20.9,8.7,20.7z"/>
	<path class="st0" d="M59.6,25c-0.8,0.2-1.6,0.6-2.1,1.3c-0.7,0.9-0.9,2-0.8,3c0.1,1,0.6,2,1.4,2.6c0.9,0.7,2.1,0.9,3.3,0.7
		c0.9-0.2,1.8-0.7,2.3-1.4c0.7-0.9,0.8-2.1,0.7-3.2c-0.1-1-0.7-2-1.5-2.5C61.9,24.9,60.7,24.8,59.6,25z M65.3,20.8
		c1.1-0.3,2.1-0.7,3.2-1c0.4-0.1,0.8,0.2,0.8,0.5c0,5.5,0,11.1,0,16.6c-1.6,0-3.2,0-4.8,0c0-0.4,0-0.9,0-1.3c-0.1,0-0.2,0.1-0.3,0.2
		c-0.9,0.9-2.1,1.4-3.3,1.6c-1.9,0.3-3.8-0.1-5.4-1.2c-1.2-0.8-2.1-1.9-2.8-3.2c-1.3-2.7-1.2-6.1,0.3-8.7c0.7-1.3,1.8-2.4,3.2-3.1
		c1.4-0.7,3.1-1,4.6-0.8c1.3,0.2,2.6,0.8,3.6,1.7C64.4,21.5,64.8,21,65.3,20.8z"/>
	<path class="st0" d="M139.9,24.8c-1,0.1-1.9,0.5-2.6,1.2c-0.9,1-1.1,2.5-0.7,3.8c0.3,1,1.1,1.8,2,2.2c1.4,0.6,3.2,0.4,4.4-0.6
		c1.2-1,1.5-2.8,0.9-4.2c-0.3-0.7-0.7-1.3-1.3-1.7C141.9,24.9,140.9,24.7,139.9,24.8z M146.5,20.4c0.6-0.2,1.2-0.4,1.8-0.6
		c0.4-0.1,0.8,0.2,0.7,0.6c0,5.3,0,10.7,0,16c0,1.6-0.5,3.3-1.5,4.6c-1.1,1.3-2.7,2.3-4.3,2.7c-1.9,0.5-3.8,0.4-5.7-0.1
		c-1.7-0.4-3.2-1.4-4.3-2.8c-0.1-0.2-0.3-0.3-0.3-0.5c0-0.2,0.1-0.4,0.3-0.5c0.9-0.5,1.8-1.1,2.7-1.6c0.4-0.2,0.9-0.2,1.3,0
		c0.3,0.2,0.5,0.5,0.8,0.7c1,0.7,2.2,1.1,3.4,0.8c0.9-0.2,1.8-0.6,2.3-1.5c0.6-1,0.6-2.2,0.4-3.3c-0.5,0.4-1,0.9-1.7,1.2
		c-1.4,0.8-3.2,0.9-4.7,0.5c-1.5-0.4-2.9-1-3.9-2.1c-2.5-2.5-3.1-6.7-1.4-9.9c0.6-1.2,1.5-2.2,2.6-2.9c1.5-1,3.2-1.5,5-1.4
		c1.6,0.1,3.1,0.8,4.2,2c0-0.4,0-0.9,0.4-1.2C145.2,20.7,145.9,20.6,146.5,20.4z"/>
	<path class="st0" d="M92.5,20.8c1-0.3,2.1-0.6,3.1-0.9c0.4-0.1,0.8,0.2,0.8,0.6c0,0.9,0,1.9,0,2.8c0.5-1,1.4-2,2.5-2.4
		c0.8-0.3,1.6-0.5,2.4-0.5c0,1.8,0,3.6,0,5.5c-0.8,0.1-1.7,0-2.5,0.3c-0.9,0.3-1.7,1-2.1,1.9c-0.3,0.7-0.3,1.4-0.3,2.1
		c0,2.3,0,4.5,0,6.8c-1.6,0-3.2,0-4.8,0c0-5,0-10,0-15C91.6,21.4,92,21,92.5,20.8z"/>
	<path class="st0" d="M104.6,20.8c1.1-0.3,2.1-0.6,3.2-1c0.4-0.1,0.8,0.2,0.8,0.6c0,4.5,0,8.9,0,13.4c0,1,0,2.1,0,3.1
		c-1.6,0-3.2,0-4.8,0c0-5,0-9.9,0-14.9C103.6,21.5,104,21,104.6,20.8z"/>
	<path class="st0" d="M29,20.8c2.7-1.2,6.1-0.7,8.3,1.4c0.4,0.4,0.8,0.8,1.1,1.4c0.1,0.1,0,0.3-0.2,0.3c-1.2,0.6-2.3,1.2-3.5,1.9
		c-0.2,0.1-0.5,0.1-0.6-0.1c-0.4-0.5-1-1-1.7-1.1c-0.5,0-1.1,0.1-1.4,0.4c-0.1,0.2-0.3,0.4-0.1,0.6c0.2,0.5,0.8,0.6,1.3,0.8
		c1.1,0.3,2.1,0.7,3.2,1.1c1.1,0.4,2.2,1.1,2.8,2.1c0.8,1.4,0.9,3.2,0.1,4.6c-0.5,1-1.3,1.8-2.4,2.3c-1.7,0.8-3.6,1-5.4,0.7
		c-1.3-0.2-2.6-0.6-3.6-1.4c-0.7-0.6-1.3-1.3-1.8-2.1c-0.1-0.1,0-0.2,0-0.4c1.2-0.7,2.4-1.4,3.6-2c0.2-0.1,0.5-0.2,0.6,0
		c0.2,0.3,0.3,0.6,0.6,0.8c0.6,0.6,1.4,0.8,2.2,0.8c0.5,0,1.2-0.1,1.5-0.6c0.2-0.4-0.1-0.9-0.5-1c-1.6-0.7-3.3-1-4.9-1.8
		c-1-0.5-1.9-1.3-2.3-2.4c-0.4-1.2-0.4-2.5,0.1-3.7C26.6,22.3,27.7,21.4,29,20.8z"/>
	<path class="st0" d="M158.6,25c-0.8,0.4-1.5,1.2-1.6,2.1c2.3,0,4.5,0,6.8,0c-0.1-0.7-0.6-1.4-1.2-1.9
		C161.4,24.4,159.8,24.4,158.6,25z M158.6,20.4c1.9-0.4,3.9-0.2,5.7,0.7c1.3,0.7,2.4,1.7,3.2,3c0.9,1.5,1.3,3.3,1.2,5.1
		c0,0.4,0,0.8-0.1,1.2c0,0.2-0.3,0.4-0.5,0.4c-3.7,0-7.4,0-11.1,0c0.2,0.7,0.6,1.3,1.2,1.6c1.3,0.7,2.9,0.9,4.2,0.4
		c0.4-0.2,0.8-0.4,1.2-0.6c0.2-0.2,0.5-0.2,0.8-0.1c1,0.5,1.9,1.1,2.9,1.6c0.3,0.2,0.4,0.6,0.2,0.9c-1.1,1.3-2.7,2.3-4.4,2.6
		c-1.5,0.3-3,0.3-4.5,0c-1.8-0.4-3.4-1.3-4.6-2.6c-1-1.1-1.7-2.5-2-4c-0.2-1.5-0.2-3,0.2-4.4c0.4-1.5,1.2-2.9,2.4-3.9
		C155.7,21.3,157.1,20.7,158.6,20.4z"/>
</g>
</svg>
