<?xml version="1.0" encoding="utf-8"?>
<!-- Generator: Adobe Illustrator 21.1.0, SVG Export Plug-In . SVG Version: 6.00 Build 0)  -->
<svg version="1.1" id="Layer_1" xmlns="http://www.w3.org/2000/svg" xmlns:xlink="http://www.w3.org/1999/xlink" x="0px" y="0px"
	 width="177.9px" height="27.5px" viewBox="0 0 177.9 27.5" style="enable-background:new 0 0 177.9 27.5;" xml:space="preserve">
<style type="text/css">
	.st0{fill:#151517;}
	.st1{clip-path:url(#SVGID_2_);fill:#4C81DD;}
	.st2{fill:#4C81DD;}
</style>
<g>
	<path class="st0" d="M175.4,9.9h2.4l-4,10.1h-2.2l-2.5-6.6l-2.4,6.6h-2.2l-4-10.1h2.6l2.6,7.1l2.6-7.1h1.8l2.6,7.2L175.4,9.9z
		 M155.8,11.4c-0.7,0-1.2,0.2-1.6,0.6c-0.4,0.4-0.7,1-0.8,1.7h4.7c-0.1-0.8-0.3-1.3-0.7-1.7C157,11.6,156.5,11.4,155.8,11.4z
		 M160.2,15.1h-7c0.1,1.1,0.3,1.9,0.8,2.4c0.5,0.5,1.2,0.8,2.2,0.8c1.1,0,2.1-0.4,3.1-1.1l0.7,1.7c-0.5,0.4-1.1,0.7-1.8,0.9
		c-0.7,0.2-1.4,0.3-2.1,0.3c-1.7,0-3-0.5-3.9-1.4c-0.9-0.9-1.4-2.2-1.4-3.8c0-1,0.2-1.9,0.6-2.7c0.4-0.8,1-1.4,1.7-1.9
		c0.7-0.5,1.6-0.7,2.5-0.7c1.4,0,2.5,0.5,3.3,1.4c0.8,0.9,1.2,2.1,1.2,3.7V15.1z M146.4,5.3h2.8v2.5h-2.8V5.3z M146.6,20V9.9h2.5V20
		H146.6z M143.2,9.9h2.5L141.3,20h-2.2l-4.4-10.1h2.6l2.9,7.2L143.2,9.9z M133.5,9.7c0.4,0,0.7,0.1,1,0.2l0,2.3
		c-0.4-0.2-0.9-0.3-1.3-0.3c-0.9,0-1.5,0.2-2,0.7c-0.4,0.5-0.7,1.1-0.7,2V20h-2.5v-7.2c0-1.1-0.1-2-0.2-2.9h2.3l0.2,1.8
		c0.3-0.7,0.7-1.2,1.2-1.5C132.2,9.8,132.8,9.7,133.5,9.7z M121.9,11.4c-0.7,0-1.2,0.2-1.6,0.6c-0.4,0.4-0.7,1-0.8,1.7h4.7
		c-0.1-0.8-0.3-1.3-0.7-1.7C123.1,11.6,122.6,11.4,121.9,11.4z M126.4,15.1h-7c0.1,1.1,0.3,1.9,0.8,2.4c0.5,0.5,1.2,0.8,2.2,0.8
		c1.1,0,2.1-0.4,3.1-1.1l0.7,1.7c-0.5,0.4-1.1,0.7-1.8,0.9c-0.7,0.2-1.4,0.3-2.1,0.3c-1.7,0-3-0.5-3.9-1.4c-0.9-0.9-1.4-2.2-1.4-3.8
		c0-1,0.2-1.9,0.6-2.7s1-1.4,1.7-1.9c0.7-0.5,1.6-0.7,2.5-0.7c1.4,0,2.5,0.5,3.3,1.4c0.8,0.9,1.2,2.1,1.2,3.7V15.1z M113.5,11.8v4.5
		c0,1.2,0.6,1.8,1.7,1.8c0.3,0,0.6-0.1,1-0.2v2c-0.4,0.2-1,0.2-1.6,0.2c-1.1,0-2-0.3-2.6-1c-0.6-0.6-0.9-1.6-0.9-2.8v-4.6h-1.9V9.9
		h1.9V7.4l2.5-0.8v3.3h2.7v1.9H113.5z M104.5,9.6c2.4,0,3.6,1.4,3.6,4.2V20h-2.5v-6.1c0-0.8-0.2-1.4-0.5-1.7
		c-0.3-0.4-0.8-0.6-1.4-0.6c-0.8,0-1.4,0.2-1.8,0.7c-0.5,0.5-0.7,1.1-0.7,1.9V20h-2.5v-7.2c0-1.1-0.1-2-0.2-2.9h2.3l0.2,1.7
		c0.3-0.6,0.8-1.1,1.4-1.4C103.1,9.8,103.7,9.6,104.5,9.6z M93.6,20V5.8h2.6V20H93.6z M87.3,11.4c-0.7,0-1.2,0.2-1.6,0.6
		c-0.4,0.4-0.7,1-0.8,1.7h4.7c-0.1-0.8-0.3-1.3-0.7-1.7C88.5,11.6,87.9,11.4,87.3,11.4z M91.7,15.1h-7c0.1,1.1,0.3,1.9,0.8,2.4
		c0.5,0.5,1.2,0.8,2.2,0.8c1.1,0,2.1-0.4,3.1-1.1l0.7,1.7c-0.5,0.4-1.1,0.7-1.8,0.9c-0.7,0.2-1.4,0.3-2.1,0.3c-1.7,0-3-0.5-3.9-1.4
		c-0.9-0.9-1.4-2.2-1.4-3.8c0-1,0.2-1.9,0.6-2.7c0.4-0.8,1-1.4,1.7-1.9c0.7-0.5,1.6-0.7,2.5-0.7c1.4,0,2.5,0.5,3.3,1.4
		c0.8,0.9,1.2,2.1,1.2,3.7V15.1z M75.5,18.2c0.8,0,1.5-0.3,1.9-0.9c0.5-0.6,0.7-1.4,0.7-2.4c0-1.1-0.2-1.9-0.7-2.4
		c-0.5-0.6-1.1-0.9-1.9-0.9c-0.8,0-1.5,0.3-2,0.9c-0.5,0.6-0.7,1.4-0.7,2.4c0,1.1,0.2,1.9,0.7,2.5C74,17.9,74.6,18.2,75.5,18.2z
		 M80.6,5.3V20h-2.5v-1.6c-0.3,0.6-0.7,1-1.3,1.3c-0.6,0.3-1.2,0.5-2,0.5c-0.9,0-1.6-0.2-2.3-0.7c-0.7-0.4-1.2-1.1-1.6-1.9
		c-0.4-0.8-0.6-1.7-0.6-2.8s0.2-2,0.6-2.7s0.9-1.4,1.6-1.8c0.7-0.4,1.5-0.7,2.3-0.7c0.7,0,1.4,0.2,1.9,0.5c0.6,0.3,1,0.7,1.3,1.3
		V5.3H80.6z M64,18.2c0.9,0,1.5-0.3,1.9-0.8c0.5-0.6,0.7-1.4,0.7-2.5c0-1.1-0.2-1.9-0.7-2.5c-0.5-0.6-1.1-0.9-1.9-0.9
		c-0.8,0-1.5,0.3-1.9,0.9c-0.5,0.6-0.7,1.4-0.7,2.5c0,1.1,0.2,1.9,0.7,2.5C62.5,17.9,63.2,18.2,64,18.2z M64,20.2
		c-1,0-1.9-0.2-2.7-0.6c-0.8-0.4-1.4-1-1.8-1.8c-0.4-0.8-0.6-1.7-0.6-2.8s0.2-2,0.6-2.8c0.4-0.8,1-1.4,1.8-1.8
		C62.1,9.9,63,9.6,64,9.6c1,0,1.9,0.2,2.7,0.6c0.8,0.4,1.4,1,1.8,1.8c0.4,0.8,0.6,1.7,0.6,2.8s-0.2,2-0.6,2.8
		c-0.4,0.8-1,1.4-1.8,1.8C65.9,19.9,65,20.2,64,20.2z M53,20.2c-1.4,0-2.6-0.3-3.7-0.9c-1-0.6-1.8-1.4-2.4-2.5
		c-0.6-1.1-0.8-2.4-0.8-3.9c0-1.5,0.3-2.7,0.8-3.8c0.6-1.1,1.4-2,2.4-2.5c1.1-0.6,2.3-0.9,3.7-0.9c1,0,1.9,0.2,2.7,0.5
		c0.9,0.3,1.6,0.7,2.1,1.2L57,9.2c-0.6-0.5-1.3-0.9-1.9-1.1c-0.6-0.2-1.3-0.4-2-0.4c-1.4,0-2.4,0.4-3.2,1.3
		c-0.7,0.9-1.1,2.2-1.1,3.8c0,1.7,0.4,3,1.1,3.9c0.7,0.9,1.8,1.3,3.2,1.3c0.7,0,1.4-0.1,2-0.3c0.6-0.2,1.3-0.6,1.9-1.1l0.8,1.9
		c-0.6,0.5-1.3,1-2.1,1.3C54.9,20,54,20.2,53,20.2z"/>
	<g>
		<defs>
			<path id="SVGID_1_" d="M0,3c0-1.7,1.3-3,3-3h27c1.7,0,3,1.3,3,3v17.4c0,1.7-1.3,3-3,3H9.3L3,27.2C1.7,28,0,27,0,25.5V3z"/>
		</defs>
		<clipPath id="SVGID_2_">
			<use xlink:href="#SVGID_1_"  style="overflow:visible;"/>
		</clipPath>
		<path class="st1" d="M3-2C0.2-2-2,0.2-2,3h4c0-0.6,0.4-1,1-1V-2z M30,2c0.6,0,1,0.4,1,1h4c0-2.8-2.2-5-5-5V2z M31,20.4
			c0,0.6-0.4,1-1,1v4c2.8,0,5-2.2,5-5H31z M-2,25.5c0,3.1,3.4,5,6.1,3.4L2,25.5H-2z M8.2,21.7L2,25.5l2.1,3.4l6.2-3.8L8.2,21.7z
			 M30,21.4H9.3v4H30V21.4z M2,25.5V3h-4v22.5H2z M31,3v17.4h4V3H31z M3,2h27v-4H3V2z M9.3,23.4v-2H8.7l-0.5,0.3L9.3,23.4z"/>
	</g>
	<path class="st2" d="M13.4,10.2l-6,5l1.3,1.5l6-5L13.4,10.2z M7.4,6.8l6,5l1.3-1.5l-6-5L7.4,6.8z M14,11l0.6,0.8l0.9-0.8l-0.9-0.8
		L14,11z"/>
	<rect x="17" y="14" class="st2" width="8" height="2"/>
</g>
</svg>
