<svg width="51" height="48" viewBox="0 0 51 48" fill="none" xmlns="http://www.w3.org/2000/svg">
<path d="M0 48L32.7167 36.3155L11.6845 15.2833L0 48Z" fill="#32325D"/>
<path d="M29.2838 25.8695L42.3471 12.8062C43.4922 11.6611 45.3383 11.6611 46.4834 12.8062L47.8622 14.185L50.3393 11.7079L48.9605 10.3291C46.46 7.82861 42.3704 7.82861 39.8699 10.3291L26.8066 23.3924L29.2838 25.8695Z" fill="#32325D"/>
<path d="M18.8378 12.666L17.459 14.0448L19.9361 16.5219L21.3149 15.1432C23.8154 12.6427 23.8154 8.55309 21.3149 6.0526L19.9361 4.67383L17.459 7.17432L18.8378 8.55309C19.9595 9.67481 19.9595 11.5443 18.8378 12.666Z" fill="#32325D"/>
<path d="M35.1942 24.3505L31.4785 28.0662L33.9556 30.5433L37.6713 26.8276C38.8164 25.6826 40.6626 25.6826 41.8076 26.8276L45.5701 30.5901L48.0472 28.1129L44.2848 24.3505C41.7609 21.85 37.6947 21.85 35.1942 24.3505Z" fill="#32325D"/>
<path d="M30.5223 10.3291L22.1328 18.7186L24.6099 21.1957L32.9994 12.8062C35.4999 10.3058 35.4999 6.21617 32.9994 3.71568L29.2837 0L26.8066 2.47712L30.5223 6.1928C31.644 7.33788 31.644 9.20741 30.5223 10.3291Z" fill="#32325D"/>
</svg>
