<svg width="107" height="43" viewBox="0 0 107 43" fill="none" xmlns="http://www.w3.org/2000/svg">
<path d="M105.969 9.08316C106.347 8.91271 106.515 8.4685 106.344 8.09098L103.567 1.93898C103.396 1.56146 102.952 1.3936 102.574 1.56406C102.197 1.73451 102.029 2.17872 102.2 2.55624L104.669 8.02468L99.2002 10.4937C98.8226 10.6642 98.6548 11.1084 98.8252 11.4859C98.9957 11.8634 99.4399 12.0313 99.8174 11.8608L105.969 9.08316ZM1.70083 42.3428C14.8741 7.48163 61.1957 -7.60107 105.396 9.10119L105.926 7.69803C61.2656 -9.17819 13.87 5.89549 0.297668 41.8126L1.70083 42.3428Z" fill="url(#paint0_linear_510_4772)"/>
<defs>
<linearGradient id="paint0_linear_510_4772" x1="106" y1="-28" x2="41.2232" y2="57.2775" gradientUnits="userSpaceOnUse">
<stop offset="0.114583" stop-color="#32325D"/>
<stop offset="1" stop-color="#C40F0F"/>
</linearGradient>
</defs>
</svg>
