<?xml version="1.0" encoding="utf-8"?>
<!-- Generator: Adobe Illustrator 21.1.0, SVG Export Plug-In . SVG Version: 6.00 Build 0)  -->
<svg version="1.1" id="Layer_1" xmlns="http://www.w3.org/2000/svg" xmlns:xlink="http://www.w3.org/1999/xlink" x="0px" y="0px"
	 width="128px" height="25.7px" viewBox="0 0 128 25.7" style="enable-background:new 0 0 128 25.7;" xml:space="preserve">
<style type="text/css">
	.st0{fill:#333333;}
</style>
<path class="st0" d="M38.1,11.4c-1.4,0.2-2.6,1.2-3.4,2.4c-0.7,1.2-0.9,2.6-0.6,3.9c0.3,1.3,1.1,2.5,2.2,3.2c1.1,0.7,2.5,1,3.8,0.6
	c1.2-0.3,2.3-1.2,3-2.3c0.6-1,0.9-2.3,0.7-3.5c-0.2-1.6-1.2-3-2.6-3.9C40.3,11.4,39.1,11.3,38.1,11.4z M45.5,0h0.6
	c0.7,0.1,1.4,0.6,1.6,1.3c0.1,0.4,0.1,0.8,0.1,1.3c0,6.8,0,13.7,0,20.5c0,0.4,0,0.8-0.1,1.2c-0.3,0.9-1.2,1.5-2.2,1.4
	c-0.8-0.1-1.5-0.8-1.7-1.5c-2.6,1.8-6.2,2.1-9,0.6c-1.6-0.9-2.9-2.2-3.8-3.8c-1.1-1.9-1.3-4.3-0.9-6.4c0.4-2.1,1.7-4,3.4-5.4
	c1.5-1.2,3.4-1.9,5.4-1.8c1.7,0,3.5,0.5,4.9,1.5c0-2.3,0-4.6,0-6.9C43.8,1,44.6,0.1,45.5,0z"/>
<path class="st0" d="M51.4,0H52c0.9,0.1,1.7,1,1.7,1.9c0,0.6,0.1,1.3-0.2,1.8c-0.3,0.7-1.1,1.1-1.8,1.1c-1,0-1.9-0.8-1.9-1.8
	c0-0.4,0-0.8,0-1.1C49.7,1,50.5,0.1,51.4,0z"/>
<path class="st0" d="M0.8,7.7c0.8-0.6,2.1-0.4,2.7,0.4C3.9,8.5,4,9,4,9.5c0.7-0.8,1.8-1.4,2.8-1.8C7.8,7.4,9,7.2,10,7.5
	c0.7,0.2,1.2,0.8,1.3,1.5c0.1,1-0.7,2.1-1.7,2.2c-1.5,0.1-2.9,0.8-4,1.9c-1,0.9-1.6,2.2-1.7,3.6c0,2.3,0,4.7,0,7
	c0.1,1.2-1.1,2.2-2.2,2c-0.9,0-1.7-0.8-1.8-1.7V9C0.1,8.5,0.4,8,0.8,7.7z"/>
<path class="st0" d="M16.9,11.7c-1,0.7-1.8,1.8-2.1,3c3.5,0,6.9,0,10.4,0c-0.3-1-1-1.8-1.8-2.4c-1-0.9-2.3-1.3-3.7-1.4
	C18.7,10.9,17.7,11.2,16.9,11.7z M14.4,9.1c1.5-1.1,3.3-1.8,5.2-1.7c1.6,0,3.1,0.3,4.5,1.1c1.9,1.1,3.3,2.8,4,4.9
	c0.3,0.9,0.5,1.9,0.5,2.8c0,0.5-0.2,1-0.6,1.3c-0.4,0.3-0.9,0.4-1.4,0.4c-3.9,0-7.8,0-11.6,0c0.2,0.7,0.4,1.4,0.9,2
	c0.6,0.7,1.2,1.3,2,1.6c1.6,0.6,3.6,0.7,5.2-0.2c0.4-0.2,0.7-0.6,1.2-0.8c0.5-0.2,1.2-0.2,1.7,0.1c0.4,0.2,0.6,0.6,0.8,1
	c0.2,0.6-0.1,1.3-0.6,1.8c-1.3,1.1-2.9,1.9-4.6,2.2c-2,0.3-4.2,0.1-6-0.9c-1.7-0.9-3.1-2.3-3.9-4c-1.1-2.1-1.2-4.7-0.5-7
	C11.7,11.8,12.9,10.2,14.4,9.1z"/>
<path class="st0" d="M51.1,7.4c0.7-0.2,1.5,0,2,0.5c0.4,0.4,0.6,0.9,0.6,1.4c0,4.8,0,9.7,0,14.5c0,0.6-0.4,1.2-0.9,1.5
	c-0.5,0.3-1.2,0.4-1.8,0.2c-0.7-0.3-1.3-1-1.3-1.8c0-4.8,0-9.6,0-14.5C49.7,8.5,50.3,7.7,51.1,7.4z"/>
<path class="st0" d="M60.9,7.4c1.5-0.2,3-0.1,4.4,0.5c0.9,0.4,1.8,0.9,2.6,1.4c0.8,0.5,1,1.7,0.6,2.5c-0.4,1-1.8,1.4-2.7,0.8
	s-1.8-1.1-2.9-1.4c-1.1-0.2-2.4,0.1-3.2,0.9c-0.3,0.3-0.2,0.8,0.1,1c0.9,0.7,2,0.8,3.1,1.1c1.2,0.2,2.3,0.6,3.4,1.1
	c0.8,0.4,1.6,0.9,2.2,1.7c0.6,0.9,1,2,1,3.1c0,1.3-0.6,2.5-1.5,3.4c-1.4,1.4-3.4,2.1-5.3,2.1c-2.5,0.1-5-1-6.9-2.6
	c-0.5-0.4-0.7-1-0.6-1.6c0-0.6,0.4-1.1,0.8-1.4c0.7-0.5,1.8-0.5,2.5,0.1c1.2,1.1,2.9,1.8,4.6,1.5c0.9-0.1,1.9-0.4,2.4-1.2
	c0.2-0.2,0.2-0.5,0.1-0.8c-0.1-0.3-0.4-0.5-0.7-0.7c-0.8-0.5-1.7-0.7-2.5-0.9c-1.2-0.2-2.4-0.5-3.5-1c-1-0.5-1.9-1.2-2.5-2.2
	c-0.6-1-0.7-2.2-0.5-3.4c0.3-1.2,1.1-2.3,2.1-3C58.7,8,59.8,7.6,60.9,7.4z"/>
<path class="st0" d="M72.4,0h0.6c1,0.1,1.8,1,1.8,2c0,7.2,0,14.3,0,21.5c0,0.5-0.1,1-0.4,1.4c-0.6,0.7-1.7,1-2.5,0.6
	c-0.7-0.3-1.2-1-1.2-1.8c0-7.1,0-14.1,0-21.2c0-0.4,0-0.9,0.1-1.3C71.1,0.6,71.7,0.1,72.4,0z"/>
<path class="st0" d="M103.6,11.4c-1.5,0.2-2.8,1.3-3.5,2.6c-0.6,1.1-0.7,2.3-0.5,3.5c0.2,1.4,1.1,2.6,2.2,3.4c1.1,0.8,2.7,1,4,0.6
	c1.2-0.4,2.2-1.3,2.9-2.4c0.6-1,0.8-2.3,0.6-3.5c-0.2-1.5-1.2-2.8-2.4-3.6C105.8,11.4,104.7,11.3,103.6,11.4z M97.1,0h0.6
	c1,0.1,1.7,1,1.7,2c0,2.3,0,4.6,0,6.9c2.9-2,7-2,9.8,0c1.1,0.8,2.1,1.9,2.8,3.1c0.8,1.4,1.2,3.1,1.2,4.7c0,1.8-0.5,3.6-1.5,5
	c-0.9,1.3-2.1,2.5-3.6,3.2c-2.8,1.4-6.3,1.1-8.8-0.7c-0.2,0.8-0.9,1.5-1.8,1.6c-1.1,0.1-2.2-0.8-2.2-1.9c0-7.3,0-14.5,0-21.8
	C95.4,1,96.2,0.1,97.1,0z"/>
<path class="st0" d="M83.9,11.4c-1.1,0.2-2.1,0.9-2.7,1.9c-0.9,1.3-1.2,2.9-0.9,4.5c0.2,1.3,1,2.5,2,3.2c1.2,0.8,2.7,1,4,0.6
	c1.1-0.3,2-1,2.6-1.9c0.9-1.2,1.1-2.8,0.8-4.3c-0.3-1.4-1.1-2.7-2.4-3.5C86.3,11.3,85,11.2,83.9,11.4z M83.1,7.5
	c1.6-0.3,3.2-0.3,4.7,0.3c0.7,0.3,1.4,0.7,2.1,1.1c0.2-0.7,0.7-1.3,1.4-1.5c0.5-0.1,1.1-0.1,1.5,0.2c0.6,0.4,1,1.1,1,1.8
	c0,4.8,0,9.6,0,14.4c0,1.1-1,2.1-2.1,1.9c-0.9,0-1.6-0.7-1.8-1.6c-2.8,2-6.9,2.1-9.7,0.1c-1.6-1.1-2.8-2.7-3.4-4.6
	c-0.6-1.7-0.6-3.5-0.3-5.3c0.3-1.6,1.2-3.2,2.3-4.4C79.9,8.8,81.4,7.9,83.1,7.5z"/>
<path class="st0" d="M119.4,7.4c1.1-0.2,2.2-0.1,3.2,0.1c1.1,0.3,2.2,0.8,3.1,1.4c0.4,0.3,0.9,0.5,1.1,1c0.4,0.6,0.4,1.5,0,2.1
	c-0.4,0.6-1.2,1-1.9,0.8c-0.5-0.1-0.9-0.5-1.4-0.7c-0.8-0.5-1.7-0.9-2.6-1c-0.9,0-1.8,0.2-2.5,0.7c-0.2,0.2-0.5,0.4-0.5,0.8
	c0,0.4,0.3,0.6,0.6,0.7c0.9,0.5,1.9,0.7,2.9,0.9c1.3,0.3,2.6,0.7,3.8,1.3c1.5,0.8,2.5,2.4,2.6,4c0.1,1.1-0.3,2.3-0.9,3.2
	c-0.8,1.1-2.1,1.9-3.4,2.4c-2,0.7-4.2,0.6-6.2-0.2c-1-0.4-1.9-0.9-2.7-1.5c-0.3-0.2-0.6-0.4-0.8-0.7c-0.5-0.7-0.5-1.8,0.1-2.4
	c0.6-0.8,2-0.9,2.7-0.3c1,0.8,2.1,1.4,3.4,1.6c1.1,0.1,2.2-0.1,3.1-0.7c0.3-0.3,0.8-0.7,0.7-1.2c0-0.5-0.5-0.7-0.9-0.9
	c-0.9-0.5-2-0.7-3-0.9c-1.1-0.2-2.2-0.5-3.2-1c-0.9-0.5-1.8-1.2-2.3-2c-0.7-1.1-0.8-2.5-0.4-3.7c0.3-1.1,1.1-2,1.9-2.6
	C117.2,8,118.3,7.6,119.4,7.4z"/>
</svg>
