<?xml version="1.0" encoding="utf-8"?>
<!-- Generator: Adobe Illustrator 21.1.0, SVG Export Plug-In . SVG Version: 6.00 Build 0)  -->
<svg version="1.1" id="Layer_1" xmlns="http://www.w3.org/2000/svg" xmlns:xlink="http://www.w3.org/1999/xlink" x="0px" y="0px"
	 width="56px" height="61px" viewBox="0 0 56 61" style="enable-background:new 0 0 56 61;" xml:space="preserve">
<style type="text/css">
	.st0{fill:#32325D;}
</style>
<g>
	<path class="st0" d="M39.7,33.7l-11.9,12l-0.7,0.7l-0.7-0.7l-6.1-6.2c-0.4-0.4-0.4-1,0-1.4c0.4-0.4,1-0.4,1.4,0l5.4,5.5l11.2-11.3
		c0.4-0.4,1-0.4,1.4,0C40.1,32.7,40.1,33.3,39.7,33.7z"/>
	<path class="st0" d="M53,5H42V1c0-0.5-0.5-1-1-1c-0.6,0-1,0.5-1,1v4H18V1c0-0.5-0.5-1-1-1c-0.6,0-1,0.5-1,1v4H3C1.3,5,0,6.3,0,8v50
		c0,1.7,1.3,3,3,3h50c1.7,0,3-1.3,3-3V8C56,6.3,54.7,5,53,5z M2,8c0-0.5,0.4-1,1-1h13v3c0,0.6,0.4,1,1,1c0.5,0,1-0.4,1-1V7h22v3
		c0,0.6,0.4,1,1,1c0.5,0,1-0.4,1-1V7h11c0.5,0,1,0.5,1,1v12H2V8z M54,58c0,0.6-0.5,1-1,1H3c-0.6,0-1-0.4-1-1V22h52V58z"/>
</g>
</svg>
