<?xml version="1.0" encoding="utf-8"?>
<!-- Generator: Adobe Illustrator 21.1.0, SVG Export Plug-In . SVG Version: 6.00 Build 0)  -->
<svg version="1.1" id="Layer_1" xmlns="http://www.w3.org/2000/svg" xmlns:xlink="http://www.w3.org/1999/xlink" x="0px" y="0px"
	 width="52px" height="43px" viewBox="0 0 52 43" style="enable-background:new 0 0 52 43;" xml:space="preserve">
<style type="text/css">
	.st0{fill:#32325D;}
</style>
<g>
	<path class="st0" d="M24,26v2h13v-2H24z"/>
	<path class="st0" d="M50,0H2C0.9,0,0,0.9,0,2v39c0,1.1,0.9,2,2,2h48c1.1,0,2-0.9,2-2V2C52,0.9,51.1,0,50,0z M50,41H2V2h48V41z"/>
</g>
<polygon class="st0" points="23.6,20.5 22.6,21.3 14.6,27.8 13.4,26.2 20.4,20.5 13.4,14.8 14.6,13.2 22.6,19.7 "/>
<rect x="24" y="26" class="st0" width="13" height="2"/>
</svg>
