<?xml version="1.0" encoding="utf-8"?>
<!-- Generator: Adobe Illustrator 21.1.0, SVG Export Plug-In . SVG Version: 6.00 Build 0)  -->
<svg version="1.1" id="Layer_1" xmlns="http://www.w3.org/2000/svg" xmlns:xlink="http://www.w3.org/1999/xlink" x="0px" y="0px"
	 width="64px" height="50px" viewBox="0 0 64 50" style="enable-background:new 0 0 64 50;" xml:space="preserve">
<style type="text/css">
	.st0{fill:#32325D;}
	.st1{fill:none;}
</style>
<g>
	<path class="st0" d="M61,0H3C1.3,0,0,1.3,0,3v44c0,0.8,0.3,1.6,0.9,2.1C1.4,49.7,2.2,50,3,50h58c1.7,0,3-1.3,3-3V3
		C64,1.3,62.7,0,61,0z M20,48H3c-0.6,0-1-0.4-1-1V19h18V48z M62,47c0,0.6-0.4,1-1,1H22V19h40V47z M62,17H2V3c0-0.6,0.4-1,1-1h58
		c0.6,0,1,0.4,1,1V17z"/>
	<path class="st1" d="M62,3v14H2V3c0-0.6,0.4-1,1-1h58C61.6,2,62,2.5,62,3z"/>
	<path class="st1" d="M62,19v28c0,0.6-0.4,1-1,1H22V19H62z"/>
	<path class="st1" d="M20,19v29H3c-0.6,0-1-0.4-1-1V19H20z"/>
</g>
</svg>
